{"glyphs":{"0":{"ha":728,"x_min":60,"x_max":667,"o":"m 667 497 q 650 282 667 376 q 597 122 633 188 q 503 21 561 56 q 363 -14 446 -14 q 194 42 261 -14 q 94 211 128 97 q 60 497 60 325 q 91 776 60 663 q 189 948 122 889 q 363 1007 256 1007 q 533 948 465 1007 q 633 775 600 889 q 667 497 667 661 m 204 496 q 219 281 204 367 q 269 152 235 194 q 363 110 304 110 q 456 152 421 110 q 506 281 490 194 q 522 497 522 367 q 506 712 522 626 q 456 840 490 797 q 363 883 421 883 q 269 840 304 883 q 219 712 235 797 q 204 496 204 626 z "},"1":{"ha":728,"x_min":100,"x_max":486,"o":"m 486 0 l 344 0 l 344 651 q 345 716 344 686 q 347 775 346 746 q 350 832 349 804 q 317 800 335 817 q 276 761 300 783 l 176 675 l 100 765 l 365 992 l 486 992 l 486 0 z "},"2":{"ha":728,"x_min":57,"x_max":663,"o":"m 663 0 l 57 0 l 57 110 l 290 376 q 403 513 360 456 q 467 623 446 571 q 488 735 488 675 q 448 844 488 806 q 342 882 408 882 q 236 860 283 882 q 138 793 189 838 l 63 889 q 144 950 101 924 q 238 991 188 976 q 350 1006 289 1006 q 501 973 438 1006 q 598 882 564 940 q 632 744 632 824 q 606 601 632 667 q 528 469 579 535 q 406 325 478 403 l 233 133 l 233 128 l 663 128 l 663 0 z "},"3":{"ha":728,"x_min":57,"x_max":658,"o":"m 632 763 q 609 650 632 699 q 543 569 586 601 q 440 522 500 538 l 440 517 q 603 440 549 501 q 658 281 658 379 q 620 128 658 194 q 504 24 582 61 q 308 -14 426 -14 q 175 -2 236 -14 q 57 36 114 10 l 57 168 q 177 123 114 139 q 300 107 240 107 q 458 155 410 107 q 507 286 507 203 q 481 379 507 343 q 402 433 456 415 q 267 451 349 451 l 192 451 l 192 571 l 269 571 q 392 592 344 571 q 465 653 440 614 q 489 744 489 693 q 449 848 489 811 q 336 885 410 885 q 256 875 292 885 q 188 848 219 865 q 126 808 157 831 l 58 908 q 183 979 113 953 q 346 1006 254 1006 q 558 939 485 1006 q 632 763 632 872 z "},"4":{"ha":728,"x_min":26,"x_max":704,"o":"m 704 217 l 579 217 l 579 0 l 440 0 l 440 217 l 26 217 l 26 331 l 435 997 l 579 997 l 579 338 l 704 338 l 704 217 m 439 631 q 440 684 439 657 q 442 738 440 711 q 444 787 443 764 q 446 826 444 810 l 440 826 q 415 768 429 797 q 386 715 401 739 l 157 338 l 439 338 l 439 631 z "},"5":{"ha":728,"x_min":76,"x_max":658,"o":"m 363 617 q 518 581 451 617 q 622 479 585 544 q 658 321 658 414 q 618 142 658 218 q 500 26 578 67 q 310 -14 422 -14 q 181 -1 240 -14 q 76 36 121 11 l 76 169 q 186 125 124 142 q 306 108 249 108 q 417 132 371 108 q 487 201 463 156 q 511 311 511 247 q 460 449 511 401 q 306 496 410 496 q 228 490 269 496 q 156 474 186 483 l 94 517 l 129 992 l 594 992 l 594 864 l 251 864 l 231 603 q 290 612 257 607 q 363 617 322 617 z "},"6":{"ha":728,"x_min":64,"x_max":669,"o":"m 64 422 q 76 601 64 515 q 117 761 89 688 q 192 890 144 835 q 312 975 240 944 q 485 1006 383 1006 q 547 1003 514 1006 q 604 993 581 1000 l 604 871 q 551 882 579 878 q 492 886 522 886 q 358 859 413 886 q 271 783 304 832 q 222 667 238 735 q 203 515 206 599 l 210 515 q 257 576 229 550 q 324 616 285 601 q 413 631 363 631 q 551 592 493 631 q 639 485 608 554 q 669 321 669 415 q 635 145 669 221 q 535 28 600 69 q 378 -14 469 -14 q 251 13 308 -14 q 152 95 194 40 q 87 232 110 150 q 64 422 64 314 m 375 108 q 486 160 444 108 q 528 319 528 211 q 490 463 528 411 q 378 514 453 514 q 288 490 326 514 q 230 427 250 465 q 210 347 210 389 q 219 263 210 306 q 250 185 229 221 q 302 129 271 150 q 375 108 333 108 z "},"7":{"ha":728,"x_min":50,"x_max":671,"o":"m 160 0 l 519 864 l 50 864 l 50 992 l 671 992 l 671 889 l 314 0 l 160 0 z "},"8":{"ha":728,"x_min":57,"x_max":671,"o":"m 364 1006 q 508 978 446 1006 q 607 898 571 950 q 643 769 643 846 q 621 666 643 711 q 560 585 599 621 q 469 522 521 550 q 572 453 526 492 q 644 368 618 415 q 671 256 671 321 q 633 113 671 174 q 527 19 596 53 q 367 -14 458 -14 q 197 18 267 -14 q 92 109 128 50 q 57 250 57 168 q 81 365 57 315 q 147 451 104 414 q 242 518 189 489 q 160 586 196 549 q 105 669 125 624 q 85 769 85 714 q 122 897 85 844 q 221 978 158 950 q 364 1006 283 1006 m 194 253 q 237 143 194 186 q 364 100 279 100 q 489 143 446 100 q 532 256 532 186 q 513 330 532 297 q 457 391 493 363 q 371 443 421 419 l 349 456 q 263 400 297 429 q 212 335 229 371 q 194 253 194 299 m 363 892 q 263 858 301 892 q 224 761 224 824 q 242 686 224 718 q 292 631 260 654 q 365 585 325 607 q 438 631 407 606 q 485 687 468 656 q 503 761 503 718 q 465 858 503 824 q 363 892 426 892 z "},"9":{"ha":728,"x_min":57,"x_max":663,"o":"m 663 572 q 651 392 663 479 q 610 231 639 304 q 534 102 582 157 q 414 17 486 47 q 242 -14 342 -14 q 178 -10 214 -14 q 119 -1 143 -7 l 119 122 q 174 110 144 114 q 235 106 204 106 q 372 134 317 106 q 459 213 426 163 q 507 331 492 264 q 525 475 522 399 l 517 475 q 471 416 499 442 q 404 376 443 390 q 314 361 365 361 q 177 399 235 361 q 88 506 119 438 q 57 669 57 575 q 92 847 57 771 q 194 964 128 922 q 353 1006 261 1006 q 478 978 421 1006 q 576 896 535 950 q 640 760 618 842 q 663 572 663 679 m 354 883 q 242 831 285 883 q 200 672 200 779 q 237 528 200 579 q 350 478 274 478 q 440 503 403 478 q 498 567 478 528 q 518 647 518 606 q 509 726 518 685 q 480 803 500 768 q 428 861 460 839 q 354 883 397 883 z "},"\u0000":{"ha":0,"x_min":0,"x_max":0,"o":""},"\r":{"ha":322,"x_min":0,"x_max":0,"o":""}," ":{"ha":322,"x_min":0,"x_max":0,"o":""},"!":{"ha":364,"x_min":90,"x_max":274,"o":"m 235 293 l 131 293 l 97 992 l 267 992 l 235 293 m 90 82 q 115 158 90 135 q 182 181 140 181 q 247 158 221 181 q 274 82 274 135 q 247 7 274 31 q 182 -17 219 -17 q 116 7 142 -17 q 90 82 90 31 z "},"\"":{"ha":578,"x_min":85,"x_max":493,"o":"m 235 992 l 208 633 l 111 633 l 85 992 l 235 992 m 493 992 l 468 633 l 371 633 l 344 992 l 493 992 z "},"#":{"ha":810,"x_min":31,"x_max":781,"o":"m 611 601 l 576 394 l 739 394 l 739 289 l 558 289 l 510 0 l 400 0 l 450 289 l 289 289 l 242 0 l 135 0 l 182 289 l 31 289 l 31 394 l 200 394 l 235 601 l 75 601 l 75 707 l 251 707 l 299 992 l 408 992 l 361 707 l 522 707 l 569 992 l 676 992 l 628 707 l 781 707 l 781 601 l 611 601 m 307 394 l 468 394 l 503 601 l 343 601 l 307 394 z "},"$":{"ha":728,"x_min":71,"x_max":663,"o":"m 322 65 q 183 81 249 68 q 72 114 118 93 l 72 247 q 187 203 118 222 q 322 182 256 185 l 322 451 q 178 516 233 482 q 97 597 122 550 q 71 708 71 643 q 102 825 71 775 q 190 904 133 875 q 322 939 246 933 l 322 1054 l 406 1054 l 406 940 q 530 925 472 939 q 639 888 588 911 l 597 774 q 505 806 554 793 q 406 821 456 818 l 406 557 q 544 498 488 529 q 632 422 601 467 q 663 308 663 378 q 596 149 663 213 q 406 71 529 86 l 406 -81 l 322 -81 l 322 65 m 406 189 q 500 228 469 199 q 531 300 531 257 q 518 351 531 331 q 478 389 506 372 q 406 421 451 406 l 406 189 m 322 819 q 256 801 282 815 q 217 765 231 788 q 204 713 204 742 q 215 658 204 681 q 252 620 226 636 q 322 589 278 604 l 322 819 z "},"%":{"ha":1103,"x_min":57,"x_max":1046,"o":"m 254 1006 q 404 924 353 1006 q 456 696 456 843 q 406 466 456 549 q 254 383 356 383 q 108 466 160 383 q 57 696 57 549 q 106 925 57 844 q 254 1006 154 1006 m 254 906 q 193 853 213 906 q 174 696 174 800 q 193 538 174 590 q 254 485 213 485 q 318 537 297 485 q 339 696 339 589 q 318 853 339 801 q 254 906 297 906 m 849 992 l 369 0 l 253 0 l 732 992 l 849 992 m 846 610 q 994 528 943 610 q 1046 300 1046 447 q 997 69 1046 151 q 846 -12 947 -12 q 699 70 750 -12 q 649 300 649 153 q 697 529 649 449 q 846 610 746 610 m 846 508 q 784 456 803 508 q 765 299 765 404 q 784 140 765 193 q 846 88 803 88 q 909 140 889 88 q 929 299 929 193 q 908 456 929 403 q 846 508 888 508 z "},"&":{"ha":907,"x_min":57,"x_max":907,"o":"m 381 1006 q 501 981 450 1006 q 579 908 551 956 q 607 792 607 860 q 560 641 607 704 q 435 526 513 578 l 639 297 q 684 389 667 338 q 713 500 701 440 l 858 500 q 810 339 842 419 q 731 194 779 258 l 907 0 l 725 0 l 636 100 q 554 40 597 65 q 460 0 511 14 q 346 -14 410 -14 q 190 19 254 -14 q 91 115 125 53 q 57 260 57 176 q 78 376 57 326 q 142 467 100 426 q 244 546 185 508 q 191 622 214 585 q 156 701 168 660 q 143 789 143 742 q 172 906 143 857 q 254 980 200 954 q 381 1006 308 1006 m 322 457 q 258 403 285 431 q 219 342 232 375 q 206 267 206 310 q 247 153 206 196 q 357 111 289 111 q 468 135 421 111 q 551 196 515 158 l 322 457 m 378 893 q 306 867 335 893 q 278 788 278 840 q 298 699 278 742 q 356 613 318 656 q 444 694 417 653 q 472 789 472 736 q 446 866 472 839 q 378 893 419 893 z "},"'":{"ha":318,"x_min":85,"x_max":235,"o":"m 235 992 l 208 633 l 111 633 l 85 992 l 235 992 z "},"(":{"ha":425,"x_min":60,"x_max":386,"o":"m 60 383 q 82 608 60 499 q 149 816 104 718 q 260 996 194 914 l 386 996 q 245 707 293 864 q 197 385 197 550 q 219 171 197 276 q 282 -33 240 65 q 385 -219 324 -132 l 260 -219 q 148 -42 193 -139 q 81 162 103 54 q 60 383 60 269 z "},")":{"ha":425,"x_min":39,"x_max":367,"o":"m 367 383 q 344 162 367 269 q 278 -42 322 54 q 165 -219 233 -139 l 40 -219 q 143 -33 101 -132 q 207 171 185 65 q 229 383 229 276 q 208 602 229 496 q 144 808 186 708 q 39 996 101 908 l 165 996 q 278 815 233 914 q 344 608 322 717 q 367 383 367 499 z "},"*":{"ha":693,"x_min":50,"x_max":642,"o":"m 417 1056 l 390 822 l 619 889 l 642 756 l 422 738 l 569 544 l 447 475 l 343 688 l 246 476 l 122 544 l 267 738 l 50 754 l 74 889 l 299 822 l 274 1056 l 417 1056 z "},"+":{"ha":729,"x_min":58,"x_max":668,"o":"m 421 546 l 668 546 l 668 433 l 419 433 l 419 157 l 307 157 l 307 433 l 58 433 l 58 546 l 307 546 l 307 824 l 421 824 l 421 546 z "},",":{"ha":360,"x_min":51,"x_max":271,"o":"m 271 147 q 240 38 258 94 q 201 -75 222 -19 q 157 -182 181 -131 l 51 -182 q 78 -65 65 -126 q 101 55 90 -4 q 117 163 111 114 l 261 163 l 271 147 z "},"-":{"ha":428,"x_min":46,"x_max":381,"o":"m 46 308 l 46 436 l 381 436 l 381 308 l 46 308 z "},".":{"ha":360,"x_min":89,"x_max":271,"o":"m 89 82 q 115 158 89 135 q 179 181 140 181 q 245 158 219 181 q 271 82 271 135 q 244 7 271 31 q 179 -17 218 -17 q 115 7 140 -17 q 89 82 89 31 z "},"/":{"ha":532,"x_min":17,"x_max":518,"o":"m 518 994 l 150 -3 l 17 -3 l 386 994 l 518 994 z "},":":{"ha":361,"x_min":89,"x_max":272,"o":"m 89 82 q 115 158 89 135 q 181 181 140 181 q 246 158 219 181 q 272 82 272 135 q 246 7 272 31 q 181 -17 219 -17 q 115 7 140 -17 q 89 82 89 31 m 89 663 q 115 740 89 717 q 181 763 140 763 q 247 740 221 763 q 272 663 272 717 q 246 588 272 611 q 181 564 219 564 q 115 588 140 564 q 89 663 89 613 z "},";":{"ha":361,"x_min":44,"x_max":271,"o":"m 265 147 q 235 38 253 94 q 196 -75 217 -19 q 151 -182 175 -131 l 44 -182 q 65 -96 56 -140 q 84 -6 75 -51 q 100 83 93 40 q 113 163 107 126 l 256 163 l 265 147 m 88 663 q 113 740 88 717 q 179 763 139 763 q 245 740 219 763 q 271 663 271 717 q 244 588 271 611 q 179 564 218 564 q 113 588 139 564 q 88 663 88 613 z "},"<":{"ha":729,"x_min":57,"x_max":669,"o":"m 669 163 l 57 450 l 57 526 l 669 836 l 669 713 l 210 492 l 669 288 l 669 163 z "},"=":{"ha":729,"x_min":61,"x_max":665,"o":"m 61 574 l 61 686 l 665 686 l 665 574 l 61 574 m 61 292 l 61 404 l 665 404 l 665 292 l 61 292 z "},">":{"ha":729,"x_min":58,"x_max":671,"o":"m 58 288 l 517 490 l 58 713 l 58 836 l 671 526 l 671 450 l 58 163 l 58 288 z "},"?":{"ha":563,"x_min":14,"x_max":531,"o":"m 172 335 q 182 422 172 385 q 215 493 192 460 q 278 563 238 526 q 346 633 321 604 q 382 692 371 663 q 393 758 393 721 q 358 851 393 819 q 258 882 324 882 q 157 866 203 882 q 64 825 111 850 l 14 933 q 131 986 68 967 q 268 1006 194 1006 q 463 941 394 1006 q 531 767 531 876 q 513 663 531 706 q 464 582 496 619 q 383 500 432 544 q 325 437 346 464 q 297 384 304 410 q 289 322 289 358 l 289 293 l 172 293 l 172 335 m 143 82 q 169 158 143 135 q 236 181 194 181 q 301 158 275 181 q 326 82 326 135 q 300 7 326 31 q 236 -17 274 -17 q 169 7 194 -17 q 143 82 143 31 z "},"@":{"ha":1132,"x_min":72,"x_max":1061,"o":"m 1061 499 q 1047 366 1061 429 q 1006 255 1033 303 q 937 180 978 207 q 840 153 896 153 q 747 185 782 153 q 703 267 713 218 l 696 267 q 631 184 672 215 q 529 153 590 153 q 377 223 431 153 q 324 413 324 293 q 357 579 324 508 q 451 690 390 650 q 596 729 511 729 q 702 719 649 729 q 790 696 756 710 l 778 411 q 776 375 776 390 q 776 351 776 360 q 796 270 776 292 q 844 249 815 249 q 903 280 879 249 q 940 368 928 311 q 951 501 951 425 q 908 713 953 624 q 785 849 864 801 q 603 897 706 897 q 419 858 499 897 q 288 751 340 819 q 210 592 236 682 q 183 401 183 503 q 225 177 183 272 q 349 31 267 82 q 553 -21 431 -21 q 696 -3 625 -21 q 824 38 767 14 l 824 -65 q 701 -104 768 -89 q 553 -119 633 -119 q 293 -58 400 -119 q 129 117 186 3 q 72 394 72 232 q 109 637 72 526 q 215 828 146 747 q 383 952 285 908 q 603 994 481 996 q 789 959 704 994 q 935 858 874 924 q 1028 702 996 793 q 1061 499 1061 611 m 440 410 q 469 288 440 326 q 546 249 497 249 q 631 303 604 249 q 664 458 658 357 l 672 625 q 638 632 657 629 q 596 635 618 635 q 507 604 542 635 q 456 523 472 574 q 440 410 440 472 z "},"A":{"ha":815,"x_min":0,"x_max":815,"o":"m 661 0 l 571 288 l 243 288 l 153 0 l 0 0 l 326 994 l 488 994 l 815 0 l 661 0 m 447 706 q 435 754 443 725 q 419 814 426 783 q 407 865 411 844 q 394 810 401 839 q 381 753 388 781 q 367 706 374 726 l 279 415 l 535 415 l 447 706 z "},"B":{"ha":828,"x_min":119,"x_max":760,"o":"m 389 992 q 647 935 560 992 q 733 747 733 878 q 715 642 733 688 q 659 566 696 596 q 569 526 622 536 l 569 519 q 669 481 626 508 q 736 406 713 454 q 760 285 760 358 q 722 132 760 196 q 613 34 685 68 q 442 0 542 0 l 119 0 l 119 992 l 389 992 m 404 576 q 544 615 504 576 q 585 729 585 654 q 538 835 585 801 q 393 869 492 869 l 265 869 l 265 576 l 404 576 m 265 457 l 265 124 l 422 124 q 566 169 524 124 q 608 296 608 215 q 588 382 608 346 q 525 438 568 418 q 411 457 482 457 l 265 457 z "},"C":{"ha":790,"x_min":78,"x_max":750,"o":"m 503 879 q 386 851 438 879 q 300 772 335 824 q 247 651 265 721 q 229 494 229 581 q 260 290 229 376 q 353 158 292 204 q 506 113 414 113 q 613 124 561 113 q 715 156 664 136 l 715 29 q 611 -3 665 7 q 488 -14 557 -14 q 261 48 353 -14 q 124 224 169 110 q 78 496 78 339 q 105 700 78 607 q 185 862 132 793 q 319 968 239 931 q 501 1006 399 1006 q 632 990 568 1006 q 750 947 696 975 l 697 826 q 607 863 656 847 q 503 879 558 879 z "},"D":{"ha":914,"x_min":119,"x_max":838,"o":"m 838 507 q 783 228 838 340 q 624 58 728 115 q 372 0 521 0 l 119 0 l 119 992 l 394 992 q 631 936 532 992 q 784 774 731 881 q 838 507 838 667 m 685 501 q 651 707 685 626 q 550 827 617 788 q 388 867 483 867 l 265 867 l 265 125 l 367 125 q 606 219 528 125 q 685 501 685 314 z "},"E":{"ha":699,"x_min":119,"x_max":624,"o":"m 624 0 l 119 0 l 119 992 l 624 992 l 624 867 l 265 867 l 265 579 l 601 579 l 601 454 l 265 454 l 265 126 l 624 126 l 624 0 z "},"F":{"ha":663,"x_min":119,"x_max":622,"o":"m 264 0 l 119 0 l 119 992 l 622 992 l 622 867 l 264 867 l 264 539 l 600 539 l 600 414 l 264 414 l 264 0 z "},"G":{"ha":921,"x_min":78,"x_max":828,"o":"m 501 533 l 828 533 l 828 39 q 677 -1 754 13 q 507 -14 600 -14 q 271 49 367 -14 q 126 226 175 111 q 78 497 78 342 q 132 765 78 651 q 290 942 186 879 q 544 1006 394 1006 q 690 990 621 1006 q 817 944 758 974 l 765 822 q 660 864 717 849 q 543 879 603 879 q 373 833 443 879 q 266 701 303 788 q 229 494 229 615 q 260 297 229 383 q 356 161 290 210 q 526 113 421 113 q 615 118 576 113 q 683 132 653 124 l 683 407 l 501 407 l 501 533 z "},"H":{"ha":936,"x_min":119,"x_max":817,"o":"m 817 0 l 671 0 l 671 454 l 265 454 l 265 0 l 119 0 l 119 992 l 265 992 l 265 581 l 671 581 l 671 992 l 817 992 l 817 0 z "},"I":{"ha":461,"x_min":50,"x_max":411,"o":"m 411 0 l 50 0 l 50 83 l 157 115 l 157 875 l 50 908 l 50 992 l 411 992 l 411 908 l 303 875 l 303 115 l 411 83 l 411 0 z "},"J":{"ha":375,"x_min":-93,"x_max":261,"o":"m 10 -274 q -48 -269 -22 -274 q -93 -257 -74 -265 l -93 -132 q -51 -142 -74 -137 q -3 -146 -28 -146 q 58 -131 32 -146 q 100 -80 85 -117 q 115 21 115 -43 l 115 992 l 261 992 l 261 24 q 231 -147 261 -82 q 144 -243 200 -212 q 10 -274 88 -274 z "},"K":{"ha":793,"x_min":119,"x_max":796,"o":"m 796 0 l 629 0 l 351 451 l 265 372 l 265 0 l 119 0 l 119 992 l 265 992 l 265 511 q 320 584 290 544 q 383 668 350 624 l 622 992 l 785 992 l 456 556 l 796 0 z "},"L":{"ha":665,"x_min":119,"x_max":633,"o":"m 119 0 l 119 992 l 265 992 l 265 128 l 633 128 l 633 0 l 119 0 z "},"M":{"ha":1181,"x_min":119,"x_max":1063,"o":"m 522 0 l 250 828 l 244 828 q 249 749 247 793 q 253 660 251 706 q 254 575 254 615 l 254 0 l 119 0 l 119 992 l 326 992 l 586 204 l 590 204 l 856 992 l 1063 992 l 1063 0 l 921 0 l 921 579 q 922 662 921 618 q 926 749 924 706 q 931 826 929 792 l 925 826 l 647 0 l 522 0 z "},"N":{"ha":981,"x_min":119,"x_max":861,"o":"m 861 0 l 685 0 l 249 792 l 243 792 q 248 712 246 754 q 252 627 250 669 q 254 542 254 585 l 254 0 l 119 0 l 119 992 l 294 992 l 729 207 l 735 207 q 731 283 733 242 q 728 369 729 325 q 725 451 726 414 l 725 992 l 861 992 l 861 0 z "},"O":{"ha":978,"x_min":78,"x_max":900,"o":"m 900 497 q 875 290 900 383 q 799 128 850 196 q 672 23 749 60 q 489 -14 594 -14 q 306 24 383 -14 q 177 129 228 61 q 102 292 126 197 q 78 499 78 386 q 123 771 78 657 q 260 946 168 885 q 490 1007 351 1007 q 720 942 629 1007 q 856 763 811 878 q 900 497 900 649 m 231 497 q 258 290 231 375 q 344 159 286 204 q 489 114 401 114 q 635 158 578 114 q 719 289 692 203 q 747 497 747 375 q 685 780 747 681 q 490 879 624 879 q 344 835 401 879 q 258 705 286 790 q 231 497 231 619 z "},"P":{"ha":771,"x_min":119,"x_max":713,"o":"m 371 992 q 630 915 547 992 q 713 694 713 839 q 693 569 713 628 q 631 468 674 511 q 521 401 589 425 q 356 376 453 376 l 265 376 l 265 0 l 119 0 l 119 992 l 371 992 m 361 868 l 265 868 l 265 500 l 340 500 q 465 519 415 500 q 538 581 514 539 q 563 690 563 622 q 514 825 563 782 q 361 868 465 868 z "},"Q":{"ha":978,"x_min":78,"x_max":900,"o":"m 900 497 q 873 281 900 376 q 792 118 846 185 q 660 18 739 51 l 867 -236 l 678 -236 l 513 -12 q 500 -13 507 -12 q 486 -14 493 -14 q 303 24 381 -14 q 176 131 226 63 q 102 294 126 200 q 78 499 78 388 q 123 771 78 657 q 260 946 168 885 q 490 1007 351 1007 q 717 946 625 1007 q 854 771 808 885 q 900 497 900 657 m 231 497 q 258 290 231 375 q 344 159 286 204 q 489 114 401 114 q 635 158 578 114 q 719 289 692 203 q 747 497 747 375 q 685 780 747 681 q 490 879 624 879 q 344 835 401 879 q 258 705 286 790 q 231 497 231 619 z "},"R":{"ha":800,"x_min":119,"x_max":785,"o":"m 365 992 q 561 960 485 992 q 675 866 638 929 q 713 707 713 803 q 690 584 713 636 q 626 497 667 532 q 535 442 586 463 l 785 0 l 621 0 l 406 403 l 265 403 l 265 0 l 119 0 l 119 992 l 365 992 m 360 867 l 265 867 l 265 524 l 368 524 q 516 568 468 524 q 564 701 564 613 q 542 797 564 761 q 475 849 519 832 q 360 867 431 867 z "},"S":{"ha":697,"x_min":63,"x_max":640,"o":"m 640 272 q 601 121 640 185 q 488 22 561 57 q 314 -14 415 -14 q 220 -8 265 -14 q 135 8 175 -3 q 63 35 96 19 l 63 178 q 183 133 115 151 q 318 114 251 114 q 416 133 376 114 q 475 185 456 151 q 494 260 494 218 q 475 335 494 304 q 413 394 456 367 q 300 451 371 421 q 207 499 249 474 q 135 559 165 525 q 89 638 106 593 q 72 742 72 682 q 110 883 72 824 q 215 974 147 942 q 372 1006 283 1006 q 508 990 444 1006 q 626 949 571 974 l 581 824 q 477 863 529 849 q 371 876 425 876 q 287 860 321 876 q 235 814 253 843 q 218 746 218 785 q 236 669 218 700 q 295 614 254 639 q 404 557 336 589 q 534 485 482 524 q 613 396 586 447 q 640 272 640 344 z "},"T":{"ha":696,"x_min":17,"x_max":678,"o":"m 421 0 l 275 0 l 275 865 l 17 865 l 17 992 l 678 992 l 678 865 l 421 865 l 421 0 z "},"U":{"ha":921,"x_min":111,"x_max":810,"o":"m 810 338 q 771 151 810 231 q 654 29 732 72 q 458 -14 576 -14 q 200 79 289 -14 q 111 339 111 172 l 111 992 l 257 992 l 257 343 q 308 170 257 226 q 463 114 360 114 q 578 140 533 114 q 643 218 622 167 q 664 344 664 269 l 664 992 l 810 992 l 810 338 z "},"V":{"ha":776,"x_min":0,"x_max":776,"o":"m 776 992 l 467 0 l 308 0 l 0 992 l 151 992 l 338 364 q 357 294 347 332 q 374 221 367 257 q 388 153 382 185 q 401 221 393 185 q 419 294 410 257 q 438 365 429 332 l 625 992 l 776 992 z "},"W":{"ha":1203,"x_min":8,"x_max":1193,"o":"m 1193 992 l 954 0 l 793 0 l 640 601 q 628 651 635 624 q 617 707 622 678 q 606 763 611 736 q 599 810 601 789 q 593 768 597 793 q 583 715 589 743 q 572 656 578 686 q 558 600 565 626 l 407 0 l 247 0 l 8 992 l 157 992 l 290 408 q 303 344 297 376 q 316 278 310 311 q 326 216 322 246 q 333 161 331 186 q 343 222 338 190 q 355 285 349 253 q 368 349 361 318 q 381 408 375 381 l 529 992 l 669 992 l 819 407 q 833 348 826 379 q 847 285 840 317 q 858 221 853 253 q 867 161 863 189 q 878 242 871 200 q 894 327 885 283 q 911 410 903 371 l 1044 992 l 1193 992 z "},"X":{"ha":751,"x_min":6,"x_max":746,"o":"m 746 0 l 583 0 l 375 403 l 158 0 l 6 0 l 292 515 l 26 992 l 185 992 l 378 622 l 572 992 l 726 992 l 461 511 l 746 0 z "},"Y":{"ha":725,"x_min":0,"x_max":725,"o":"m 363 533 l 569 992 l 725 992 l 435 385 l 435 0 l 290 0 l 290 381 l 0 992 l 157 992 l 363 533 z "},"Z":{"ha":699,"x_min":43,"x_max":658,"o":"m 658 0 l 43 0 l 43 106 l 478 865 l 54 865 l 54 992 l 647 992 l 647 886 l 211 128 l 658 128 l 658 0 z "},"[":{"ha":447,"x_min":101,"x_max":411,"o":"m 411 -222 l 101 -222 l 101 996 l 411 996 l 411 885 l 233 885 l 233 -111 l 411 -111 l 411 -222 z "},"\\":{"ha":532,"x_min":15,"x_max":518,"o":"m 149 994 l 518 -3 l 385 -3 l 15 994 l 149 994 z "},"]":{"ha":447,"x_min":36,"x_max":346,"o":"m 36 -111 l 214 -111 l 214 885 l 36 885 l 36 996 l 346 996 l 346 -222 l 36 -222 l 36 -111 z "},"^":{"ha":738,"x_min":36,"x_max":701,"o":"m 36 392 l 319 996 l 396 996 l 701 392 l 576 392 l 360 835 l 161 392 l 36 392 z "},"_":{"ha":610,"x_min":-3,"x_max":613,"o":"m 613 -214 l -3 -214 l -3 -119 l 613 -119 l 613 -214 z "},"`":{"ha":411,"x_min":56,"x_max":356,"o":"m 221 1064 q 260 995 238 1033 q 309 921 283 957 q 356 858 335 885 l 356 842 l 260 842 q 208 887 238 860 q 149 944 178 914 q 94 1002 119 974 q 56 1050 69 1031 l 56 1064 l 221 1064 z "},"a":{"ha":724,"x_min":56,"x_max":624,"o":"m 371 763 q 561 699 499 763 q 624 506 624 635 l 624 0 l 519 0 l 494 104 l 490 104 q 431 38 463 64 q 360 -1 400 11 q 267 -14 321 -14 q 155 13 203 -14 q 81 91 107 40 q 56 213 56 142 q 134 387 56 326 q 369 453 213 447 l 483 457 l 483 499 q 451 615 483 581 q 357 650 418 650 q 263 635 310 650 q 171 597 217 621 l 126 700 q 240 746 176 729 q 371 763 303 763 m 396 358 q 245 317 289 354 q 201 214 201 281 q 232 126 201 154 q 311 97 263 97 q 434 147 386 97 q 482 293 482 197 l 482 361 l 396 358 z "},"b":{"ha":786,"x_min":104,"x_max":721,"o":"m 247 789 q 245 715 247 751 q 240 650 243 678 l 247 650 q 327 732 278 701 q 450 763 376 763 q 648 664 575 763 q 721 375 721 565 q 688 162 721 249 q 594 31 654 75 q 450 -14 533 -14 q 328 15 376 -14 q 247 92 279 44 l 238 92 l 213 0 l 104 0 l 104 1056 l 247 1056 l 247 789 m 415 643 q 315 614 351 643 q 263 527 278 585 q 247 386 247 469 l 247 368 q 285 171 247 238 q 418 104 322 104 q 535 173 496 104 q 575 376 575 242 q 535 576 575 510 q 415 643 496 643 z "},"c":{"ha":615,"x_min":67,"x_max":576,"o":"m 379 -14 q 213 27 283 -14 q 104 153 142 68 q 67 371 67 239 q 106 589 67 501 q 218 719 146 676 q 388 763 290 763 q 494 751 446 763 q 576 721 542 739 l 533 606 q 463 631 500 621 q 390 642 425 642 q 291 611 331 642 q 232 521 251 581 q 213 371 213 461 q 232 226 213 285 q 291 137 251 167 q 388 107 331 107 q 481 119 439 107 q 563 153 524 132 l 563 31 q 481 -3 525 8 q 379 -14 436 -14 z "},"d":{"ha":786,"x_min":67,"x_max":682,"o":"m 338 -14 q 139 85 211 -14 q 67 374 67 183 q 140 663 67 564 q 338 763 213 763 q 424 749 386 763 q 492 711 463 736 q 542 653 521 686 l 549 653 q 544 711 547 678 q 540 771 540 744 l 540 1056 l 682 1056 l 682 0 l 569 0 l 547 96 l 540 96 q 491 39 519 64 q 424 0 463 14 q 338 -14 386 -14 m 372 103 q 503 164 464 103 q 543 347 543 225 l 543 376 q 506 576 543 510 q 369 643 468 643 q 251 572 292 643 q 211 372 211 500 q 251 172 211 242 q 372 103 292 103 z "},"e":{"ha":722,"x_min":67,"x_max":660,"o":"m 372 763 q 528 720 464 763 q 626 603 592 678 q 660 426 660 528 l 660 343 l 210 343 q 264 164 213 225 q 410 103 315 103 q 522 116 471 103 q 626 156 572 129 l 626 36 q 522 -1 575 11 q 400 -14 469 -14 q 221 31 296 -14 q 106 163 146 76 q 67 369 67 249 q 103 583 67 496 q 209 717 140 671 q 372 763 278 763 m 372 651 q 261 600 303 651 q 213 450 219 549 l 521 450 q 505 553 521 508 q 456 625 489 599 q 372 651 424 651 z "},"f":{"ha":450,"x_min":19,"x_max":499,"o":"m 435 638 l 274 638 l 274 0 l 132 0 l 132 638 l 19 638 l 19 707 l 132 751 l 132 796 q 156 948 132 889 q 231 1035 181 1007 q 354 1063 281 1063 q 434 1055 399 1063 q 499 1036 469 1047 l 464 928 q 417 940 442 935 q 367 946 393 946 q 296 910 318 946 q 274 797 274 875 l 274 749 l 435 749 l 435 638 z "},"g":{"ha":786,"x_min":67,"x_max":682,"o":"m 338 763 q 454 735 403 763 q 543 651 506 708 l 550 651 l 565 749 l 682 749 l 682 -4 q 647 -185 682 -111 q 539 -296 611 -258 q 354 -333 467 -333 q 224 -322 283 -333 q 114 -287 165 -311 l 114 -161 q 230 -203 168 -189 q 358 -217 292 -217 q 494 -168 446 -217 q 542 -24 542 -119 l 542 0 q 543 50 542 21 q 546 100 544 79 l 540 100 q 454 14 504 42 q 336 -14 404 -14 q 138 87 208 -14 q 67 372 67 188 q 139 660 67 557 q 338 763 211 763 m 369 643 q 283 612 318 643 q 229 520 247 581 q 211 371 211 460 q 251 171 211 238 q 372 104 292 104 q 449 118 417 104 q 503 161 482 132 q 534 236 524 190 q 544 344 544 282 l 544 375 q 526 528 544 469 q 469 615 508 588 q 369 643 431 643 z "},"h":{"ha":793,"x_min":104,"x_max":692,"o":"m 247 775 q 244 707 247 740 q 238 649 242 674 l 247 649 q 299 711 268 686 q 369 749 331 736 q 451 763 408 763 q 584 733 531 763 q 665 645 638 704 q 692 493 692 586 l 692 0 l 551 0 l 551 469 q 520 601 551 558 q 421 643 489 643 q 317 613 356 643 q 263 524 279 583 q 247 378 247 465 l 247 0 l 104 0 l 104 1056 l 247 1056 l 247 775 z "},"i":{"ha":351,"x_min":96,"x_max":257,"o":"m 247 749 l 247 0 l 104 0 l 104 749 l 247 749 m 176 1035 q 235 1014 213 1035 q 257 949 257 993 q 234 884 257 906 q 176 863 211 863 q 119 884 142 863 q 96 949 96 906 q 118 1014 96 993 q 176 1035 140 1035 z "},"j":{"ha":351,"x_min":-60,"x_max":257,"o":"m 42 -333 q -14 -329 13 -333 q -60 -318 -40 -325 l -60 -201 q -22 -210 -40 -207 q 18 -214 -3 -214 q 81 -188 57 -214 q 104 -99 104 -162 l 104 749 l 247 749 l 247 -103 q 225 -228 247 -176 q 158 -306 203 -279 q 42 -333 113 -333 m 96 949 q 118 1014 96 993 q 176 1035 140 1035 q 235 1014 213 1035 q 257 949 257 993 q 234 884 257 906 q 176 863 211 863 q 119 884 142 863 q 96 949 96 906 z "},"k":{"ha":707,"x_min":104,"x_max":700,"o":"m 246 536 q 244 465 246 503 q 239 392 242 426 l 243 392 q 266 426 253 407 q 293 463 279 444 q 318 496 307 482 l 524 749 l 683 749 l 424 438 l 700 0 l 536 0 l 328 342 l 246 264 l 246 0 l 104 0 l 104 1056 l 246 1056 l 246 536 z "},"l":{"ha":351,"x_min":104,"x_max":247,"o":"m 247 0 l 104 0 l 104 1056 l 247 1056 l 247 0 z "},"m":{"ha":1192,"x_min":104,"x_max":1092,"o":"m 864 763 q 1035 698 979 763 q 1092 492 1092 633 l 1092 0 l 950 0 l 950 469 q 920 600 950 557 q 829 643 890 643 q 705 582 742 643 q 668 403 668 521 l 668 0 l 528 0 l 528 471 q 515 567 528 529 q 474 624 501 606 q 406 643 447 643 q 310 612 344 643 q 261 522 275 581 q 247 379 247 463 l 247 0 l 104 0 l 104 749 l 217 749 l 236 649 l 244 649 q 294 713 264 688 q 363 750 325 738 q 443 763 401 763 q 572 732 521 763 q 644 644 622 701 l 654 644 q 742 733 688 704 q 864 763 797 763 z "},"n":{"ha":793,"x_min":104,"x_max":692,"o":"m 453 763 q 631 698 569 763 q 692 494 692 633 l 692 0 l 551 0 l 551 469 q 520 599 551 556 q 421 643 489 643 q 285 577 324 643 q 247 379 247 511 l 247 0 l 104 0 l 104 749 l 217 749 l 236 649 l 244 649 q 298 713 265 688 q 370 750 331 738 q 453 763 410 763 z "},"o":{"ha":769,"x_min":67,"x_max":703,"o":"m 703 376 q 682 213 703 285 q 620 91 661 142 q 519 13 579 40 q 382 -14 460 -14 q 253 13 311 -14 q 153 91 194 40 q 89 213 111 142 q 67 376 67 285 q 103 585 67 499 q 212 717 140 671 q 386 763 283 763 q 553 718 482 763 q 663 588 624 674 q 703 376 703 501 m 211 375 q 230 228 211 289 q 287 136 249 168 q 385 104 325 104 q 484 136 446 104 q 540 228 522 168 q 558 375 558 289 q 540 522 558 463 q 483 613 521 582 q 385 644 444 644 q 252 575 293 644 q 211 375 211 506 z "},"p":{"ha":786,"x_min":104,"x_max":721,"o":"m 450 763 q 648 665 575 763 q 721 375 721 568 q 688 163 721 250 q 594 31 654 76 q 450 -14 533 -14 q 363 0 401 -14 q 296 38 325 14 q 247 94 267 63 l 239 94 q 244 35 242 67 q 247 -21 247 4 l 247 -333 l 104 -333 l 104 749 l 221 749 l 239 649 l 247 649 q 297 709 268 683 q 363 749 325 735 q 450 763 401 763 m 415 644 q 319 618 356 644 q 265 537 282 592 q 247 399 247 482 l 247 372 q 263 225 247 285 q 317 135 279 165 q 417 106 354 106 q 506 138 471 106 q 558 231 540 171 q 575 376 575 292 q 537 574 575 504 q 415 644 499 644 z "},"q":{"ha":786,"x_min":67,"x_max":682,"o":"m 540 -21 q 542 37 540 4 q 547 101 543 69 l 540 101 q 458 18 508 50 q 333 -14 408 -14 q 140 84 213 -14 q 67 372 67 182 q 101 587 67 500 q 196 718 135 674 q 339 763 257 763 q 461 732 413 763 q 542 650 510 701 l 549 650 l 565 749 l 682 749 l 682 -333 l 540 -333 l 540 -21 m 374 104 q 471 131 433 104 q 526 211 508 157 q 543 346 543 265 l 543 374 q 505 576 543 510 q 371 643 467 643 q 250 572 289 643 q 211 369 211 500 q 251 172 211 239 q 374 104 292 104 z "},"r":{"ha":535,"x_min":104,"x_max":517,"o":"m 440 763 q 479 761 458 763 q 517 754 500 760 l 500 617 q 467 624 486 621 q 432 626 449 626 q 360 610 394 626 q 301 563 326 593 q 261 490 275 533 q 247 392 247 446 l 247 0 l 104 0 l 104 749 l 217 749 l 235 618 l 242 618 q 292 692 263 658 q 358 744 321 725 q 440 763 396 763 z "},"s":{"ha":604,"x_min":60,"x_max":550,"o":"m 550 210 q 518 88 550 138 q 424 12 486 38 q 276 -14 363 -14 q 156 -2 208 -14 q 60 31 103 10 l 60 161 q 161 119 103 138 q 276 101 219 101 q 378 128 346 101 q 411 199 411 154 q 399 244 411 224 q 353 286 386 265 q 257 333 319 307 q 151 392 194 363 q 83 461 107 421 q 60 561 60 501 q 131 710 60 657 q 319 763 203 763 q 436 749 382 763 q 540 711 490 736 l 494 601 q 407 635 451 621 q 317 649 363 649 q 228 627 258 649 q 197 568 197 606 q 211 522 197 542 q 260 483 225 501 q 354 436 294 464 q 459 380 415 408 q 526 310 503 351 q 550 210 550 269 z "},"t":{"ha":478,"x_min":24,"x_max":447,"o":"m 350 104 q 401 110 375 104 q 447 122 426 115 l 447 13 q 388 -6 424 1 q 314 -14 353 -14 q 211 8 256 -14 q 141 79 167 29 q 115 214 115 129 l 115 638 l 24 638 l 24 706 l 122 754 l 167 917 l 257 917 l 257 749 l 440 749 l 440 638 l 257 638 l 257 219 q 281 133 257 161 q 350 104 306 104 z "},"u":{"ha":793,"x_min":100,"x_max":688,"o":"m 688 749 l 688 0 l 575 0 l 557 99 l 549 99 q 495 36 528 61 q 423 -1 463 11 q 340 -14 383 -14 q 207 17 261 -14 q 126 108 153 47 q 100 260 100 168 l 100 749 l 242 749 l 242 285 q 273 150 242 194 q 369 106 304 106 q 476 135 438 106 q 530 223 514 165 q 546 365 546 281 l 546 749 l 688 749 z "},"v":{"ha":663,"x_min":1,"x_max":660,"o":"m 253 0 l 1 749 l 151 749 l 283 314 q 301 254 293 286 q 317 192 310 222 q 326 135 324 161 l 332 135 q 342 185 336 156 q 358 245 349 214 q 375 306 367 276 l 511 749 l 660 749 l 408 0 l 253 0 z "},"w":{"ha":1029,"x_min":14,"x_max":1017,"o":"m 563 396 q 550 450 557 421 q 537 509 543 479 q 525 565 531 539 q 517 610 519 592 l 511 610 q 503 565 508 592 q 491 508 497 538 q 478 449 485 478 q 465 394 472 419 l 363 0 l 204 0 l 14 750 l 157 750 l 244 382 q 263 301 254 343 q 277 219 271 258 q 288 147 283 179 l 293 147 q 301 195 296 168 q 310 252 306 222 q 322 311 315 282 q 335 364 329 340 l 438 750 l 594 750 l 694 363 q 710 297 701 335 q 725 221 718 260 q 736 147 732 182 l 740 147 q 749 206 743 171 q 764 280 756 240 q 781 358 772 319 l 875 750 l 1017 750 l 822 0 l 661 0 l 563 396 z "},"x":{"ha":678,"x_min":18,"x_max":658,"o":"m 251 383 l 31 749 l 189 749 l 339 485 l 490 749 l 649 749 l 426 382 l 658 0 l 501 0 l 339 282 l 175 0 l 18 0 l 251 383 z "},"y":{"ha":664,"x_min":3,"x_max":661,"o":"m 3 749 l 154 749 l 288 332 q 306 272 297 301 q 321 214 314 243 q 332 157 328 185 l 338 157 q 356 238 343 192 q 383 332 368 283 l 511 749 l 661 749 l 378 -101 q 317 -228 351 -176 q 233 -307 282 -281 q 118 -333 185 -333 q 68 -330 90 -333 q 26 -322 46 -326 l 26 -206 q 60 -211 42 -208 q 99 -214 78 -214 q 162 -199 136 -214 q 207 -153 188 -183 q 240 -79 226 -122 l 267 1 l 3 749 z "},"z":{"ha":581,"x_min":43,"x_max":539,"o":"m 539 0 l 43 0 l 43 90 l 371 636 l 63 636 l 63 749 l 528 749 l 528 649 l 207 113 l 539 113 l 539 0 z "},"{":{"ha":522,"x_min":39,"x_max":474,"o":"m 474 -222 q 319 -198 381 -221 q 228 -127 258 -175 q 199 -6 199 -79 l 199 200 q 182 274 199 246 q 130 316 165 303 q 39 329 94 329 l 39 443 q 128 456 93 443 q 181 497 163 468 q 199 572 199 525 l 199 779 q 228 899 199 851 q 319 969 258 946 q 474 994 381 993 l 474 882 q 398 868 429 881 q 350 830 367 856 q 333 760 333 804 l 333 558 q 299 444 333 486 q 189 390 264 403 l 189 383 q 299 328 265 369 q 333 217 333 286 l 333 11 q 349 -57 333 -31 q 397 -96 365 -83 q 474 -110 428 -108 l 474 -222 z "},"|":{"ha":692,"x_min":288,"x_max":404,"o":"m 288 1057 l 404 1057 l 404 -328 l 288 -328 l 288 1057 z "},"}":{"ha":522,"x_min":49,"x_max":483,"o":"m 49 -110 q 126 -96 94 -108 q 173 -57 157 -83 q 189 13 189 -31 l 189 215 q 224 328 189 288 q 333 382 260 369 l 333 390 q 224 444 260 403 q 189 557 189 486 l 189 761 q 172 831 189 806 q 124 869 156 857 q 49 882 93 881 l 49 994 q 203 970 143 993 q 294 900 264 947 q 324 778 324 853 l 324 572 q 340 499 324 528 q 392 457 357 471 q 483 443 428 443 l 483 329 q 394 316 429 329 q 341 275 358 303 q 324 201 324 247 l 324 -6 q 294 -126 324 -79 q 203 -197 264 -174 q 49 -222 143 -221 l 49 -110 z "},"~":{"ha":729,"x_min":57,"x_max":671,"o":"m 343 436 q 267 465 300 457 q 206 474 235 474 q 130 451 169 474 q 57 392 90 428 l 57 514 q 128 568 89 550 q 215 586 168 586 q 293 577 256 586 q 385 543 331 568 q 461 514 429 522 q 522 506 493 506 q 599 529 560 506 q 671 588 639 553 l 671 465 q 601 412 640 431 q 514 393 561 393 q 436 403 474 393 q 343 436 399 413 z "}," ":{"ha":322,"x_min":0,"x_max":0,"o":""},"¡":{"ha":364,"x_min":90,"x_max":274,"o":"m 128 447 l 233 447 l 265 -254 l 96 -254 l 128 447 m 274 658 q 248 583 274 606 q 182 560 222 560 q 117 583 143 560 q 90 658 90 607 q 117 734 90 710 q 182 758 143 758 q 247 734 221 758 q 274 658 274 710 z "},"¢":{"ha":728,"x_min":111,"x_max":621,"o":"m 454 896 q 546 882 503 893 q 621 854 589 871 l 579 739 q 506 765 544 754 q 435 775 467 775 q 334 745 374 775 q 275 656 294 715 q 256 504 256 596 q 275 356 256 414 q 334 269 294 297 q 432 240 374 240 q 524 252 482 240 q 607 283 565 264 l 607 163 q 537 134 574 144 q 454 119 500 124 l 454 -14 l 360 -14 l 360 124 q 225 179 281 135 q 140 304 169 224 q 111 503 111 385 q 141 706 111 625 q 227 833 171 788 q 360 890 283 879 l 360 1006 l 454 1006 l 454 896 z "},"£":{"ha":728,"x_min":53,"x_max":681,"o":"m 432 1006 q 555 990 499 1006 q 658 947 611 974 l 610 836 q 527 870 569 857 q 439 883 485 883 q 347 847 379 883 q 314 731 314 811 l 314 553 l 551 553 l 551 446 l 314 446 l 314 310 q 302 226 314 261 q 269 167 290 190 q 221 128 247 144 l 681 128 l 681 0 l 53 0 l 53 119 q 116 156 90 133 q 156 217 142 179 q 171 308 171 254 l 171 446 l 53 446 l 53 553 l 171 553 l 171 736 q 203 885 171 826 q 294 975 236 944 q 432 1006 353 1006 z "},"¤":{"ha":783,"x_min":76,"x_max":704,"o":"m 121 490 q 133 569 121 531 q 167 639 144 607 l 76 731 l 150 803 l 240 714 q 311 749 272 738 q 390 761 350 761 q 470 749 433 761 q 540 714 507 738 l 631 803 l 704 732 l 615 640 q 649 570 636 608 q 661 490 661 532 q 649 410 661 449 q 615 339 638 371 l 703 249 l 631 178 l 540 267 q 470 233 508 244 q 390 221 432 221 q 310 233 349 221 q 239 267 271 244 l 150 179 l 78 251 l 167 340 q 133 410 144 372 q 121 490 121 449 m 222 490 q 244 405 222 443 q 306 344 267 367 q 390 321 344 321 q 478 344 440 321 q 540 406 517 368 q 563 490 563 444 q 539 576 563 538 q 477 638 515 615 q 390 661 439 661 q 306 638 344 661 q 244 576 267 615 q 222 490 222 538 z "},"¥":{"ha":728,"x_min":25,"x_max":700,"o":"m 363 536 l 551 992 l 700 992 l 464 474 l 615 474 l 615 378 l 432 378 l 432 268 l 615 268 l 615 172 l 432 172 l 432 0 l 293 0 l 293 172 l 110 172 l 110 268 l 293 268 l 293 378 l 110 378 l 110 474 l 257 474 l 25 992 l 174 992 l 363 536 z "},"¦":{"ha":692,"x_min":288,"x_max":404,"o":"m 288 1054 l 404 1054 l 404 515 l 288 515 l 288 1054 m 288 211 l 404 211 l 404 -328 l 288 -328 l 288 211 z "},"§":{"ha":639,"x_min":71,"x_max":563,"o":"m 76 551 q 106 655 76 613 q 179 719 136 697 q 108 788 133 749 q 83 876 83 826 q 151 1011 83 963 q 335 1060 219 1060 q 451 1047 401 1060 q 551 1011 501 1035 l 510 911 q 424 946 465 933 q 332 958 382 958 q 238 938 267 958 q 208 881 208 917 q 224 835 208 854 q 272 797 239 815 q 358 756 304 779 q 469 699 424 729 q 538 629 514 668 q 563 538 563 590 q 535 430 563 474 q 469 361 508 386 q 537 295 514 332 q 560 208 560 258 q 486 59 560 114 q 285 4 413 4 q 165 17 218 4 q 71 53 113 29 l 71 165 q 136 136 100 150 q 211 114 172 122 q 286 106 250 106 q 399 133 365 106 q 433 200 433 161 q 421 246 433 226 q 376 285 408 265 q 279 332 343 304 q 167 392 213 363 q 99 459 122 421 q 76 551 76 497 m 192 567 q 208 513 192 538 q 258 467 224 489 q 346 424 292 446 l 379 408 q 426 452 406 425 q 446 518 446 479 q 431 575 446 550 q 379 623 417 600 q 272 672 342 646 q 215 634 238 663 q 192 567 192 606 z "},"¨":{"ha":778,"x_min":190,"x_max":586,"o":"m 190 942 q 211 1000 190 982 q 261 1018 232 1018 q 313 1000 292 1018 q 333 943 333 982 q 313 885 333 904 q 261 867 292 867 q 211 885 232 867 q 190 942 190 904 m 444 942 q 465 1000 444 982 q 515 1018 485 1018 q 565 1000 544 1018 q 586 943 586 982 q 565 885 586 904 q 515 867 544 867 q 465 885 485 867 q 444 942 444 904 z "},"©":{"ha":1154,"x_min":67,"x_max":1088,"o":"m 597 183 q 391 267 461 183 q 321 494 321 351 q 353 658 321 588 q 449 768 386 729 q 603 807 513 807 q 692 796 647 807 q 778 765 738 785 l 738 679 q 669 705 703 696 q 606 714 636 714 q 478 657 524 714 q 432 496 432 600 q 474 332 432 388 q 604 276 515 276 q 676 285 638 276 q 753 310 715 294 l 753 218 q 681 193 717 203 q 597 183 644 183 m 576 -14 q 369 24 463 -14 q 208 132 276 63 q 103 294 140 201 q 67 496 67 386 q 105 700 67 607 q 213 862 143 793 q 375 968 282 931 q 578 1006 468 1006 q 778 967 685 1006 q 940 860 871 929 q 1049 699 1010 792 q 1088 496 1088 606 q 1049 292 1088 385 q 942 130 1011 199 q 781 24 874 61 q 576 -14 688 -14 m 578 64 q 745 97 668 64 q 880 187 822 129 q 969 323 938 244 q 1001 496 1001 401 q 970 666 1001 588 q 881 803 939 744 q 747 894 824 861 q 576 928 669 928 q 405 895 483 928 q 269 804 326 863 q 181 667 213 746 q 150 496 150 589 q 182 324 150 403 q 272 187 214 244 q 407 97 329 129 q 578 64 485 64 z "},"ª":{"ha":479,"x_min":39,"x_max":413,"o":"m 243 1003 q 370 962 328 1003 q 413 838 413 921 l 413 533 l 342 533 l 324 599 q 261 544 297 564 q 175 525 225 525 q 103 542 135 525 q 56 590 72 558 q 39 667 39 622 q 62 747 39 715 q 131 794 85 778 q 246 814 178 810 l 313 817 l 313 843 q 290 903 313 885 q 229 921 268 921 q 165 911 197 921 q 101 885 133 901 l 68 960 q 149 991 106 979 q 243 1003 193 1003 m 256 747 q 165 723 189 743 q 140 667 140 703 q 157 619 140 635 q 204 604 174 604 q 285 636 258 604 q 313 719 313 668 l 313 750 l 256 747 z "},"«":{"ha":718,"x_min":51,"x_max":667,"o":"m 51 379 l 278 664 l 379 608 l 203 371 l 379 133 l 278 76 l 51 361 l 51 379 m 340 379 l 567 664 l 667 608 l 492 371 l 667 133 l 567 76 l 340 361 l 340 379 z "},"¬":{"ha":729,"x_min":58,"x_max":665,"o":"m 665 546 l 665 172 l 553 172 l 553 433 l 58 433 l 58 546 l 665 546 z "},"­":{"ha":428,"x_min":46,"x_max":381,"o":"m 46 308 l 46 436 l 381 436 l 381 308 l 46 308 z "},"®":{"ha":1154,"x_min":67,"x_max":1088,"o":"m 385 196 l 385 800 l 561 800 q 728 755 674 800 q 782 621 782 710 q 752 518 782 557 q 678 461 722 479 l 828 196 l 707 196 l 579 432 l 494 432 l 494 196 l 385 196 m 557 518 q 641 544 611 518 q 671 617 671 571 q 644 688 671 665 q 557 710 617 710 l 494 710 l 494 518 l 557 518 m 576 -14 q 369 24 463 -14 q 208 132 276 63 q 103 294 140 201 q 67 496 67 386 q 105 700 67 607 q 213 862 143 793 q 375 968 282 931 q 578 1006 468 1006 q 778 967 685 1006 q 940 860 871 929 q 1049 699 1010 792 q 1088 496 1088 606 q 1049 292 1088 385 q 942 130 1011 199 q 781 24 874 61 q 576 -14 688 -14 m 578 64 q 745 97 668 64 q 880 187 822 129 q 969 323 938 244 q 1001 496 1001 401 q 970 666 1001 588 q 881 803 939 744 q 747 894 824 861 q 576 928 669 928 q 405 895 483 928 q 269 804 326 863 q 181 667 213 746 q 150 496 150 589 q 182 324 150 403 q 272 187 214 244 q 407 97 329 129 q 578 64 485 64 z "},"¯":{"ha":667,"x_min":-4,"x_max":671,"o":"m 671 1056 l -4 1056 l -4 1160 l 671 1160 l 671 1056 z "},"°":{"ha":563,"x_min":65,"x_max":497,"o":"m 281 588 q 168 614 217 588 q 92 687 119 640 q 65 796 65 733 q 92 906 65 858 q 168 979 119 953 q 281 1006 217 1006 q 393 979 344 1006 q 469 906 442 953 q 497 796 497 858 q 469 686 497 733 q 392 613 442 639 q 281 588 343 588 m 282 678 q 367 710 338 678 q 397 796 397 743 q 367 883 397 850 q 282 915 336 915 q 194 883 225 915 q 164 796 164 850 q 195 710 164 743 q 282 678 226 678 z "},"±":{"ha":729,"x_min":58,"x_max":669,"o":"m 58 0 l 58 113 l 669 113 l 669 0 l 58 0 m 421 568 l 668 568 l 668 457 l 419 457 l 419 181 l 307 181 l 307 457 l 58 457 l 58 568 l 307 568 l 307 847 l 421 847 l 421 568 z "},"²":{"ha":478,"x_min":36,"x_max":421,"o":"m 421 578 l 36 578 l 36 665 l 181 817 q 253 898 228 865 q 290 957 279 931 q 300 1014 300 983 q 278 1072 300 1051 q 219 1092 257 1092 q 156 1076 186 1092 q 93 1032 125 1061 l 36 1106 q 121 1163 74 1142 q 228 1185 168 1185 q 365 1141 315 1185 q 414 1022 414 1097 q 397 937 414 975 q 344 856 379 899 q 254 760 308 814 l 169 674 l 421 674 l 421 578 z "},"³":{"ha":478,"x_min":32,"x_max":429,"o":"m 224 1185 q 362 1143 313 1185 q 411 1032 411 1101 q 384 944 411 979 q 311 892 357 908 l 311 886 q 399 836 368 872 q 429 743 429 800 q 372 615 429 663 q 203 567 314 567 q 114 576 156 567 q 33 606 72 585 l 33 706 q 117 671 74 683 q 203 658 160 658 q 291 683 263 658 q 319 749 319 707 q 287 817 319 794 q 188 840 254 840 l 121 840 l 121 926 l 183 926 q 275 951 247 926 q 303 1017 303 976 q 280 1075 303 1056 q 218 1094 257 1094 q 151 1081 182 1094 q 85 1043 119 1068 l 32 1115 q 119 1167 72 1149 q 224 1185 165 1185 z "},"´":{"ha":411,"x_min":56,"x_max":356,"o":"m 356 1050 q 316 1003 340 1031 q 262 945 292 975 q 203 888 232 915 q 150 842 174 861 l 56 842 l 56 858 q 103 924 79 889 q 151 997 128 960 q 189 1064 174 1033 l 356 1064 l 356 1050 z "},"µ":{"ha":797,"x_min":104,"x_max":693,"o":"m 693 749 l 693 0 l 581 0 l 561 100 l 553 100 q 508 38 535 64 q 449 -1 482 13 q 375 -14 415 -14 q 299 3 331 -14 q 244 50 267 19 l 240 50 q 244 6 243 31 q 245 -48 244 -19 q 246 -106 246 -76 l 246 -333 l 104 -333 l 104 749 l 246 749 l 246 281 q 278 151 246 196 q 375 106 310 106 q 481 136 443 106 q 535 226 518 167 q 551 369 551 285 l 551 749 l 693 749 z "},"¶":{"ha":825,"x_min":76,"x_max":699,"o":"m 699 -176 l 610 -176 l 610 964 l 493 964 l 493 -176 l 404 -176 l 404 379 q 365 370 386 374 q 321 367 343 367 q 190 401 244 367 q 106 510 136 435 q 76 707 76 585 q 108 910 76 833 q 201 1021 140 986 q 344 1056 261 1056 l 699 1056 l 699 -176 z "},"·":{"ha":360,"x_min":89,"x_max":271,"o":"m 89 489 q 115 565 89 542 q 179 588 140 588 q 245 565 219 588 q 271 489 271 542 q 244 414 271 438 q 179 390 218 390 q 115 414 140 390 q 89 489 89 438 z "},"¸":{"ha":290,"x_min":6,"x_max":278,"o":"m 278 -186 q 231 -295 278 -257 q 86 -333 183 -333 q 40 -331 61 -333 q 6 -324 19 -328 l 6 -237 q 40 -244 19 -242 q 79 -247 61 -247 q 142 -233 119 -247 q 164 -189 164 -219 q 133 -138 164 -156 q 49 -114 101 -121 l 103 0 l 190 0 l 160 -65 q 221 -88 194 -72 q 263 -128 247 -104 q 278 -186 278 -153 z "},"¹":{"ha":478,"x_min":53,"x_max":338,"o":"m 338 1172 l 338 578 l 226 578 l 226 931 q 227 975 226 953 q 229 1019 228 997 q 232 1060 231 1042 q 206 1036 219 1049 q 179 1014 193 1024 l 108 961 l 53 1033 l 238 1172 l 338 1172 z "},"º":{"ha":496,"x_min":42,"x_max":456,"o":"m 456 764 q 400 588 456 650 q 247 525 344 525 q 99 588 156 525 q 42 765 42 650 q 97 941 42 879 q 250 1003 153 1003 q 358 976 311 1003 q 430 896 404 949 q 456 764 456 843 m 144 764 q 169 648 144 686 q 249 610 194 610 q 328 648 304 610 q 353 764 353 686 q 328 881 353 843 q 249 918 303 918 q 169 881 194 918 q 144 764 144 843 z "},"»":{"ha":718,"x_min":53,"x_max":667,"o":"m 667 361 l 440 76 l 340 133 l 515 371 l 340 608 l 440 664 l 667 379 l 667 361 m 379 361 l 153 76 l 53 133 l 226 371 l 53 608 l 153 664 l 379 379 l 379 361 z "},"¼":{"ha":1054,"x_min":42,"x_max":1038,"o":"m 201 0 l 758 992 l 876 992 l 318 0 l 201 0 m 214 751 q 215 795 214 772 q 217 840 215 818 q 219 881 218 861 q 194 857 207 869 q 168 835 181 844 l 96 781 l 42 853 l 225 992 l 326 992 l 326 397 l 214 397 l 214 751 m 844 0 l 844 124 l 593 124 l 593 203 l 843 599 l 958 599 l 958 214 l 1038 214 l 1038 124 l 958 124 l 958 0 l 844 0 m 693 214 l 844 214 l 844 350 q 846 414 844 381 q 849 475 847 447 q 826 431 842 458 q 797 381 810 403 l 693 214 z "},"½":{"ha":1093,"x_min":33,"x_max":1035,"o":"m 175 0 l 733 992 l 851 992 l 293 0 l 175 0 m 206 751 q 206 784 206 767 q 208 818 207 801 q 209 851 208 835 q 211 881 210 867 q 186 857 200 869 q 160 835 172 844 l 89 781 l 33 853 l 217 992 l 318 992 l 318 397 l 206 397 l 206 751 m 650 0 l 650 88 l 794 239 q 868 319 842 288 q 905 378 894 351 q 915 436 915 406 q 894 494 915 474 q 835 514 872 514 q 770 499 800 514 q 708 454 740 485 l 651 528 q 736 586 689 564 q 843 608 783 608 q 978 565 929 608 q 1028 444 1028 521 q 1011 360 1028 399 q 962 283 994 322 q 882 197 929 244 l 783 97 l 1035 97 l 1035 0 l 650 0 z "},"¾":{"ha":1086,"x_min":35,"x_max":1069,"o":"m 243 0 l 800 992 l 918 992 l 360 0 l 243 0 m 206 386 q 117 396 158 386 q 36 426 75 406 l 36 526 q 119 490 76 503 q 206 478 163 478 q 294 502 265 478 q 322 568 322 526 q 290 638 322 614 q 190 661 257 661 l 124 661 l 124 746 l 186 746 q 278 772 250 746 q 306 838 306 797 q 282 894 306 875 q 219 914 258 914 q 153 901 185 914 q 88 863 122 888 l 35 935 q 122 986 75 968 q 226 1004 168 1004 q 365 963 315 1004 q 414 851 414 921 q 387 764 414 800 q 314 711 360 728 l 314 706 q 401 656 371 693 q 432 563 432 619 q 374 434 432 482 q 206 386 317 386 m 876 0 l 876 124 l 625 124 l 625 203 l 875 599 l 990 599 l 990 214 l 1069 214 l 1069 124 l 990 124 l 990 0 l 876 0 m 725 214 l 876 214 l 876 350 q 878 414 876 381 q 881 475 879 447 q 858 431 874 458 q 829 381 842 403 l 725 214 z "},"¿":{"ha":563,"x_min":32,"x_max":549,"o":"m 389 406 q 380 319 389 357 q 348 247 371 281 q 285 178 325 214 q 216 108 242 138 q 180 49 190 78 q 169 -18 169 19 q 204 -110 169 -79 q 304 -142 239 -142 q 406 -126 360 -142 q 499 -85 453 -110 l 549 -193 q 431 -246 494 -226 q 294 -265 368 -265 q 100 -201 168 -265 q 32 -26 32 -136 q 49 78 32 35 q 99 159 65 121 q 178 240 132 197 q 238 304 218 278 q 266 357 258 331 q 274 418 274 383 l 274 447 l 389 447 l 389 406 m 418 658 q 393 583 418 606 q 326 560 368 560 q 262 583 288 560 q 236 658 236 606 q 263 733 236 710 q 326 757 289 757 q 393 733 368 757 q 418 658 418 710 z "},"À":{"ha":815,"x_min":0,"x_max":815,"o":"m 661 0 l 571 288 l 243 288 l 153 0 l 0 0 l 326 994 l 488 994 l 815 0 l 661 0 m 447 706 q 435 754 443 725 q 419 814 426 783 q 407 865 411 844 q 394 810 401 839 q 381 753 388 781 q 367 706 374 726 l 279 415 l 535 415 l 447 706 m 383 1307 q 423 1238 400 1276 q 472 1164 446 1200 q 518 1101 497 1128 l 518 1085 l 422 1085 q 370 1130 400 1103 q 311 1187 340 1157 q 257 1245 282 1217 q 218 1293 232 1274 l 218 1307 l 383 1307 z "},"Á":{"ha":815,"x_min":0,"x_max":815,"o":"m 661 0 l 571 288 l 243 288 l 153 0 l 0 0 l 326 994 l 488 994 l 815 0 l 661 0 m 447 706 q 435 754 443 725 q 419 814 426 783 q 407 865 411 844 q 394 810 401 839 q 381 753 388 781 q 367 706 374 726 l 279 415 l 535 415 l 447 706 m 625 1293 q 585 1246 610 1274 q 531 1188 561 1218 q 472 1131 501 1158 q 419 1085 443 1104 l 325 1085 l 325 1101 q 373 1167 349 1132 q 420 1240 397 1203 q 458 1307 443 1276 l 625 1307 l 625 1293 z "},"Â":{"ha":815,"x_min":0,"x_max":815,"o":"m 661 0 l 571 288 l 243 288 l 153 0 l 0 0 l 326 994 l 488 994 l 815 0 l 661 0 m 447 706 q 435 754 443 725 q 419 814 426 783 q 407 865 411 844 q 394 810 401 839 q 381 753 388 781 q 367 706 374 726 l 279 415 l 535 415 l 447 706 m 479 1307 q 523 1239 496 1276 q 581 1165 550 1201 q 636 1100 611 1129 l 636 1085 l 544 1085 q 476 1140 511 1108 q 406 1208 440 1172 q 334 1140 369 1172 q 267 1085 299 1108 l 176 1085 l 176 1100 q 231 1166 201 1129 q 289 1240 261 1203 q 332 1307 317 1278 l 479 1307 z "},"Ã":{"ha":815,"x_min":0,"x_max":815,"o":"m 661 0 l 571 288 l 243 288 l 153 0 l 0 0 l 326 994 l 488 994 l 815 0 l 661 0 m 447 706 q 435 754 443 725 q 419 814 426 783 q 407 865 411 844 q 394 810 401 839 q 381 753 388 781 q 367 706 374 726 l 279 415 l 535 415 l 447 706 m 164 1083 q 178 1158 168 1125 q 207 1217 189 1192 q 251 1255 225 1242 q 310 1268 276 1268 q 364 1257 338 1268 q 415 1231 390 1246 q 464 1203 440 1215 q 508 1192 488 1192 q 550 1212 535 1192 q 574 1269 565 1232 l 651 1269 q 606 1133 644 1182 q 507 1085 567 1085 q 453 1097 479 1085 q 401 1124 426 1108 q 352 1151 375 1139 q 308 1163 329 1163 q 267 1142 283 1163 q 243 1083 251 1122 l 164 1083 z "},"Ä":{"ha":815,"x_min":0,"x_max":815,"o":"m 661 0 l 571 288 l 243 288 l 153 0 l 0 0 l 326 994 l 488 994 l 815 0 l 661 0 m 447 706 q 435 754 443 725 q 419 814 426 783 q 407 865 411 844 q 394 810 401 839 q 381 753 388 781 q 367 706 374 726 l 279 415 l 535 415 l 447 706 m 208 1185 q 229 1243 208 1225 q 279 1261 250 1261 q 331 1243 310 1261 q 351 1186 351 1225 q 331 1128 351 1147 q 279 1110 310 1110 q 229 1128 250 1110 q 208 1185 208 1147 m 463 1185 q 483 1243 463 1225 q 533 1261 503 1261 q 583 1243 563 1261 q 604 1186 604 1225 q 583 1128 604 1147 q 533 1110 563 1110 q 483 1128 503 1110 q 463 1185 463 1147 z "},"Å":{"ha":815,"x_min":0,"x_max":815,"o":"m 661 0 l 571 288 l 243 288 l 153 0 l 0 0 l 326 994 l 488 994 l 815 0 l 661 0 m 447 706 q 435 754 443 725 q 419 814 426 783 q 407 865 411 844 q 394 810 401 839 q 381 753 388 781 q 367 706 374 726 l 279 415 l 535 415 l 447 706 m 406 919 q 294 959 336 919 q 251 1068 251 999 q 294 1177 251 1138 q 406 1217 336 1217 q 517 1177 472 1217 q 561 1069 561 1138 q 517 960 561 1000 q 406 919 474 919 m 406 996 q 458 1015 438 996 q 479 1068 479 1035 q 459 1121 479 1101 q 406 1140 439 1140 q 354 1121 375 1140 q 333 1068 333 1101 q 352 1015 333 1035 q 406 996 371 996 z "},"Æ":{"ha":1118,"x_min":-1,"x_max":1043,"o":"m 1043 0 l 551 0 l 551 288 l 267 288 l 151 0 l -1 0 l 401 992 l 1043 992 l 1043 865 l 697 865 l 697 579 l 1019 579 l 1019 454 l 697 454 l 697 126 l 1043 126 l 1043 0 m 315 415 l 553 415 l 553 864 l 490 864 l 315 415 z "},"Ç":{"ha":790,"x_min":78,"x_max":750,"o":"m 503 879 q 386 851 438 879 q 300 772 335 824 q 247 651 265 721 q 229 494 229 581 q 260 290 229 376 q 353 158 292 204 q 506 113 414 113 q 613 124 561 113 q 715 156 664 136 l 715 29 q 611 -3 665 7 q 488 -14 557 -14 q 261 48 353 -14 q 124 224 169 110 q 78 496 78 339 q 105 700 78 607 q 185 862 132 793 q 319 968 239 931 q 501 1006 399 1006 q 632 990 568 1006 q 750 947 696 975 l 697 826 q 607 863 656 847 q 503 879 558 879 m 603 -186 q 556 -295 603 -257 q 411 -333 508 -333 q 365 -331 386 -333 q 331 -324 344 -328 l 331 -237 q 365 -244 344 -242 q 404 -247 386 -247 q 467 -233 444 -247 q 489 -189 489 -219 q 458 -138 489 -156 q 374 -114 426 -121 l 428 0 l 515 0 l 485 -65 q 546 -88 519 -72 q 588 -128 572 -104 q 603 -186 603 -153 z "},"È":{"ha":699,"x_min":119,"x_max":624,"o":"m 624 0 l 119 0 l 119 992 l 624 992 l 624 867 l 265 867 l 265 579 l 601 579 l 601 454 l 265 454 l 265 126 l 624 126 l 624 0 m 356 1307 q 395 1238 372 1276 q 444 1164 418 1200 q 490 1101 469 1128 l 490 1085 l 394 1085 q 342 1130 372 1103 q 283 1187 313 1157 q 229 1245 254 1217 q 190 1293 204 1274 l 190 1307 l 356 1307 z "},"É":{"ha":699,"x_min":119,"x_max":624,"o":"m 624 0 l 119 0 l 119 992 l 624 992 l 624 867 l 265 867 l 265 579 l 601 579 l 601 454 l 265 454 l 265 126 l 624 126 l 624 0 m 597 1293 q 558 1246 582 1274 q 503 1188 533 1218 q 444 1131 474 1158 q 392 1085 415 1104 l 297 1085 l 297 1101 q 345 1167 321 1132 q 392 1240 369 1203 q 431 1307 415 1276 l 597 1307 l 597 1293 z "},"Ê":{"ha":699,"x_min":119,"x_max":624,"o":"m 624 0 l 119 0 l 119 992 l 624 992 l 624 867 l 265 867 l 265 579 l 601 579 l 601 454 l 265 454 l 265 126 l 624 126 l 624 0 m 451 1307 q 495 1239 468 1276 q 553 1165 522 1201 q 608 1100 583 1129 l 608 1085 l 517 1085 q 448 1140 483 1108 q 378 1208 413 1172 q 306 1140 342 1172 q 239 1085 271 1108 l 149 1085 l 149 1100 q 203 1166 174 1129 q 261 1240 233 1203 q 304 1307 289 1278 l 451 1307 z "},"Ë":{"ha":699,"x_min":119,"x_max":624,"o":"m 624 0 l 119 0 l 119 992 l 624 992 l 624 867 l 265 867 l 265 579 l 601 579 l 601 454 l 265 454 l 265 126 l 624 126 l 624 0 m 181 1185 q 201 1243 181 1225 q 251 1261 222 1261 q 303 1243 282 1261 q 324 1186 324 1225 q 303 1128 324 1147 q 251 1110 282 1110 q 201 1128 222 1110 q 181 1185 181 1147 m 435 1185 q 455 1243 435 1225 q 506 1261 475 1261 q 556 1243 535 1261 q 576 1186 576 1225 q 556 1128 576 1147 q 506 1110 535 1110 q 455 1128 475 1110 q 435 1185 435 1147 z "},"Ì":{"ha":461,"x_min":43,"x_max":411,"o":"m 411 0 l 50 0 l 50 83 l 157 115 l 157 875 l 50 908 l 50 992 l 411 992 l 411 908 l 303 875 l 303 115 l 411 83 l 411 0 m 208 1307 q 248 1238 225 1276 q 297 1164 271 1200 q 343 1101 322 1128 l 343 1085 l 247 1085 q 195 1130 225 1103 q 136 1187 165 1157 q 82 1245 107 1217 q 43 1293 57 1274 l 43 1307 l 208 1307 z "},"Í":{"ha":461,"x_min":50,"x_max":449,"o":"m 411 0 l 50 0 l 50 83 l 157 115 l 157 875 l 50 908 l 50 992 l 411 992 l 411 908 l 303 875 l 303 115 l 411 83 l 411 0 m 450 1293 q 410 1246 435 1274 q 356 1188 386 1218 q 297 1131 326 1158 q 244 1085 268 1104 l 150 1085 l 150 1101 q 198 1167 174 1132 q 245 1240 222 1203 q 283 1307 268 1276 l 450 1307 l 450 1293 z "},"Î":{"ha":461,"x_min":1,"x_max":461,"o":"m 411 0 l 50 0 l 50 83 l 157 115 l 157 875 l 50 908 l 50 992 l 411 992 l 411 908 l 303 875 l 303 115 l 411 83 l 411 0 m 304 1307 q 348 1239 321 1276 q 406 1165 375 1201 q 461 1100 436 1129 l 461 1085 l 369 1085 q 301 1140 336 1108 q 231 1208 265 1172 q 159 1140 194 1172 q 92 1085 124 1108 l 1 1085 l 1 1100 q 56 1166 26 1129 q 114 1240 86 1203 q 157 1307 142 1278 l 304 1307 z "},"Ï":{"ha":461,"x_min":33,"x_max":429,"o":"m 411 0 l 50 0 l 50 83 l 157 115 l 157 875 l 50 908 l 50 992 l 411 992 l 411 908 l 303 875 l 303 115 l 411 83 l 411 0 m 33 1185 q 54 1243 33 1225 q 104 1261 75 1261 q 156 1243 135 1261 q 176 1186 176 1225 q 156 1128 176 1147 q 104 1110 135 1110 q 54 1128 75 1110 q 33 1185 33 1147 m 288 1185 q 308 1243 288 1225 q 358 1261 328 1261 q 408 1243 388 1261 q 429 1186 429 1225 q 408 1128 429 1147 q 358 1110 388 1110 q 308 1128 328 1110 q 288 1185 288 1147 z "},"Ð":{"ha":914,"x_min":33,"x_max":836,"o":"m 394 992 q 631 936 532 992 q 783 774 729 881 q 836 507 836 667 q 782 228 836 340 q 624 58 728 115 q 371 0 519 0 l 124 0 l 124 438 l 33 438 l 33 557 l 124 557 l 124 992 l 394 992 m 388 867 l 269 867 l 269 557 l 457 557 l 457 438 l 269 438 l 269 125 l 367 125 q 606 219 528 125 q 685 501 685 314 q 650 707 685 626 q 549 827 615 788 q 388 867 483 867 z "},"Ñ":{"ha":981,"x_min":119,"x_max":861,"o":"m 861 0 l 685 0 l 249 792 l 243 792 q 248 712 246 754 q 252 627 250 669 q 254 542 254 585 l 254 0 l 119 0 l 119 992 l 294 992 l 729 207 l 735 207 q 731 283 733 242 q 728 369 729 325 q 725 451 726 414 l 725 992 l 861 992 l 861 0 m 247 1083 q 262 1158 251 1125 q 290 1217 272 1192 q 334 1255 308 1242 q 393 1268 360 1268 q 447 1257 421 1268 q 499 1231 474 1246 q 547 1203 524 1215 q 592 1192 571 1192 q 633 1212 618 1192 q 657 1269 649 1232 l 735 1269 q 689 1133 728 1182 q 590 1085 650 1085 q 536 1097 563 1085 q 484 1124 510 1108 q 435 1151 458 1139 q 392 1163 413 1163 q 351 1142 367 1163 q 326 1083 335 1122 l 247 1083 z "},"Ò":{"ha":978,"x_min":78,"x_max":900,"o":"m 900 497 q 875 290 900 383 q 799 128 850 196 q 672 23 749 60 q 489 -14 594 -14 q 306 24 383 -14 q 177 129 228 61 q 102 292 126 197 q 78 499 78 386 q 123 771 78 657 q 260 946 168 885 q 490 1007 351 1007 q 720 942 629 1007 q 856 763 811 878 q 900 497 900 649 m 231 497 q 258 290 231 375 q 344 159 286 204 q 489 114 401 114 q 635 158 578 114 q 719 289 692 203 q 747 497 747 375 q 685 780 747 681 q 490 879 624 879 q 344 835 401 879 q 258 705 286 790 q 231 497 231 619 m 465 1307 q 505 1238 482 1276 q 553 1164 528 1200 q 600 1101 579 1128 l 600 1085 l 504 1085 q 452 1130 482 1103 q 393 1187 422 1157 q 339 1245 364 1217 q 300 1293 314 1274 l 300 1307 l 465 1307 z "},"Ó":{"ha":978,"x_min":78,"x_max":900,"o":"m 900 497 q 875 290 900 383 q 799 128 850 196 q 672 23 749 60 q 489 -14 594 -14 q 306 24 383 -14 q 177 129 228 61 q 102 292 126 197 q 78 499 78 386 q 123 771 78 657 q 260 946 168 885 q 490 1007 351 1007 q 720 942 629 1007 q 856 763 811 878 q 900 497 900 649 m 231 497 q 258 290 231 375 q 344 159 286 204 q 489 114 401 114 q 635 158 578 114 q 719 289 692 203 q 747 497 747 375 q 685 780 747 681 q 490 879 624 879 q 344 835 401 879 q 258 705 286 790 q 231 497 231 619 m 708 1293 q 669 1246 693 1274 q 615 1188 644 1218 q 556 1131 585 1158 q 503 1085 526 1104 l 408 1085 l 408 1101 q 456 1167 432 1132 q 503 1240 481 1203 q 542 1307 526 1276 l 708 1307 l 708 1293 z "},"Ô":{"ha":978,"x_min":78,"x_max":900,"o":"m 900 497 q 875 290 900 383 q 799 128 850 196 q 672 23 749 60 q 489 -14 594 -14 q 306 24 383 -14 q 177 129 228 61 q 102 292 126 197 q 78 499 78 386 q 123 771 78 657 q 260 946 168 885 q 490 1007 351 1007 q 720 942 629 1007 q 856 763 811 878 q 900 497 900 649 m 231 497 q 258 290 231 375 q 344 159 286 204 q 489 114 401 114 q 635 158 578 114 q 719 289 692 203 q 747 497 747 375 q 685 780 747 681 q 490 879 624 879 q 344 835 401 879 q 258 705 286 790 q 231 497 231 619 m 563 1307 q 606 1239 579 1276 q 664 1165 633 1201 q 719 1100 694 1129 l 719 1085 l 628 1085 q 559 1140 594 1108 q 489 1208 524 1172 q 417 1140 453 1172 q 350 1085 382 1108 l 260 1085 l 260 1100 q 315 1166 285 1129 q 372 1240 344 1203 q 415 1307 400 1278 l 563 1307 z "},"Õ":{"ha":978,"x_min":78,"x_max":900,"o":"m 900 497 q 875 290 900 383 q 799 128 850 196 q 672 23 749 60 q 489 -14 594 -14 q 306 24 383 -14 q 177 129 228 61 q 102 292 126 197 q 78 499 78 386 q 123 771 78 657 q 260 946 168 885 q 490 1007 351 1007 q 720 942 629 1007 q 856 763 811 878 q 900 497 900 649 m 231 497 q 258 290 231 375 q 344 159 286 204 q 489 114 401 114 q 635 158 578 114 q 719 289 692 203 q 747 497 747 375 q 685 780 747 681 q 490 879 624 879 q 344 835 401 879 q 258 705 286 790 q 231 497 231 619 m 246 1083 q 260 1158 250 1125 q 289 1217 271 1192 q 333 1255 307 1242 q 392 1268 358 1268 q 446 1257 419 1268 q 497 1231 472 1246 q 546 1203 522 1215 q 590 1192 569 1192 q 632 1212 617 1192 q 656 1269 647 1232 l 733 1269 q 688 1133 726 1182 q 589 1085 649 1085 q 535 1097 561 1085 q 483 1124 508 1108 q 434 1151 457 1139 q 390 1163 411 1163 q 349 1142 365 1163 q 325 1083 333 1122 l 246 1083 z "},"Ö":{"ha":978,"x_min":78,"x_max":900,"o":"m 900 497 q 875 290 900 383 q 799 128 850 196 q 672 23 749 60 q 489 -14 594 -14 q 306 24 383 -14 q 177 129 228 61 q 102 292 126 197 q 78 499 78 386 q 123 771 78 657 q 260 946 168 885 q 490 1007 351 1007 q 720 942 629 1007 q 856 763 811 878 q 900 497 900 649 m 231 497 q 258 290 231 375 q 344 159 286 204 q 489 114 401 114 q 635 158 578 114 q 719 289 692 203 q 747 497 747 375 q 685 780 747 681 q 490 879 624 879 q 344 835 401 879 q 258 705 286 790 q 231 497 231 619 m 290 1185 q 311 1243 290 1225 q 361 1261 332 1261 q 413 1243 392 1261 q 433 1186 433 1225 q 413 1128 433 1147 q 361 1110 392 1110 q 311 1128 332 1110 q 290 1185 290 1147 m 544 1185 q 565 1243 544 1225 q 615 1261 585 1261 q 665 1243 644 1261 q 686 1186 686 1225 q 665 1128 686 1147 q 615 1110 644 1110 q 565 1128 585 1110 q 544 1185 544 1147 z "},"×":{"ha":729,"x_min":72,"x_max":654,"o":"m 576 782 l 654 703 l 442 490 l 653 278 l 575 200 l 363 411 l 151 200 l 74 279 l 283 490 l 72 701 l 151 781 l 363 569 l 576 782 z "},"Ø":{"ha":978,"x_min":78,"x_max":900,"o":"m 900 497 q 874 285 900 379 q 797 124 849 190 q 669 22 746 57 q 489 -14 592 -14 q 368 1 424 -14 q 269 44 313 17 l 208 -56 l 121 -4 l 190 111 q 105 278 132 181 q 78 499 78 376 q 123 771 78 657 q 260 946 168 885 q 490 1007 351 1007 q 609 991 554 1007 q 710 946 664 975 l 768 1042 l 856 989 l 788 878 q 872 716 843 813 q 900 497 900 619 m 749 497 q 703 739 749 649 l 340 161 q 406 124 368 138 q 489 111 443 111 q 635 156 578 111 q 721 288 693 201 q 749 497 749 375 m 229 497 q 240 358 229 421 q 275 250 251 296 l 639 828 q 573 867 610 854 q 490 881 536 881 q 343 835 401 881 q 257 705 285 790 q 229 497 229 619 z "},"Ù":{"ha":921,"x_min":111,"x_max":810,"o":"m 810 338 q 771 151 810 231 q 654 29 732 72 q 458 -14 576 -14 q 200 79 289 -14 q 111 339 111 172 l 111 992 l 257 992 l 257 343 q 308 170 257 226 q 463 114 360 114 q 578 140 533 114 q 643 218 622 167 q 664 344 664 269 l 664 992 l 810 992 l 810 338 m 438 1307 q 477 1238 454 1276 q 526 1164 500 1200 q 572 1101 551 1128 l 572 1085 l 476 1085 q 424 1130 454 1103 q 365 1187 394 1157 q 311 1245 336 1217 q 272 1293 286 1274 l 272 1307 l 438 1307 z "},"Ú":{"ha":921,"x_min":111,"x_max":810,"o":"m 810 338 q 771 151 810 231 q 654 29 732 72 q 458 -14 576 -14 q 200 79 289 -14 q 111 339 111 172 l 111 992 l 257 992 l 257 343 q 308 170 257 226 q 463 114 360 114 q 578 140 533 114 q 643 218 622 167 q 664 344 664 269 l 664 992 l 810 992 l 810 338 m 679 1293 q 640 1246 664 1274 q 585 1188 615 1218 q 526 1131 556 1158 q 474 1085 497 1104 l 379 1085 l 379 1101 q 427 1167 403 1132 q 474 1240 451 1203 q 513 1307 497 1276 l 679 1307 l 679 1293 z "},"Û":{"ha":921,"x_min":111,"x_max":810,"o":"m 810 338 q 771 151 810 231 q 654 29 732 72 q 458 -14 576 -14 q 200 79 289 -14 q 111 339 111 172 l 111 992 l 257 992 l 257 343 q 308 170 257 226 q 463 114 360 114 q 578 140 533 114 q 643 218 622 167 q 664 344 664 269 l 664 992 l 810 992 l 810 338 m 533 1307 q 577 1239 550 1276 q 635 1165 604 1201 q 690 1100 665 1129 l 690 1085 l 599 1085 q 530 1140 565 1108 q 460 1208 494 1172 q 388 1140 424 1172 q 321 1085 353 1108 l 231 1085 l 231 1100 q 285 1166 256 1129 q 343 1240 315 1203 q 386 1307 371 1278 l 533 1307 z "},"Ü":{"ha":921,"x_min":111,"x_max":810,"o":"m 810 338 q 771 151 810 231 q 654 29 732 72 q 458 -14 576 -14 q 200 79 289 -14 q 111 339 111 172 l 111 992 l 257 992 l 257 343 q 308 170 257 226 q 463 114 360 114 q 578 140 533 114 q 643 218 622 167 q 664 344 664 269 l 664 992 l 810 992 l 810 338 m 263 1185 q 283 1243 263 1225 q 333 1261 304 1261 q 385 1243 364 1261 q 406 1186 406 1225 q 385 1128 406 1147 q 333 1110 364 1110 q 283 1128 304 1110 q 263 1185 263 1147 m 517 1185 q 537 1243 517 1225 q 588 1261 557 1261 q 638 1243 617 1261 q 658 1186 658 1225 q 638 1128 658 1147 q 588 1110 617 1110 q 537 1128 557 1110 q 517 1185 517 1147 z "},"Ý":{"ha":725,"x_min":0,"x_max":725,"o":"m 363 533 l 569 992 l 725 992 l 435 385 l 435 0 l 290 0 l 290 381 l 0 992 l 157 992 l 363 533 m 582 1293 q 542 1246 567 1274 q 488 1188 518 1218 q 429 1131 458 1158 q 376 1085 400 1104 l 282 1085 l 282 1101 q 330 1167 306 1132 q 377 1240 354 1203 q 415 1307 400 1276 l 582 1307 l 582 1293 z "},"Þ":{"ha":767,"x_min":119,"x_max":710,"o":"m 710 529 q 691 404 710 463 q 631 303 672 346 q 523 235 590 260 q 357 210 456 210 l 265 210 l 265 0 l 119 0 l 119 992 l 265 992 l 265 825 l 371 825 q 629 748 549 825 q 710 529 710 671 m 340 333 q 467 353 418 333 q 538 415 515 372 q 561 525 561 457 q 513 658 561 615 q 358 700 465 700 l 265 700 l 265 333 l 340 333 z "},"ß":{"ha":821,"x_min":104,"x_max":768,"o":"m 688 851 q 670 769 688 804 q 628 707 653 733 q 577 658 603 681 q 534 615 551 636 q 517 569 517 594 q 526 535 517 551 q 560 497 536 518 q 625 446 583 476 q 704 376 672 410 q 752 305 736 343 q 768 215 768 267 q 738 88 768 139 q 652 12 708 38 q 518 -14 596 -14 q 417 -3 463 -14 q 336 29 372 8 l 336 156 q 386 129 358 142 q 446 109 414 117 q 508 101 478 101 q 597 129 568 101 q 626 207 626 157 q 616 260 626 236 q 581 307 606 283 q 511 363 556 331 q 431 431 460 400 q 390 493 401 463 q 378 558 378 524 q 394 629 378 600 q 436 682 411 658 q 486 728 461 706 q 528 776 511 750 q 544 839 544 803 q 505 918 544 892 q 401 944 465 944 q 322 929 357 944 q 267 881 288 914 q 247 790 247 847 l 247 0 l 104 0 l 104 794 q 142 945 104 886 q 248 1033 181 1004 q 401 1063 315 1063 q 551 1038 488 1063 q 651 967 615 1014 q 688 851 688 921 z "},"à":{"ha":724,"x_min":56,"x_max":624,"o":"m 371 763 q 561 699 499 763 q 624 506 624 635 l 624 0 l 519 0 l 494 104 l 490 104 q 431 38 463 64 q 360 -1 400 11 q 267 -14 321 -14 q 155 13 203 -14 q 81 91 107 40 q 56 213 56 142 q 134 387 56 326 q 369 453 213 447 l 483 457 l 483 499 q 451 615 483 581 q 357 650 418 650 q 263 635 310 650 q 171 597 217 621 l 126 700 q 240 746 176 729 q 371 763 303 763 m 396 358 q 245 317 289 354 q 201 214 201 281 q 232 126 201 154 q 311 97 263 97 q 434 147 386 97 q 482 293 482 197 l 482 361 l 396 358 m 342 1064 q 381 995 358 1033 q 430 921 404 957 q 476 858 456 885 l 476 842 l 381 842 q 328 887 358 860 q 269 944 299 914 q 215 1002 240 974 q 176 1050 190 1031 l 176 1064 l 342 1064 z "},"á":{"ha":724,"x_min":56,"x_max":624,"o":"m 371 763 q 561 699 499 763 q 624 506 624 635 l 624 0 l 519 0 l 494 104 l 490 104 q 431 38 463 64 q 360 -1 400 11 q 267 -14 321 -14 q 155 13 203 -14 q 81 91 107 40 q 56 213 56 142 q 134 387 56 326 q 369 453 213 447 l 483 457 l 483 499 q 451 615 483 581 q 357 650 418 650 q 263 635 310 650 q 171 597 217 621 l 126 700 q 240 746 176 729 q 371 763 303 763 m 396 358 q 245 317 289 354 q 201 214 201 281 q 232 126 201 154 q 311 97 263 97 q 434 147 386 97 q 482 293 482 197 l 482 361 l 396 358 m 585 1050 q 545 1003 569 1031 q 491 945 521 975 q 432 888 461 915 q 379 842 403 861 l 285 842 l 285 858 q 333 924 308 889 q 380 997 357 960 q 418 1064 403 1033 l 585 1064 l 585 1050 z "},"â":{"ha":724,"x_min":56,"x_max":624,"o":"m 371 763 q 561 699 499 763 q 624 506 624 635 l 624 0 l 519 0 l 494 104 l 490 104 q 431 38 463 64 q 360 -1 400 11 q 267 -14 321 -14 q 155 13 203 -14 q 81 91 107 40 q 56 213 56 142 q 134 387 56 326 q 369 453 213 447 l 483 457 l 483 499 q 451 615 483 581 q 357 650 418 650 q 263 635 310 650 q 171 597 217 621 l 126 700 q 240 746 176 729 q 371 763 303 763 m 396 358 q 245 317 289 354 q 201 214 201 281 q 232 126 201 154 q 311 97 263 97 q 434 147 386 97 q 482 293 482 197 l 482 361 l 396 358 m 439 1064 q 483 996 456 1033 q 540 922 510 958 q 596 857 571 886 l 596 842 l 504 842 q 435 897 471 865 q 365 965 400 929 q 294 897 329 929 q 226 842 258 865 l 136 842 l 136 857 q 191 923 161 886 q 249 997 221 960 q 292 1064 276 1035 l 439 1064 z "},"ã":{"ha":724,"x_min":56,"x_max":624,"o":"m 371 763 q 561 699 499 763 q 624 506 624 635 l 624 0 l 519 0 l 494 104 l 490 104 q 431 38 463 64 q 360 -1 400 11 q 267 -14 321 -14 q 155 13 203 -14 q 81 91 107 40 q 56 213 56 142 q 134 387 56 326 q 369 453 213 447 l 483 457 l 483 499 q 451 615 483 581 q 357 650 418 650 q 263 635 310 650 q 171 597 217 621 l 126 700 q 240 746 176 729 q 371 763 303 763 m 396 358 q 245 317 289 354 q 201 214 201 281 q 232 126 201 154 q 311 97 263 97 q 434 147 386 97 q 482 293 482 197 l 482 361 l 396 358 m 122 840 q 137 915 126 882 q 165 974 147 949 q 209 1012 183 999 q 268 1025 235 1025 q 322 1014 296 1025 q 374 988 349 1003 q 422 960 399 972 q 467 949 446 949 q 508 969 493 949 q 532 1026 524 989 l 610 1026 q 564 890 603 939 q 465 842 525 842 q 411 853 438 842 q 359 881 385 865 q 310 908 333 896 q 267 919 288 919 q 226 899 242 919 q 201 840 210 879 l 122 840 z "},"ä":{"ha":724,"x_min":56,"x_max":624,"o":"m 371 763 q 561 699 499 763 q 624 506 624 635 l 624 0 l 519 0 l 494 104 l 490 104 q 431 38 463 64 q 360 -1 400 11 q 267 -14 321 -14 q 155 13 203 -14 q 81 91 107 40 q 56 213 56 142 q 134 387 56 326 q 369 453 213 447 l 483 457 l 483 499 q 451 615 483 581 q 357 650 418 650 q 263 635 310 650 q 171 597 217 621 l 126 700 q 240 746 176 729 q 371 763 303 763 m 396 358 q 245 317 289 354 q 201 214 201 281 q 232 126 201 154 q 311 97 263 97 q 434 147 386 97 q 482 293 482 197 l 482 361 l 396 358 m 167 942 q 188 1000 167 982 q 238 1018 208 1018 q 289 1000 268 1018 q 310 943 310 982 q 289 885 310 904 q 238 867 268 867 q 188 885 208 867 q 167 942 167 904 m 421 942 q 441 1000 421 982 q 492 1018 461 1018 q 542 1000 521 1018 q 563 943 563 982 q 542 885 563 904 q 492 867 521 867 q 441 885 461 867 q 421 942 421 904 z "},"å":{"ha":724,"x_min":56,"x_max":624,"o":"m 371 763 q 561 699 499 763 q 624 506 624 635 l 624 0 l 519 0 l 494 104 l 490 104 q 431 38 463 64 q 360 -1 400 11 q 267 -14 321 -14 q 155 13 203 -14 q 81 91 107 40 q 56 213 56 142 q 134 387 56 326 q 369 453 213 447 l 483 457 l 483 499 q 451 615 483 581 q 357 650 418 650 q 263 635 310 650 q 171 597 217 621 l 126 700 q 240 746 176 729 q 371 763 303 763 m 396 358 q 245 317 289 354 q 201 214 201 281 q 232 126 201 154 q 311 97 263 97 q 434 147 386 97 q 482 293 482 197 l 482 361 l 396 358 m 364 843 q 252 883 294 843 q 210 992 210 922 q 252 1101 210 1061 q 364 1140 294 1140 q 475 1101 431 1140 q 519 993 519 1061 q 476 883 519 924 q 364 843 432 843 m 364 919 q 417 939 396 919 q 438 992 438 958 q 417 1044 438 1025 q 364 1064 397 1064 q 313 1044 333 1064 q 292 992 292 1025 q 310 939 292 958 q 364 919 329 919 z "},"æ":{"ha":1111,"x_min":56,"x_max":1049,"o":"m 771 763 q 920 720 858 763 q 1015 603 982 678 q 1049 426 1049 528 l 1049 344 l 614 344 q 664 162 617 222 q 801 101 711 101 q 912 115 861 101 q 1014 154 963 128 l 1014 36 q 913 -1 964 11 q 793 -14 861 -14 q 685 3 736 -14 q 596 53 635 19 q 531 136 557 86 q 464 54 500 88 q 382 3 428 21 q 272 -14 336 -14 q 158 13 207 -14 q 83 91 110 40 q 56 213 56 142 q 90 341 56 289 q 192 421 124 393 q 360 453 260 449 l 471 457 l 471 504 q 438 616 471 582 q 346 650 406 650 q 253 635 300 650 q 161 597 207 621 l 118 700 q 228 745 165 728 q 357 763 290 763 q 482 737 432 763 q 561 658 532 711 q 649 735 596 708 q 771 763 701 763 m 388 358 q 243 317 285 354 q 201 214 201 281 q 230 126 201 154 q 307 97 258 97 q 392 119 356 97 q 449 185 428 142 q 471 293 471 229 l 471 361 l 388 358 m 769 651 q 662 601 701 651 q 615 450 622 550 l 908 450 q 894 554 908 508 q 848 626 879 600 q 769 651 817 651 z "},"ç":{"ha":615,"x_min":67,"x_max":576,"o":"m 379 -14 q 213 27 283 -14 q 104 153 142 68 q 67 371 67 239 q 106 589 67 501 q 218 719 146 676 q 388 763 290 763 q 494 751 446 763 q 576 721 542 739 l 533 606 q 463 631 500 621 q 390 642 425 642 q 291 611 331 642 q 232 521 251 581 q 213 371 213 461 q 232 226 213 285 q 291 137 251 167 q 388 107 331 107 q 481 119 439 107 q 563 153 524 132 l 563 31 q 481 -3 525 8 q 379 -14 436 -14 m 503 -186 q 456 -295 503 -257 q 311 -333 408 -333 q 265 -331 286 -333 q 231 -324 244 -328 l 231 -237 q 265 -244 244 -242 q 304 -247 286 -247 q 367 -233 344 -247 q 389 -189 389 -219 q 358 -138 389 -156 q 274 -114 326 -121 l 328 0 l 415 0 l 385 -65 q 446 -88 419 -72 q 488 -128 472 -104 q 503 -186 503 -153 z "},"è":{"ha":722,"x_min":67,"x_max":660,"o":"m 372 763 q 528 720 464 763 q 626 603 592 678 q 660 426 660 528 l 660 343 l 210 343 q 264 164 213 225 q 410 103 315 103 q 522 116 471 103 q 626 156 572 129 l 626 36 q 522 -1 575 11 q 400 -14 469 -14 q 221 31 296 -14 q 106 163 146 76 q 67 369 67 249 q 103 583 67 496 q 209 717 140 671 q 372 763 278 763 m 372 651 q 261 600 303 651 q 213 450 219 549 l 521 450 q 505 553 521 508 q 456 625 489 599 q 372 651 424 651 m 342 1064 q 381 995 358 1033 q 430 921 404 957 q 476 858 456 885 l 476 842 l 381 842 q 328 887 358 860 q 269 944 299 914 q 215 1002 240 974 q 176 1050 190 1031 l 176 1064 l 342 1064 z "},"é":{"ha":722,"x_min":67,"x_max":660,"o":"m 372 763 q 528 720 464 763 q 626 603 592 678 q 660 426 660 528 l 660 343 l 210 343 q 264 164 213 225 q 410 103 315 103 q 522 116 471 103 q 626 156 572 129 l 626 36 q 522 -1 575 11 q 400 -14 469 -14 q 221 31 296 -14 q 106 163 146 76 q 67 369 67 249 q 103 583 67 496 q 209 717 140 671 q 372 763 278 763 m 372 651 q 261 600 303 651 q 213 450 219 549 l 521 450 q 505 553 521 508 q 456 625 489 599 q 372 651 424 651 m 583 1050 q 544 1003 568 1031 q 490 945 519 975 q 431 888 460 915 q 378 842 401 861 l 283 842 l 283 858 q 331 924 307 889 q 378 997 356 960 q 417 1064 401 1033 l 583 1064 l 583 1050 z "},"ê":{"ha":722,"x_min":67,"x_max":660,"o":"m 372 763 q 528 720 464 763 q 626 603 592 678 q 660 426 660 528 l 660 343 l 210 343 q 264 164 213 225 q 410 103 315 103 q 522 116 471 103 q 626 156 572 129 l 626 36 q 522 -1 575 11 q 400 -14 469 -14 q 221 31 296 -14 q 106 163 146 76 q 67 369 67 249 q 103 583 67 496 q 209 717 140 671 q 372 763 278 763 m 372 651 q 261 600 303 651 q 213 450 219 549 l 521 450 q 505 553 521 508 q 456 625 489 599 q 372 651 424 651 m 438 1064 q 481 996 454 1033 q 539 922 508 958 q 594 857 569 886 l 594 842 l 503 842 q 434 897 469 865 q 364 965 399 929 q 292 897 328 929 q 225 842 257 865 l 135 842 l 135 857 q 190 923 160 886 q 247 997 219 960 q 290 1064 275 1035 l 438 1064 z "},"ë":{"ha":722,"x_min":67,"x_max":660,"o":"m 372 763 q 528 720 464 763 q 626 603 592 678 q 660 426 660 528 l 660 343 l 210 343 q 264 164 213 225 q 410 103 315 103 q 522 116 471 103 q 626 156 572 129 l 626 36 q 522 -1 575 11 q 400 -14 469 -14 q 221 31 296 -14 q 106 163 146 76 q 67 369 67 249 q 103 583 67 496 q 209 717 140 671 q 372 763 278 763 m 372 651 q 261 600 303 651 q 213 450 219 549 l 521 450 q 505 553 521 508 q 456 625 489 599 q 372 651 424 651 m 167 942 q 188 1000 167 982 q 238 1018 208 1018 q 289 1000 268 1018 q 310 943 310 982 q 289 885 310 904 q 238 867 268 867 q 188 885 208 867 q 167 942 167 904 m 421 942 q 441 1000 421 982 q 492 1018 461 1018 q 542 1000 521 1018 q 563 943 563 982 q 542 885 563 904 q 492 867 521 867 q 441 885 461 867 q 421 942 421 904 z "},"ì":{"ha":351,"x_min":-12,"x_max":286,"o":"m 247 0 l 104 0 l 104 749 l 247 749 l 247 0 m 153 1064 q 192 995 169 1033 q 241 921 215 957 q 288 858 267 885 l 288 842 l 192 842 q 140 887 169 860 q 81 944 110 914 q 26 1002 51 974 q -12 1050 1 1031 l -12 1064 l 153 1064 z "},"í":{"ha":351,"x_min":94,"x_max":393,"o":"m 247 0 l 104 0 l 104 749 l 247 749 l 247 0 m 394 1050 q 355 1003 379 1031 q 301 945 331 975 q 242 888 271 915 q 189 842 213 861 l 94 842 l 94 858 q 142 924 118 889 q 190 997 167 960 q 228 1064 213 1033 l 394 1064 l 394 1050 z "},"î":{"ha":351,"x_min":-54,"x_max":406,"o":"m 247 0 l 104 0 l 104 749 l 247 749 l 247 0 m 249 1064 q 292 996 265 1033 q 350 922 319 958 q 406 857 381 886 l 406 842 l 314 842 q 245 897 281 865 q 175 965 210 929 q 103 897 139 929 q 36 842 68 865 l -54 842 l -54 857 q 1 923 -29 886 q 58 997 31 960 q 101 1064 86 1035 l 249 1064 z "},"ï":{"ha":351,"x_min":-22,"x_max":374,"o":"m 247 0 l 104 0 l 104 749 l 247 749 l 247 0 m -22 942 q -1 1000 -22 982 q 49 1018 19 1018 q 100 1000 79 1018 q 121 943 121 982 q 100 885 121 904 q 49 867 79 867 q -1 885 19 867 q -22 942 -22 904 m 232 942 q 252 1000 232 982 q 303 1018 272 1018 q 353 1000 332 1018 q 374 943 374 982 q 353 885 374 904 q 303 867 332 867 q 252 885 272 867 q 232 942 232 904 z "},"ð":{"ha":769,"x_min":67,"x_max":704,"o":"m 278 1061 q 354 1021 317 1043 q 426 971 392 999 l 567 1058 l 622 979 l 503 907 q 610 765 565 844 q 680 590 656 686 q 704 376 704 493 q 666 162 704 249 q 556 31 628 75 q 383 -14 485 -14 q 217 28 288 -14 q 106 148 146 71 q 67 326 67 225 q 103 508 67 433 q 206 623 140 583 q 361 663 272 663 q 434 656 401 663 q 493 633 467 649 q 538 594 519 618 l 543 597 q 486 728 524 668 q 399 839 449 788 l 251 749 l 197 828 l 324 906 q 274 942 300 925 q 221 974 247 958 l 278 1061 m 386 549 q 286 523 325 549 q 228 447 247 497 q 210 322 210 397 q 228 208 210 258 q 286 130 247 158 q 386 101 325 101 q 519 163 478 101 q 560 344 560 225 q 549 424 560 388 q 517 489 539 461 q 463 533 496 517 q 386 549 431 549 z "},"ñ":{"ha":793,"x_min":104,"x_max":692,"o":"m 453 763 q 631 698 569 763 q 692 494 692 633 l 692 0 l 551 0 l 551 469 q 520 599 551 556 q 421 643 489 643 q 285 577 324 643 q 247 379 247 511 l 247 0 l 104 0 l 104 749 l 217 749 l 236 649 l 244 649 q 298 713 265 688 q 370 750 331 738 q 453 763 410 763 m 157 840 q 172 915 161 882 q 200 974 182 949 q 244 1012 218 999 q 303 1025 269 1025 q 357 1014 331 1025 q 408 988 383 1003 q 457 960 433 972 q 501 949 481 949 q 543 969 528 949 q 567 1026 558 989 l 644 1026 q 599 890 638 939 q 500 842 560 842 q 446 853 472 842 q 394 881 419 865 q 345 908 368 896 q 301 919 322 919 q 260 899 276 919 q 236 840 244 879 l 157 840 z "},"ò":{"ha":769,"x_min":67,"x_max":703,"o":"m 703 376 q 682 213 703 285 q 620 91 661 142 q 519 13 579 40 q 382 -14 460 -14 q 253 13 311 -14 q 153 91 194 40 q 89 213 111 142 q 67 376 67 285 q 103 585 67 499 q 212 717 140 671 q 386 763 283 763 q 553 718 482 763 q 663 588 624 674 q 703 376 703 501 m 211 375 q 230 228 211 289 q 287 136 249 168 q 385 104 325 104 q 484 136 446 104 q 540 228 522 168 q 558 375 558 289 q 540 522 558 463 q 483 613 521 582 q 385 644 444 644 q 252 575 293 644 q 211 375 211 506 m 361 1064 q 401 995 378 1033 q 449 921 424 957 q 496 858 475 885 l 496 842 l 400 842 q 348 887 378 860 q 289 944 318 914 q 235 1002 260 974 q 196 1050 210 1031 l 196 1064 l 361 1064 z "},"ó":{"ha":769,"x_min":67,"x_max":703,"o":"m 703 376 q 682 213 703 285 q 620 91 661 142 q 519 13 579 40 q 382 -14 460 -14 q 253 13 311 -14 q 153 91 194 40 q 89 213 111 142 q 67 376 67 285 q 103 585 67 499 q 212 717 140 671 q 386 763 283 763 q 553 718 482 763 q 663 588 624 674 q 703 376 703 501 m 211 375 q 230 228 211 289 q 287 136 249 168 q 385 104 325 104 q 484 136 446 104 q 540 228 522 168 q 558 375 558 289 q 540 522 558 463 q 483 613 521 582 q 385 644 444 644 q 252 575 293 644 q 211 375 211 506 m 604 1050 q 565 1003 589 1031 q 510 945 540 975 q 451 888 481 915 q 399 842 422 861 l 304 842 l 304 858 q 352 924 328 889 q 399 997 376 960 q 438 1064 422 1033 l 604 1064 l 604 1050 z "},"ô":{"ha":769,"x_min":67,"x_max":703,"o":"m 703 376 q 682 213 703 285 q 620 91 661 142 q 519 13 579 40 q 382 -14 460 -14 q 253 13 311 -14 q 153 91 194 40 q 89 213 111 142 q 67 376 67 285 q 103 585 67 499 q 212 717 140 671 q 386 763 283 763 q 553 718 482 763 q 663 588 624 674 q 703 376 703 501 m 211 375 q 230 228 211 289 q 287 136 249 168 q 385 104 325 104 q 484 136 446 104 q 540 228 522 168 q 558 375 558 289 q 540 522 558 463 q 483 613 521 582 q 385 644 444 644 q 252 575 293 644 q 211 375 211 506 m 457 1064 q 501 996 474 1033 q 558 922 528 958 q 614 857 589 886 l 614 842 l 522 842 q 453 897 489 865 q 383 965 418 929 q 312 897 347 929 q 244 842 276 865 l 154 842 l 154 857 q 209 923 179 886 q 267 997 239 960 q 310 1064 294 1035 l 457 1064 z "},"õ":{"ha":769,"x_min":67,"x_max":703,"o":"m 703 376 q 682 213 703 285 q 620 91 661 142 q 519 13 579 40 q 382 -14 460 -14 q 253 13 311 -14 q 153 91 194 40 q 89 213 111 142 q 67 376 67 285 q 103 585 67 499 q 212 717 140 671 q 386 763 283 763 q 553 718 482 763 q 663 588 624 674 q 703 376 703 501 m 211 375 q 230 228 211 289 q 287 136 249 168 q 385 104 325 104 q 484 136 446 104 q 540 228 522 168 q 558 375 558 289 q 540 522 558 463 q 483 613 521 582 q 385 644 444 644 q 252 575 293 644 q 211 375 211 506 m 142 840 q 156 915 146 882 q 185 974 167 949 q 228 1012 203 999 q 288 1025 254 1025 q 342 1014 315 1025 q 393 988 368 1003 q 442 960 418 972 q 486 949 465 949 q 528 969 513 949 q 551 1026 543 989 l 629 1026 q 583 890 622 939 q 485 842 544 842 q 431 853 457 842 q 378 881 404 865 q 330 908 353 896 q 286 919 307 919 q 245 899 261 919 q 221 840 229 879 l 142 840 z "},"ö":{"ha":769,"x_min":67,"x_max":703,"o":"m 703 376 q 682 213 703 285 q 620 91 661 142 q 519 13 579 40 q 382 -14 460 -14 q 253 13 311 -14 q 153 91 194 40 q 89 213 111 142 q 67 376 67 285 q 103 585 67 499 q 212 717 140 671 q 386 763 283 763 q 553 718 482 763 q 663 588 624 674 q 703 376 703 501 m 211 375 q 230 228 211 289 q 287 136 249 168 q 385 104 325 104 q 484 136 446 104 q 540 228 522 168 q 558 375 558 289 q 540 522 558 463 q 483 613 521 582 q 385 644 444 644 q 252 575 293 644 q 211 375 211 506 m 186 942 q 207 1000 186 982 q 257 1018 228 1018 q 308 1000 288 1018 q 329 943 329 982 q 308 885 329 904 q 257 867 288 867 q 207 885 228 867 q 186 942 186 904 m 440 942 q 460 1000 440 982 q 511 1018 481 1018 q 561 1000 540 1018 q 582 943 582 982 q 561 885 582 904 q 511 867 540 867 q 460 885 481 867 q 440 942 440 904 z "},"÷":{"ha":729,"x_min":58,"x_max":669,"o":"m 58 433 l 58 546 l 669 546 l 669 433 l 58 433 m 364 156 q 306 178 329 156 q 283 247 283 200 q 306 317 283 296 q 364 338 328 338 q 421 317 399 338 q 443 247 443 296 q 420 178 443 200 q 364 156 397 156 m 364 642 q 306 664 329 642 q 283 732 283 686 q 306 801 283 781 q 364 822 328 822 q 421 801 399 822 q 443 732 443 781 q 420 664 443 686 q 364 642 397 642 z "},"ø":{"ha":769,"x_min":65,"x_max":703,"o":"m 703 376 q 665 165 703 251 q 554 32 626 78 q 382 -14 482 -14 q 299 -3 338 -14 q 228 26 261 7 l 174 -62 l 92 -12 l 153 89 q 88 213 110 140 q 65 376 65 285 q 151 663 65 563 q 386 763 236 763 q 471 751 431 763 q 544 718 511 740 l 594 799 l 678 749 l 621 654 q 681 534 660 604 q 703 376 703 464 m 210 375 q 215 288 210 328 q 233 218 221 249 l 482 613 q 438 638 463 629 q 383 646 413 646 q 251 576 293 646 q 210 375 210 507 m 560 376 q 554 458 560 421 q 539 524 549 494 l 292 131 q 333 110 310 117 q 385 103 357 103 q 485 135 446 103 q 542 228 524 167 q 560 376 560 289 z "},"ù":{"ha":793,"x_min":100,"x_max":688,"o":"m 688 749 l 688 0 l 575 0 l 557 99 l 549 99 q 495 36 528 61 q 423 -1 463 11 q 340 -14 383 -14 q 207 17 261 -14 q 126 108 153 47 q 100 260 100 168 l 100 749 l 242 749 l 242 285 q 273 150 242 194 q 369 106 304 106 q 476 135 438 106 q 530 223 514 165 q 546 365 546 281 l 546 749 l 688 749 m 374 1064 q 413 995 390 1033 q 462 921 436 957 q 508 858 488 885 l 508 842 l 413 842 q 360 887 390 860 q 301 944 331 914 q 247 1002 272 974 q 208 1050 222 1031 l 208 1064 l 374 1064 z "},"ú":{"ha":793,"x_min":100,"x_max":688,"o":"m 688 749 l 688 0 l 575 0 l 557 99 l 549 99 q 495 36 528 61 q 423 -1 463 11 q 340 -14 383 -14 q 207 17 261 -14 q 126 108 153 47 q 100 260 100 168 l 100 749 l 242 749 l 242 285 q 273 150 242 194 q 369 106 304 106 q 476 135 438 106 q 530 223 514 165 q 546 365 546 281 l 546 749 l 688 749 m 615 1050 q 576 1003 600 1031 q 522 945 551 975 q 463 888 492 915 q 410 842 433 861 l 315 842 l 315 858 q 363 924 339 889 q 410 997 388 960 q 449 1064 433 1033 l 615 1064 l 615 1050 z "},"û":{"ha":793,"x_min":100,"x_max":688,"o":"m 688 749 l 688 0 l 575 0 l 557 99 l 549 99 q 495 36 528 61 q 423 -1 463 11 q 340 -14 383 -14 q 207 17 261 -14 q 126 108 153 47 q 100 260 100 168 l 100 749 l 242 749 l 242 285 q 273 150 242 194 q 369 106 304 106 q 476 135 438 106 q 530 223 514 165 q 546 365 546 281 l 546 749 l 688 749 m 469 1064 q 513 996 486 1033 q 571 922 540 958 q 626 857 601 886 l 626 842 l 535 842 q 466 897 501 865 q 396 965 431 929 q 324 897 360 929 q 257 842 289 865 l 167 842 l 167 857 q 222 923 192 886 q 279 997 251 960 q 322 1064 307 1035 l 469 1064 z "},"ü":{"ha":793,"x_min":100,"x_max":688,"o":"m 688 749 l 688 0 l 575 0 l 557 99 l 549 99 q 495 36 528 61 q 423 -1 463 11 q 340 -14 383 -14 q 207 17 261 -14 q 126 108 153 47 q 100 260 100 168 l 100 749 l 242 749 l 242 285 q 273 150 242 194 q 369 106 304 106 q 476 135 438 106 q 530 223 514 165 q 546 365 546 281 l 546 749 l 688 749 m 199 942 q 219 1000 199 982 q 269 1018 240 1018 q 321 1000 300 1018 q 342 943 342 982 q 321 885 342 904 q 269 867 300 867 q 219 885 240 867 q 199 942 199 904 m 453 942 q 473 1000 453 982 q 524 1018 493 1018 q 574 1000 553 1018 q 594 943 594 982 q 574 885 594 904 q 524 867 553 867 q 473 885 493 867 q 453 942 453 904 z "},"ý":{"ha":664,"x_min":3,"x_max":661,"o":"m 3 749 l 154 749 l 288 332 q 306 272 297 301 q 321 214 314 243 q 332 157 328 185 l 338 157 q 356 238 343 192 q 383 332 368 283 l 511 749 l 661 749 l 378 -101 q 317 -228 351 -176 q 233 -307 282 -281 q 118 -333 185 -333 q 68 -330 90 -333 q 26 -322 46 -326 l 26 -206 q 60 -211 42 -208 q 99 -214 78 -214 q 162 -199 136 -214 q 207 -153 188 -183 q 240 -79 226 -122 l 267 1 l 3 749 m 551 1050 q 512 1003 536 1031 q 458 945 488 975 q 399 888 428 915 q 346 842 369 861 l 251 842 l 251 858 q 299 924 275 889 q 347 997 324 960 q 385 1064 369 1033 l 551 1064 l 551 1050 z "},"þ":{"ha":786,"x_min":104,"x_max":721,"o":"m 721 375 q 688 163 721 250 q 594 31 654 76 q 453 -14 535 -14 q 364 0 403 -14 q 296 38 325 14 q 247 93 267 63 l 239 93 q 242 58 240 79 q 246 17 244 38 q 247 -18 247 -3 l 247 -333 l 104 -333 l 104 1056 l 247 1056 l 247 761 q 245 704 247 736 q 242 649 243 672 l 247 649 q 297 710 268 685 q 364 749 326 736 q 450 763 401 763 q 648 664 575 763 q 721 375 721 565 m 575 376 q 537 578 575 511 q 415 644 499 644 q 287 584 325 644 q 247 400 249 524 l 247 372 q 285 173 247 240 q 417 106 322 106 q 508 139 474 106 q 559 233 543 172 q 575 376 575 293 z "},"ÿ":{"ha":664,"x_min":3,"x_max":661,"o":"m 3 749 l 154 749 l 288 332 q 306 272 297 301 q 321 214 314 243 q 332 157 328 185 l 338 157 q 356 238 343 192 q 383 332 368 283 l 511 749 l 661 749 l 378 -101 q 317 -228 351 -176 q 233 -307 282 -281 q 118 -333 185 -333 q 68 -330 90 -333 q 26 -322 46 -326 l 26 -206 q 60 -211 42 -208 q 99 -214 78 -214 q 162 -199 136 -214 q 207 -153 188 -183 q 240 -79 226 -122 l 267 1 l 3 749 m 133 942 q 154 1000 133 982 q 204 1018 175 1018 q 256 1000 235 1018 q 276 943 276 982 q 256 885 276 904 q 204 867 235 867 q 154 885 175 867 q 133 942 133 904 m 388 942 q 408 1000 388 982 q 458 1018 428 1018 q 508 1000 488 1018 q 529 943 529 982 q 508 885 529 904 q 458 867 488 867 q 408 885 428 867 q 388 942 388 904 z "},"Ā":{"ha":815,"x_min":0,"x_max":815,"o":"m 661 0 l 571 288 l 243 288 l 153 0 l 0 0 l 326 994 l 488 994 l 815 0 l 661 0 m 447 706 q 435 754 443 725 q 419 814 426 783 q 407 865 411 844 q 394 810 401 839 q 381 753 388 781 q 367 706 374 726 l 279 415 l 535 415 l 447 706 m 606 1197 l 606 1089 l 207 1089 l 207 1197 l 606 1197 z "},"ā":{"ha":724,"x_min":56,"x_max":624,"o":"m 371 763 q 561 699 499 763 q 624 506 624 635 l 624 0 l 519 0 l 494 104 l 490 104 q 431 38 463 64 q 360 -1 400 11 q 267 -14 321 -14 q 155 13 203 -14 q 81 91 107 40 q 56 213 56 142 q 134 387 56 326 q 369 453 213 447 l 483 457 l 483 499 q 451 615 483 581 q 357 650 418 650 q 263 635 310 650 q 171 597 217 621 l 126 700 q 240 746 176 729 q 371 763 303 763 m 396 358 q 245 317 289 354 q 201 214 201 281 q 232 126 201 154 q 311 97 263 97 q 434 147 386 97 q 482 293 482 197 l 482 361 l 396 358 m 564 954 l 564 846 l 165 846 l 165 954 l 564 954 z "},"Ă":{"ha":815,"x_min":0,"x_max":815,"o":"m 661 0 l 571 288 l 243 288 l 153 0 l 0 0 l 326 994 l 488 994 l 815 0 l 661 0 m 447 706 q 435 754 443 725 q 419 814 426 783 q 407 865 411 844 q 394 810 401 839 q 381 753 388 781 q 367 706 374 726 l 279 415 l 535 415 l 447 706 m 618 1283 q 588 1179 615 1224 q 514 1110 561 1135 q 403 1085 467 1085 q 252 1138 306 1085 q 194 1283 199 1190 l 281 1283 q 299 1228 283 1247 q 342 1200 315 1208 q 406 1192 369 1192 q 465 1200 438 1192 q 510 1228 492 1208 q 532 1283 528 1249 l 618 1283 z "},"ă":{"ha":724,"x_min":56,"x_max":624,"o":"m 371 763 q 561 699 499 763 q 624 506 624 635 l 624 0 l 519 0 l 494 104 l 490 104 q 431 38 463 64 q 360 -1 400 11 q 267 -14 321 -14 q 155 13 203 -14 q 81 91 107 40 q 56 213 56 142 q 134 387 56 326 q 369 453 213 447 l 483 457 l 483 499 q 451 615 483 581 q 357 650 418 650 q 263 635 310 650 q 171 597 217 621 l 126 700 q 240 746 176 729 q 371 763 303 763 m 396 358 q 245 317 289 354 q 201 214 201 281 q 232 126 201 154 q 311 97 263 97 q 434 147 386 97 q 482 293 482 197 l 482 361 l 396 358 m 576 1040 q 547 936 574 981 q 472 867 519 892 q 361 842 425 842 q 210 894 264 842 q 153 1040 157 947 l 239 1040 q 258 985 242 1004 q 301 957 274 965 q 364 949 328 949 q 423 957 396 949 q 468 985 450 965 q 490 1040 486 1006 l 576 1040 z "},"Ą":{"ha":815,"x_min":0,"x_max":815,"o":"m 661 0 l 571 288 l 243 288 l 153 0 l 0 0 l 326 994 l 488 994 l 815 0 l 661 0 m 447 706 q 435 754 443 725 q 419 814 426 783 q 407 865 411 844 q 394 810 401 839 q 381 753 388 781 q 367 706 374 726 l 279 415 l 535 415 l 447 706 m 679 -158 q 695 -205 679 -189 q 739 -221 711 -221 q 775 -217 760 -221 q 800 -211 790 -214 l 800 -301 q 763 -310 783 -307 q 715 -314 743 -314 q 605 -278 642 -314 q 568 -178 568 -242 q 585 -103 568 -140 q 632 -35 603 -67 q 696 21 661 -3 l 769 0 q 701 -82 722 -46 q 679 -158 679 -118 z "},"ą":{"ha":724,"x_min":56,"x_max":646,"o":"m 371 763 q 561 699 499 763 q 624 506 624 635 l 624 0 l 519 0 l 494 104 l 490 104 q 431 38 463 64 q 360 -1 400 11 q 267 -14 321 -14 q 155 13 203 -14 q 81 91 107 40 q 56 213 56 142 q 134 387 56 326 q 369 453 213 447 l 483 457 l 483 499 q 451 615 483 581 q 357 650 418 650 q 263 635 310 650 q 171 597 217 621 l 126 700 q 240 746 176 729 q 371 763 303 763 m 396 358 q 245 317 289 354 q 201 214 201 281 q 232 126 201 154 q 311 97 263 97 q 434 147 386 97 q 482 293 482 197 l 482 361 l 396 358 m 525 -158 q 541 -205 525 -189 q 585 -221 557 -221 q 621 -217 606 -221 q 646 -211 636 -214 l 646 -301 q 609 -310 629 -307 q 561 -314 589 -314 q 451 -278 488 -314 q 414 -178 414 -242 q 431 -103 414 -140 q 478 -35 449 -67 q 542 21 507 -3 l 615 0 q 547 -82 568 -46 q 525 -158 525 -118 z "},"Ć":{"ha":790,"x_min":78,"x_max":750,"o":"m 503 879 q 386 851 438 879 q 300 772 335 824 q 247 651 265 721 q 229 494 229 581 q 260 290 229 376 q 353 158 292 204 q 506 113 414 113 q 613 124 561 113 q 715 156 664 136 l 715 29 q 611 -3 665 7 q 488 -14 557 -14 q 261 48 353 -14 q 124 224 169 110 q 78 496 78 339 q 105 700 78 607 q 185 862 132 793 q 319 968 239 931 q 501 1006 399 1006 q 632 990 568 1006 q 750 947 696 975 l 697 826 q 607 863 656 847 q 503 879 558 879 m 694 1293 q 655 1246 679 1274 q 601 1188 631 1218 q 542 1131 571 1158 q 489 1085 513 1104 l 394 1085 l 394 1101 q 442 1167 418 1132 q 490 1240 467 1203 q 528 1307 513 1276 l 694 1307 l 694 1293 z "},"ć":{"ha":615,"x_min":67,"x_max":578,"o":"m 379 -14 q 213 27 283 -14 q 104 153 142 68 q 67 371 67 239 q 106 589 67 501 q 218 719 146 676 q 388 763 290 763 q 494 751 446 763 q 576 721 542 739 l 533 606 q 463 631 500 621 q 390 642 425 642 q 291 611 331 642 q 232 521 251 581 q 213 371 213 461 q 232 226 213 285 q 291 137 251 167 q 388 107 331 107 q 481 119 439 107 q 563 153 524 132 l 563 31 q 481 -3 525 8 q 379 -14 436 -14 m 579 1050 q 540 1003 564 1031 q 485 945 515 975 q 426 888 456 915 q 374 842 397 861 l 279 842 l 279 858 q 327 924 303 889 q 374 997 351 960 q 413 1064 397 1033 l 579 1064 l 579 1050 z "},"Ĉ":{"ha":790,"x_min":78,"x_max":750,"o":"m 503 879 q 386 851 438 879 q 300 772 335 824 q 247 651 265 721 q 229 494 229 581 q 260 290 229 376 q 353 158 292 204 q 506 113 414 113 q 613 124 561 113 q 715 156 664 136 l 715 29 q 611 -3 665 7 q 488 -14 557 -14 q 261 48 353 -14 q 124 224 169 110 q 78 496 78 339 q 105 700 78 607 q 185 862 132 793 q 319 968 239 931 q 501 1006 399 1006 q 632 990 568 1006 q 750 947 696 975 l 697 826 q 607 863 656 847 q 503 879 558 879 m 549 1307 q 592 1239 565 1276 q 650 1165 619 1201 q 706 1100 681 1129 l 706 1085 l 614 1085 q 545 1140 581 1108 q 475 1208 510 1172 q 403 1140 439 1172 q 336 1085 368 1108 l 246 1085 l 246 1100 q 301 1166 271 1129 q 358 1240 331 1203 q 401 1307 386 1278 l 549 1307 z "},"ĉ":{"ha":615,"x_min":67,"x_max":590,"o":"m 379 -14 q 213 27 283 -14 q 104 153 142 68 q 67 371 67 239 q 106 589 67 501 q 218 719 146 676 q 388 763 290 763 q 494 751 446 763 q 576 721 542 739 l 533 606 q 463 631 500 621 q 390 642 425 642 q 291 611 331 642 q 232 521 251 581 q 213 371 213 461 q 232 226 213 285 q 291 137 251 167 q 388 107 331 107 q 481 119 439 107 q 563 153 524 132 l 563 31 q 481 -3 525 8 q 379 -14 436 -14 m 433 1064 q 477 996 450 1033 q 535 922 504 958 q 590 857 565 886 l 590 842 l 499 842 q 430 897 465 865 q 360 965 394 929 q 288 897 324 929 q 221 842 253 865 l 131 842 l 131 857 q 185 923 156 886 q 243 997 215 960 q 286 1064 271 1035 l 433 1064 z "},"Ċ":{"ha":790,"x_min":78,"x_max":750,"o":"m 503 879 q 386 851 438 879 q 300 772 335 824 q 247 651 265 721 q 229 494 229 581 q 260 290 229 376 q 353 158 292 204 q 506 113 414 113 q 613 124 561 113 q 715 156 664 136 l 715 29 q 611 -3 665 7 q 488 -14 557 -14 q 261 48 353 -14 q 124 224 169 110 q 78 496 78 339 q 105 700 78 607 q 185 862 132 793 q 319 968 239 931 q 501 1006 399 1006 q 632 990 568 1006 q 750 947 696 975 l 697 826 q 607 863 656 847 q 503 879 558 879 m 478 1278 q 535 1257 513 1278 q 558 1192 558 1236 q 535 1127 558 1149 q 478 1106 513 1106 q 420 1127 443 1106 q 397 1192 397 1149 q 419 1257 397 1236 q 478 1278 442 1278 z "},"ċ":{"ha":615,"x_min":67,"x_max":576,"o":"m 379 -14 q 213 27 283 -14 q 104 153 142 68 q 67 371 67 239 q 106 589 67 501 q 218 719 146 676 q 388 763 290 763 q 494 751 446 763 q 576 721 542 739 l 533 606 q 463 631 500 621 q 390 642 425 642 q 291 611 331 642 q 232 521 251 581 q 213 371 213 461 q 232 226 213 285 q 291 137 251 167 q 388 107 331 107 q 481 119 439 107 q 563 153 524 132 l 563 31 q 481 -3 525 8 q 379 -14 436 -14 m 363 1035 q 420 1014 397 1035 q 443 949 443 993 q 420 884 443 906 q 363 863 397 863 q 305 884 328 863 q 282 949 282 906 q 304 1014 282 993 q 363 1035 326 1035 z "},"Č":{"ha":790,"x_min":78,"x_max":750,"o":"m 503 879 q 386 851 438 879 q 300 772 335 824 q 247 651 265 721 q 229 494 229 581 q 260 290 229 376 q 353 158 292 204 q 506 113 414 113 q 613 124 561 113 q 715 156 664 136 l 715 29 q 611 -3 665 7 q 488 -14 557 -14 q 261 48 353 -14 q 124 224 169 110 q 78 496 78 339 q 105 700 78 607 q 185 862 132 793 q 319 968 239 931 q 501 1006 399 1006 q 632 990 568 1006 q 750 947 696 975 l 697 826 q 607 863 656 847 q 503 879 558 879 m 401 1085 q 358 1152 385 1115 q 301 1226 331 1189 q 246 1290 271 1263 l 246 1307 l 336 1307 q 406 1251 369 1283 q 475 1182 442 1218 q 545 1251 511 1221 q 614 1307 579 1281 l 706 1307 l 706 1290 q 651 1227 682 1264 q 593 1153 621 1190 q 549 1085 565 1117 l 401 1085 z "},"č":{"ha":615,"x_min":67,"x_max":590,"o":"m 379 -14 q 213 27 283 -14 q 104 153 142 68 q 67 371 67 239 q 106 589 67 501 q 218 719 146 676 q 388 763 290 763 q 494 751 446 763 q 576 721 542 739 l 533 606 q 463 631 500 621 q 390 642 425 642 q 291 611 331 642 q 232 521 251 581 q 213 371 213 461 q 232 226 213 285 q 291 137 251 167 q 388 107 331 107 q 481 119 439 107 q 563 153 524 132 l 563 31 q 481 -3 525 8 q 379 -14 436 -14 m 286 842 q 242 909 269 872 q 185 983 215 946 q 131 1047 156 1019 l 131 1064 l 221 1064 q 290 1008 254 1040 q 360 939 326 975 q 430 1008 396 978 q 499 1064 464 1038 l 590 1064 l 590 1047 q 536 984 567 1021 q 478 910 506 947 q 433 842 450 874 l 286 842 z "},"Ď":{"ha":914,"x_min":119,"x_max":838,"o":"m 838 507 q 783 228 838 340 q 624 58 728 115 q 372 0 521 0 l 119 0 l 119 992 l 394 992 q 631 936 532 992 q 784 774 731 881 q 838 507 838 667 m 685 501 q 651 707 685 626 q 550 827 617 788 q 388 867 483 867 l 265 867 l 265 125 l 367 125 q 606 219 528 125 q 685 501 685 314 m 378 1085 q 334 1152 361 1115 q 277 1226 307 1189 q 222 1290 247 1263 l 222 1307 l 313 1307 q 382 1251 346 1283 q 451 1182 418 1218 q 522 1251 488 1221 q 590 1307 556 1281 l 682 1307 l 682 1290 q 628 1227 658 1264 q 569 1153 597 1190 q 525 1085 542 1117 l 378 1085 z "},"ď":{"ha":786,"x_min":67,"x_max":914,"o":"m 914 1042 q 890 976 906 1014 q 856 901 875 939 q 817 833 836 864 l 735 833 l 735 850 q 747 893 740 867 q 758 949 753 919 q 768 1007 764 979 q 774 1056 772 1035 l 914 1056 l 914 1042 m 338 -14 q 139 85 211 -14 q 67 374 67 183 q 140 663 67 564 q 338 763 213 763 q 424 749 386 763 q 492 711 463 736 q 542 653 521 686 l 549 653 q 544 711 547 678 q 540 771 540 744 l 540 1056 l 682 1056 l 682 0 l 569 0 l 547 96 l 540 96 q 491 39 519 64 q 424 0 463 14 q 338 -14 386 -14 m 372 103 q 503 164 464 103 q 543 347 543 225 l 543 376 q 506 576 543 510 q 369 643 468 643 q 251 572 292 643 q 211 372 211 500 q 251 172 211 242 q 372 103 292 103 z "},"Đ":{"ha":914,"x_min":33,"x_max":836,"o":"m 394 992 q 631 936 532 992 q 783 774 729 881 q 836 507 836 667 q 782 228 836 340 q 624 58 728 115 q 371 0 519 0 l 124 0 l 124 438 l 33 438 l 33 557 l 124 557 l 124 992 l 394 992 m 388 867 l 269 867 l 269 557 l 457 557 l 457 438 l 269 438 l 269 125 l 367 125 q 606 219 528 125 q 685 501 685 314 q 650 707 685 626 q 549 827 615 788 q 388 867 483 867 z "},"đ":{"ha":792,"x_min":67,"x_max":779,"o":"m 338 -14 q 139 83 211 -14 q 67 367 67 181 q 140 651 67 554 q 336 749 213 749 q 424 735 385 749 q 492 696 463 721 q 542 638 521 671 l 549 638 q 543 699 546 664 q 540 757 540 733 l 540 833 l 314 833 l 314 936 l 540 936 l 540 1056 l 682 1056 l 682 936 l 779 936 l 779 833 l 682 833 l 682 0 l 569 0 l 547 97 l 539 97 q 490 39 518 64 q 424 0 461 14 q 338 -14 386 -14 m 372 103 q 503 163 464 103 q 543 344 543 222 l 543 369 q 506 563 543 499 q 369 628 468 628 q 252 560 292 628 q 213 365 213 492 q 252 170 213 238 q 372 103 292 103 z "},"Ē":{"ha":699,"x_min":119,"x_max":624,"o":"m 624 0 l 119 0 l 119 992 l 624 992 l 624 867 l 265 867 l 265 579 l 601 579 l 601 454 l 265 454 l 265 126 l 624 126 l 624 0 m 576 1197 l 576 1089 l 178 1089 l 178 1197 l 576 1197 z "},"ē":{"ha":722,"x_min":67,"x_max":660,"o":"m 372 763 q 528 720 464 763 q 626 603 592 678 q 660 426 660 528 l 660 343 l 210 343 q 264 164 213 225 q 410 103 315 103 q 522 116 471 103 q 626 156 572 129 l 626 36 q 522 -1 575 11 q 400 -14 469 -14 q 221 31 296 -14 q 106 163 146 76 q 67 369 67 249 q 103 583 67 496 q 209 717 140 671 q 372 763 278 763 m 372 651 q 261 600 303 651 q 213 450 219 549 l 521 450 q 505 553 521 508 q 456 625 489 599 q 372 651 424 651 m 564 954 l 564 846 l 165 846 l 165 954 l 564 954 z "},"Ĕ":{"ha":699,"x_min":119,"x_max":624,"o":"m 624 0 l 119 0 l 119 992 l 624 992 l 624 867 l 265 867 l 265 579 l 601 579 l 601 454 l 265 454 l 265 126 l 624 126 l 624 0 m 590 1283 q 560 1179 588 1224 q 486 1110 533 1135 q 375 1085 439 1085 q 224 1138 278 1085 q 167 1283 171 1190 l 253 1283 q 272 1228 256 1247 q 315 1200 288 1208 q 378 1192 342 1192 q 437 1200 410 1192 q 482 1228 464 1208 q 504 1283 500 1249 l 590 1283 z "},"ĕ":{"ha":722,"x_min":67,"x_max":660,"o":"m 372 763 q 528 720 464 763 q 626 603 592 678 q 660 426 660 528 l 660 343 l 210 343 q 264 164 213 225 q 410 103 315 103 q 522 116 471 103 q 626 156 572 129 l 626 36 q 522 -1 575 11 q 400 -14 469 -14 q 221 31 296 -14 q 106 163 146 76 q 67 369 67 249 q 103 583 67 496 q 209 717 140 671 q 372 763 278 763 m 372 651 q 261 600 303 651 q 213 450 219 549 l 521 450 q 505 553 521 508 q 456 625 489 599 q 372 651 424 651 m 576 1040 q 547 936 574 981 q 472 867 519 892 q 361 842 425 842 q 210 894 264 842 q 153 1040 157 947 l 239 1040 q 258 985 242 1004 q 301 957 274 965 q 364 949 328 949 q 423 957 396 949 q 468 985 450 965 q 490 1040 486 1006 l 576 1040 z "},"Ė":{"ha":699,"x_min":119,"x_max":624,"o":"m 624 0 l 119 0 l 119 992 l 624 992 l 624 867 l 265 867 l 265 579 l 601 579 l 601 454 l 265 454 l 265 126 l 624 126 l 624 0 m 381 1278 q 438 1257 415 1278 q 461 1192 461 1236 q 438 1127 461 1149 q 381 1106 415 1106 q 323 1127 346 1106 q 300 1192 300 1149 q 322 1257 300 1236 q 381 1278 344 1278 z "},"ė":{"ha":722,"x_min":67,"x_max":660,"o":"m 372 763 q 528 720 464 763 q 626 603 592 678 q 660 426 660 528 l 660 343 l 210 343 q 264 164 213 225 q 410 103 315 103 q 522 116 471 103 q 626 156 572 129 l 626 36 q 522 -1 575 11 q 400 -14 469 -14 q 221 31 296 -14 q 106 163 146 76 q 67 369 67 249 q 103 583 67 496 q 209 717 140 671 q 372 763 278 763 m 372 651 q 261 600 303 651 q 213 450 219 549 l 521 450 q 505 553 521 508 q 456 625 489 599 q 372 651 424 651 m 367 1035 q 424 1014 401 1035 q 447 949 447 993 q 424 884 447 906 q 367 863 401 863 q 309 884 332 863 q 286 949 286 906 q 308 1014 286 993 q 367 1035 331 1035 z "},"Ę":{"ha":699,"x_min":119,"x_max":624,"o":"m 624 0 l 119 0 l 119 992 l 624 992 l 624 867 l 265 867 l 265 579 l 601 579 l 601 454 l 265 454 l 265 126 l 624 126 l 624 0 m 497 -158 q 513 -205 497 -189 q 557 -221 529 -221 q 593 -217 578 -221 q 618 -211 608 -214 l 618 -301 q 581 -310 601 -307 q 533 -314 561 -314 q 423 -278 460 -314 q 386 -178 386 -242 q 403 -103 386 -140 q 450 -35 421 -67 q 514 21 479 -3 l 588 0 q 519 -82 540 -46 q 497 -158 497 -118 z "},"ę":{"ha":722,"x_min":67,"x_max":660,"o":"m 496 -158 q 512 -204 496 -189 q 556 -219 528 -219 q 592 -216 575 -219 q 618 -210 608 -212 l 618 -301 q 579 -310 600 -307 q 532 -314 558 -314 q 422 -277 458 -314 q 386 -176 386 -240 q 403 -103 386 -139 q 449 -37 421 -68 q 508 14 478 -7 l 626 36 q 549 -41 578 -7 q 508 -103 519 -75 q 496 -158 496 -132 m 372 763 q 528 720 464 763 q 626 603 592 678 q 660 426 660 528 l 660 343 l 210 343 q 264 164 213 225 q 410 103 315 103 q 522 116 471 103 q 626 156 572 129 l 626 36 q 522 -1 575 11 q 400 -14 469 -14 q 221 31 296 -14 q 106 163 146 76 q 67 369 67 249 q 103 583 67 496 q 209 717 140 671 q 372 763 278 763 m 372 651 q 261 600 303 651 q 213 450 219 549 l 521 450 q 505 553 521 508 q 456 625 489 599 q 372 651 424 651 z "},"Ě":{"ha":699,"x_min":119,"x_max":624,"o":"m 624 0 l 119 0 l 119 992 l 624 992 l 624 867 l 265 867 l 265 579 l 601 579 l 601 454 l 265 454 l 265 126 l 624 126 l 624 0 m 304 1085 q 260 1152 288 1115 q 203 1226 233 1189 q 149 1290 174 1263 l 149 1307 l 239 1307 q 308 1251 272 1283 q 378 1182 344 1218 q 448 1251 414 1221 q 517 1307 482 1281 l 608 1307 l 608 1290 q 554 1227 585 1264 q 496 1153 524 1190 q 451 1085 468 1117 l 304 1085 z "},"ě":{"ha":722,"x_min":67,"x_max":660,"o":"m 372 763 q 528 720 464 763 q 626 603 592 678 q 660 426 660 528 l 660 343 l 210 343 q 264 164 213 225 q 410 103 315 103 q 522 116 471 103 q 626 156 572 129 l 626 36 q 522 -1 575 11 q 400 -14 469 -14 q 221 31 296 -14 q 106 163 146 76 q 67 369 67 249 q 103 583 67 496 q 209 717 140 671 q 372 763 278 763 m 372 651 q 261 600 303 651 q 213 450 219 549 l 521 450 q 505 553 521 508 q 456 625 489 599 q 372 651 424 651 m 290 842 q 247 909 274 872 q 190 983 219 946 q 135 1047 160 1019 l 135 1064 l 225 1064 q 294 1008 258 1040 q 364 939 331 975 q 434 1008 400 978 q 503 1064 468 1038 l 594 1064 l 594 1047 q 540 984 571 1021 q 482 910 510 947 q 438 842 454 874 l 290 842 z "},"Ĝ":{"ha":921,"x_min":78,"x_max":828,"o":"m 501 533 l 828 533 l 828 39 q 677 -1 754 13 q 507 -14 600 -14 q 271 49 367 -14 q 126 226 175 111 q 78 497 78 342 q 132 765 78 651 q 290 942 186 879 q 544 1006 394 1006 q 690 990 621 1006 q 817 944 758 974 l 765 822 q 660 864 717 849 q 543 879 603 879 q 373 833 443 879 q 266 701 303 788 q 229 494 229 615 q 260 297 229 383 q 356 161 290 210 q 526 113 421 113 q 615 118 576 113 q 683 132 653 124 l 683 407 l 501 407 l 501 533 m 586 1307 q 630 1239 603 1276 q 688 1165 657 1201 q 743 1100 718 1129 l 743 1085 l 651 1085 q 583 1140 618 1108 q 513 1208 547 1172 q 441 1140 476 1172 q 374 1085 406 1108 l 283 1085 l 283 1100 q 338 1166 308 1129 q 396 1240 368 1203 q 439 1307 424 1278 l 586 1307 z "},"ĝ":{"ha":786,"x_min":67,"x_max":682,"o":"m 338 763 q 454 735 403 763 q 543 651 506 708 l 550 651 l 565 749 l 682 749 l 682 -4 q 647 -185 682 -111 q 539 -296 611 -258 q 354 -333 467 -333 q 224 -322 283 -333 q 114 -287 165 -311 l 114 -161 q 230 -203 168 -189 q 358 -217 292 -217 q 494 -168 446 -217 q 542 -24 542 -119 l 542 0 q 543 50 542 21 q 546 100 544 79 l 540 100 q 454 14 504 42 q 336 -14 404 -14 q 138 87 208 -14 q 67 372 67 188 q 139 660 67 557 q 338 763 211 763 m 369 643 q 283 612 318 643 q 229 520 247 581 q 211 371 211 460 q 251 171 211 238 q 372 104 292 104 q 449 118 417 104 q 503 161 482 132 q 534 236 524 190 q 544 344 544 282 l 544 375 q 526 528 544 469 q 469 615 508 588 q 369 643 431 643 m 463 1064 q 506 996 479 1033 q 564 922 533 958 q 619 857 594 886 l 619 842 l 528 842 q 459 897 494 865 q 389 965 424 929 q 317 897 353 929 q 250 842 282 865 l 160 842 l 160 857 q 215 923 185 886 q 272 997 244 960 q 315 1064 300 1035 l 463 1064 z "},"Ğ":{"ha":921,"x_min":78,"x_max":828,"o":"m 501 533 l 828 533 l 828 39 q 677 -1 754 13 q 507 -14 600 -14 q 271 49 367 -14 q 126 226 175 111 q 78 497 78 342 q 132 765 78 651 q 290 942 186 879 q 544 1006 394 1006 q 690 990 621 1006 q 817 944 758 974 l 765 822 q 660 864 717 849 q 543 879 603 879 q 373 833 443 879 q 266 701 303 788 q 229 494 229 615 q 260 297 229 383 q 356 161 290 210 q 526 113 421 113 q 615 118 576 113 q 683 132 653 124 l 683 407 l 501 407 l 501 533 m 725 1283 q 695 1179 722 1224 q 621 1110 668 1135 q 510 1085 574 1085 q 359 1138 413 1085 q 301 1283 306 1190 l 388 1283 q 406 1228 390 1247 q 449 1200 422 1208 q 513 1192 476 1192 q 572 1200 544 1192 q 617 1228 599 1208 q 639 1283 635 1249 l 725 1283 z "},"ğ":{"ha":786,"x_min":67,"x_max":682,"o":"m 338 763 q 454 735 403 763 q 543 651 506 708 l 550 651 l 565 749 l 682 749 l 682 -4 q 647 -185 682 -111 q 539 -296 611 -258 q 354 -333 467 -333 q 224 -322 283 -333 q 114 -287 165 -311 l 114 -161 q 230 -203 168 -189 q 358 -217 292 -217 q 494 -168 446 -217 q 542 -24 542 -119 l 542 0 q 543 50 542 21 q 546 100 544 79 l 540 100 q 454 14 504 42 q 336 -14 404 -14 q 138 87 208 -14 q 67 372 67 188 q 139 660 67 557 q 338 763 211 763 m 369 643 q 283 612 318 643 q 229 520 247 581 q 211 371 211 460 q 251 171 211 238 q 372 104 292 104 q 449 118 417 104 q 503 161 482 132 q 534 236 524 190 q 544 344 544 282 l 544 375 q 526 528 544 469 q 469 615 508 588 q 369 643 431 643 m 601 1040 q 572 936 599 981 q 497 867 544 892 q 386 842 450 842 q 235 894 289 842 q 178 1040 182 947 l 264 1040 q 283 985 267 1004 q 326 957 299 965 q 389 949 353 949 q 448 957 421 949 q 493 985 475 965 q 515 1040 511 1006 l 601 1040 z "},"Ġ":{"ha":921,"x_min":78,"x_max":828,"o":"m 501 533 l 828 533 l 828 39 q 677 -1 754 13 q 507 -14 600 -14 q 271 49 367 -14 q 126 226 175 111 q 78 497 78 342 q 132 765 78 651 q 290 942 186 879 q 544 1006 394 1006 q 690 990 621 1006 q 817 944 758 974 l 765 822 q 660 864 717 849 q 543 879 603 879 q 373 833 443 879 q 266 701 303 788 q 229 494 229 615 q 260 297 229 383 q 356 161 290 210 q 526 113 421 113 q 615 118 576 113 q 683 132 653 124 l 683 407 l 501 407 l 501 533 m 515 1278 q 573 1257 550 1278 q 596 1192 596 1236 q 573 1127 596 1149 q 515 1106 550 1106 q 458 1127 481 1106 q 435 1192 435 1149 q 457 1257 435 1236 q 515 1278 479 1278 z "},"ġ":{"ha":786,"x_min":67,"x_max":682,"o":"m 338 763 q 454 735 403 763 q 543 651 506 708 l 550 651 l 565 749 l 682 749 l 682 -4 q 647 -185 682 -111 q 539 -296 611 -258 q 354 -333 467 -333 q 224 -322 283 -333 q 114 -287 165 -311 l 114 -161 q 230 -203 168 -189 q 358 -217 292 -217 q 494 -168 446 -217 q 542 -24 542 -119 l 542 0 q 543 50 542 21 q 546 100 544 79 l 540 100 q 454 14 504 42 q 336 -14 404 -14 q 138 87 208 -14 q 67 372 67 188 q 139 660 67 557 q 338 763 211 763 m 369 643 q 283 612 318 643 q 229 520 247 581 q 211 371 211 460 q 251 171 211 238 q 372 104 292 104 q 449 118 417 104 q 503 161 482 132 q 534 236 524 190 q 544 344 544 282 l 544 375 q 526 528 544 469 q 469 615 508 588 q 369 643 431 643 m 392 1035 q 449 1014 426 1035 q 472 949 472 993 q 449 884 472 906 q 392 863 426 863 q 334 884 357 863 q 311 949 311 906 q 333 1014 311 993 q 392 1035 356 1035 z "},"Ģ":{"ha":921,"x_min":78,"x_max":828,"o":"m 501 533 l 828 533 l 828 39 q 677 -1 754 13 q 507 -14 600 -14 q 271 49 367 -14 q 126 226 175 111 q 78 497 78 342 q 132 765 78 651 q 290 942 186 879 q 544 1006 394 1006 q 690 990 621 1006 q 817 944 758 974 l 765 822 q 660 864 717 849 q 543 879 603 879 q 373 833 443 879 q 266 701 303 788 q 229 494 229 615 q 260 297 229 383 q 356 161 290 210 q 526 113 421 113 q 615 118 576 113 q 683 132 653 124 l 683 407 l 501 407 l 501 533 m 603 -99 q 578 -165 594 -128 q 540 -239 561 -201 q 497 -307 519 -276 l 415 -307 l 415 -290 q 435 -228 425 -265 q 453 -153 444 -192 q 464 -85 461 -114 l 603 -85 l 603 -99 z "},"ģ":{"ha":786,"x_min":67,"x_max":682,"o":"m 481 1047 q 460 984 471 1021 q 441 909 450 947 q 429 842 432 871 l 290 842 l 290 856 q 316 922 300 885 q 353 996 332 958 q 399 1064 375 1033 l 481 1064 l 481 1047 m 338 763 q 454 735 403 763 q 543 651 506 708 l 550 651 l 565 749 l 682 749 l 682 -4 q 647 -185 682 -111 q 539 -296 611 -258 q 354 -333 467 -333 q 224 -322 283 -333 q 114 -287 165 -311 l 114 -161 q 230 -203 168 -189 q 358 -217 292 -217 q 494 -168 446 -217 q 542 -24 542 -119 l 542 0 q 543 50 542 21 q 546 100 544 79 l 540 100 q 454 14 504 42 q 336 -14 404 -14 q 138 87 208 -14 q 67 372 67 188 q 139 660 67 557 q 338 763 211 763 m 369 643 q 283 612 318 643 q 229 520 247 581 q 211 371 211 460 q 251 171 211 238 q 372 104 292 104 q 449 118 417 104 q 503 161 482 132 q 534 236 524 190 q 544 344 544 282 l 544 375 q 526 528 544 469 q 469 615 508 588 q 369 643 431 643 z "},"Ĥ":{"ha":936,"x_min":119,"x_max":817,"o":"m 817 0 l 671 0 l 671 454 l 265 454 l 265 0 l 119 0 l 119 992 l 265 992 l 265 581 l 671 581 l 671 992 l 817 992 l 817 0 m 542 1307 q 585 1239 558 1276 q 643 1165 613 1201 q 699 1100 674 1129 l 699 1085 l 607 1085 q 538 1140 574 1108 q 468 1208 503 1172 q 397 1140 432 1172 q 329 1085 361 1108 l 239 1085 l 239 1100 q 294 1166 264 1129 q 351 1240 324 1203 q 394 1307 379 1278 l 542 1307 z "},"ĥ":{"ha":793,"x_min":-53,"x_max":692,"o":"m 247 775 q 244 707 247 740 q 238 649 242 674 l 247 649 q 299 711 268 686 q 369 749 331 736 q 451 763 408 763 q 584 733 531 763 q 665 645 638 704 q 692 493 692 586 l 692 0 l 551 0 l 551 469 q 520 601 551 558 q 421 643 489 643 q 317 613 356 643 q 263 524 279 583 q 247 378 247 465 l 247 0 l 104 0 l 104 1056 l 247 1056 l 247 775 m 250 1371 q 294 1303 267 1340 q 351 1229 321 1265 q 407 1164 382 1193 l 407 1149 l 315 1149 q 247 1204 282 1172 q 176 1272 211 1236 q 105 1204 140 1236 q 38 1149 69 1172 l -53 1149 l -53 1164 q 2 1230 -28 1193 q 60 1304 32 1267 q 103 1371 88 1342 l 250 1371 z "},"Ħ":{"ha":936,"x_min":-1,"x_max":936,"o":"m 119 0 l 119 729 l -1 729 l -1 836 l 119 836 l 119 992 l 265 992 l 265 836 l 671 836 l 671 992 l 817 992 l 817 836 l 936 836 l 936 729 l 817 729 l 817 0 l 671 0 l 671 453 l 265 453 l 265 0 l 119 0 m 265 581 l 671 581 l 671 729 l 265 729 l 265 581 z "},"ħ":{"ha":793,"x_min":8,"x_max":692,"o":"m 247 1056 l 247 935 l 474 935 l 474 832 l 247 832 l 247 743 q 244 680 247 711 q 238 624 242 649 l 247 624 q 299 688 268 663 q 369 725 329 713 q 451 738 408 738 q 584 709 531 738 q 665 621 638 681 q 692 468 692 561 l 692 0 l 551 0 l 551 444 q 520 575 551 533 q 421 617 489 617 q 317 588 356 617 q 263 501 279 560 q 246 354 246 443 l 246 0 l 104 0 l 104 832 l 8 832 l 8 935 l 104 935 l 104 1056 l 247 1056 z "},"Ĩ":{"ha":461,"x_min":-12,"x_max":476,"o":"m 411 0 l 50 0 l 50 83 l 157 115 l 157 875 l 50 908 l 50 992 l 411 992 l 411 908 l 303 875 l 303 115 l 411 83 l 411 0 m -12 1083 q 2 1158 -8 1125 q 31 1217 13 1192 q 74 1255 49 1242 q 133 1268 100 1268 q 188 1257 161 1268 q 239 1231 214 1246 q 288 1203 264 1215 q 332 1192 311 1192 q 374 1212 358 1192 q 397 1269 389 1232 l 475 1269 q 429 1133 468 1182 q 331 1085 390 1085 q 276 1097 303 1085 q 224 1124 250 1108 q 176 1151 199 1139 q 132 1163 153 1163 q 91 1142 107 1163 q 67 1083 75 1122 l -12 1083 z "},"ĩ":{"ha":351,"x_min":-68,"x_max":421,"o":"m 247 0 l 104 0 l 104 749 l 247 749 l 247 0 m -68 840 q -53 915 -64 882 q -25 974 -43 949 q 19 1012 -7 999 q 78 1025 44 1025 q 132 1014 106 1025 q 183 988 158 1003 q 232 960 208 972 q 276 949 256 949 q 318 969 303 949 q 342 1026 333 989 l 419 1026 q 374 890 413 939 q 275 842 335 842 q 221 853 247 842 q 169 881 194 865 q 120 908 143 896 q 76 919 97 919 q 35 899 51 919 q 11 840 19 879 l -68 840 z "},"Ī":{"ha":461,"x_min":31,"x_max":431,"o":"m 411 0 l 50 0 l 50 83 l 157 115 l 157 875 l 50 908 l 50 992 l 411 992 l 411 908 l 303 875 l 303 115 l 411 83 l 411 0 m 429 1197 l 429 1089 l 31 1089 l 31 1197 l 429 1197 z "},"ī":{"ha":351,"x_min":-25,"x_max":375,"o":"m 247 0 l 104 0 l 104 749 l 247 749 l 247 0 m 374 954 l 374 846 l -25 846 l -25 954 l 374 954 z "},"Ĭ":{"ha":461,"x_min":19,"x_max":443,"o":"m 411 0 l 50 0 l 50 83 l 157 115 l 157 875 l 50 908 l 50 992 l 411 992 l 411 908 l 303 875 l 303 115 l 411 83 l 411 0 m 443 1283 q 413 1179 440 1224 q 339 1110 386 1135 q 228 1085 292 1085 q 77 1138 131 1085 q 19 1283 24 1190 l 106 1283 q 124 1228 108 1247 q 167 1200 140 1208 q 231 1192 194 1192 q 290 1200 263 1192 q 335 1228 317 1208 q 357 1283 353 1249 l 443 1283 z "},"ĭ":{"ha":351,"x_min":-36,"x_max":388,"o":"m 247 0 l 104 0 l 104 749 l 247 749 l 247 0 m 388 1040 q 358 936 385 981 q 283 867 331 892 q 172 842 236 842 q 22 894 75 842 q -36 1040 -32 947 l 50 1040 q 69 985 53 1004 q 112 957 85 965 q 175 949 139 949 q 234 957 207 949 q 279 985 261 965 q 301 1040 297 1006 l 388 1040 z "},"Į":{"ha":461,"x_min":50,"x_max":411,"o":"m 411 0 l 50 0 l 50 83 l 157 115 l 157 875 l 50 908 l 50 992 l 411 992 l 411 908 l 303 875 l 303 115 l 411 83 l 411 0 m 285 -158 q 301 -205 285 -189 q 344 -221 317 -221 q 381 -217 365 -221 q 406 -211 396 -214 l 406 -301 q 369 -310 389 -307 q 321 -314 349 -314 q 210 -278 247 -314 q 174 -178 174 -242 q 191 -103 174 -140 q 238 -35 208 -67 q 301 21 267 -3 l 375 0 q 306 -82 328 -46 q 285 -158 285 -118 z "},"į":{"ha":351,"x_min":33,"x_max":265,"o":"m 247 749 l 247 0 l 104 0 l 104 749 l 247 749 m 176 1035 q 235 1014 213 1035 q 257 949 257 993 q 234 884 257 906 q 176 863 211 863 q 119 884 142 863 q 96 949 96 906 q 118 1014 96 993 q 176 1035 140 1035 m 144 -158 q 160 -205 144 -189 q 204 -221 176 -221 q 240 -217 225 -221 q 265 -211 256 -214 l 265 -301 q 228 -310 249 -307 q 181 -314 208 -314 q 70 -278 107 -314 q 33 -178 33 -242 q 51 -103 33 -140 q 97 -35 68 -67 q 161 21 126 -3 l 235 0 q 166 -82 188 -46 q 144 -158 144 -118 z "},"İ":{"ha":461,"x_min":50,"x_max":411,"o":"m 411 0 l 50 0 l 50 83 l 157 115 l 157 875 l 50 908 l 50 992 l 411 992 l 411 908 l 303 875 l 303 115 l 411 83 l 411 0 m 233 1278 q 291 1257 268 1278 q 314 1192 314 1236 q 291 1127 314 1149 q 233 1106 268 1106 q 176 1127 199 1106 q 153 1192 153 1149 q 175 1257 153 1236 q 233 1278 197 1278 z "},"Ĳ":{"ha":831,"x_min":50,"x_max":715,"o":"m 411 0 l 50 0 l 50 83 l 157 115 l 157 875 l 50 908 l 50 992 l 411 992 l 411 908 l 303 875 l 303 115 l 411 83 l 411 0 m 464 -274 q 406 -269 432 -274 q 361 -257 381 -265 l 361 -132 q 403 -142 381 -137 q 451 -146 426 -146 q 513 -131 486 -146 q 554 -80 539 -117 q 569 21 569 -43 l 569 992 l 715 992 l 715 24 q 685 -147 715 -82 q 598 -243 654 -212 q 464 -274 542 -274 z "},"ĳ":{"ha":703,"x_min":96,"x_max":608,"o":"m 247 749 l 247 0 l 104 0 l 104 749 l 247 749 m 176 1035 q 235 1014 213 1035 q 257 949 257 993 q 234 884 257 906 q 176 863 211 863 q 119 884 142 863 q 96 949 96 906 q 118 1014 96 993 q 176 1035 140 1035 m 393 -333 q 338 -329 364 -333 q 292 -318 311 -325 l 292 -201 q 330 -210 311 -207 q 369 -214 349 -214 q 432 -188 408 -214 q 456 -99 456 -162 l 456 749 l 599 749 l 599 -103 q 576 -228 599 -176 q 509 -306 554 -279 q 393 -333 464 -333 m 447 949 q 469 1014 447 993 q 528 1035 492 1035 q 586 1014 564 1035 q 608 949 608 993 q 585 884 608 906 q 528 863 563 863 q 470 884 493 863 q 447 949 447 906 z "},"Ĵ":{"ha":375,"x_min":-93,"x_max":418,"o":"m 10 -274 q -48 -269 -22 -274 q -93 -257 -74 -265 l -93 -132 q -51 -142 -74 -137 q -3 -146 -28 -146 q 58 -131 32 -146 q 100 -80 85 -117 q 115 21 115 -43 l 115 992 l 261 992 l 261 24 q 231 -147 261 -82 q 144 -243 200 -212 q 10 -274 88 -274 m 261 1307 q 305 1239 278 1276 q 363 1165 332 1201 q 418 1100 393 1129 l 418 1085 l 326 1085 q 258 1140 293 1108 q 188 1208 222 1172 q 116 1140 151 1172 q 49 1085 81 1108 l -42 1085 l -42 1100 q 13 1166 -17 1129 q 71 1240 43 1203 q 114 1307 99 1278 l 261 1307 z "},"ĵ":{"ha":351,"x_min":-60,"x_max":406,"o":"m 42 -333 q -15 -329 13 -333 q -60 -318 -42 -325 l -60 -201 q -22 -210 -40 -207 q 18 -214 -3 -214 q 81 -189 57 -214 q 104 -100 104 -164 l 104 749 l 247 749 l 247 -103 q 225 -226 247 -175 q 158 -306 203 -278 q 42 -333 113 -333 m 249 1064 q 292 996 265 1033 q 350 922 319 958 q 406 857 381 886 l 406 842 l 314 842 q 245 897 281 865 q 175 965 210 929 q 103 897 139 929 q 36 842 68 865 l -54 842 l -54 857 q 1 923 -29 886 q 58 997 31 960 q 101 1064 86 1035 l 249 1064 z "},"Ķ":{"ha":793,"x_min":119,"x_max":796,"o":"m 796 0 l 629 0 l 351 451 l 265 372 l 265 0 l 119 0 l 119 992 l 265 992 l 265 511 q 320 584 290 544 q 383 668 350 624 l 622 992 l 785 992 l 456 556 l 796 0 m 521 -99 q 496 -165 513 -128 q 458 -239 479 -201 q 415 -307 438 -276 l 333 -307 l 333 -290 q 353 -228 343 -265 q 371 -153 363 -192 q 382 -85 379 -114 l 521 -85 l 521 -99 z "},"ķ":{"ha":707,"x_min":104,"x_max":700,"o":"m 246 536 q 244 465 246 503 q 239 392 242 426 l 243 392 q 266 426 253 407 q 293 463 279 444 q 318 496 307 482 l 524 749 l 683 749 l 424 438 l 700 0 l 536 0 l 328 342 l 246 264 l 246 0 l 104 0 l 104 1056 l 246 1056 l 246 536 m 454 -99 q 429 -165 446 -128 q 392 -239 413 -201 q 349 -307 371 -276 l 267 -307 l 267 -290 q 286 -228 276 -265 q 304 -153 296 -192 q 315 -85 313 -114 l 454 -85 l 454 -99 z "},"ĸ":{"ha":707,"x_min":104,"x_max":700,"o":"m 682 749 l 432 429 l 700 0 l 538 0 l 336 333 l 250 257 l 250 0 l 104 0 l 104 749 l 250 749 l 250 553 q 248 458 250 504 q 243 379 246 413 l 246 379 q 275 422 260 400 q 303 461 290 443 l 522 749 l 682 749 z "},"Ĺ":{"ha":665,"x_min":110,"x_max":633,"o":"m 119 0 l 119 992 l 265 992 l 265 128 l 633 128 l 633 0 l 119 0 m 410 1293 q 370 1246 394 1274 q 316 1188 346 1218 q 257 1131 286 1158 q 204 1085 228 1104 l 110 1085 l 110 1101 q 158 1167 133 1132 q 205 1240 182 1203 q 243 1307 228 1276 l 410 1307 l 410 1293 z "},"ĺ":{"ha":351,"x_min":94,"x_max":394,"o":"m 247 0 l 104 0 l 104 1056 l 247 1056 l 247 0 m 394 1357 q 355 1310 379 1338 q 301 1252 331 1282 q 242 1195 271 1222 q 189 1149 213 1168 l 94 1149 l 94 1165 q 142 1231 118 1196 q 190 1303 167 1267 q 228 1371 213 1340 l 394 1371 l 394 1357 z "},"Ļ":{"ha":665,"x_min":119,"x_max":633,"o":"m 119 0 l 119 992 l 265 992 l 265 128 l 633 128 l 633 0 l 119 0 m 472 -99 q 447 -165 464 -128 q 410 -239 431 -201 q 367 -307 389 -276 l 285 -307 l 285 -290 q 304 -228 294 -265 q 322 -153 314 -192 q 333 -85 331 -114 l 472 -85 l 472 -99 z "},"ļ":{"ha":351,"x_min":83,"x_max":269,"o":"m 247 0 l 104 0 l 104 1056 l 247 1056 l 247 0 m 269 -99 q 244 -165 261 -128 q 207 -239 228 -201 q 164 -307 186 -276 l 82 -307 l 82 -290 q 101 -228 92 -265 q 119 -153 111 -192 q 131 -85 128 -114 l 269 -85 l 269 -99 z "},"Ľ":{"ha":665,"x_min":119,"x_max":654,"o":"m 654 978 q 631 913 647 950 q 596 837 615 875 q 557 769 576 799 l 475 769 l 475 786 q 487 829 481 803 q 499 885 493 856 q 508 943 504 915 q 515 992 513 971 l 654 992 l 654 978 m 119 0 l 119 992 l 265 992 l 265 128 l 633 128 l 633 0 l 119 0 z "},"ľ":{"ha":351,"x_min":104,"x_max":478,"o":"m 478 1042 q 455 976 471 1014 q 419 901 439 939 q 381 833 400 864 l 300 833 l 300 850 q 310 893 304 867 q 322 949 317 919 q 333 1007 328 979 q 339 1056 338 1035 l 478 1056 l 478 1042 m 247 0 l 104 0 l 104 1056 l 247 1056 l 247 0 z "},"Ŀ":{"ha":665,"x_min":119,"x_max":633,"o":"m 119 0 l 119 992 l 265 992 l 265 128 l 633 128 l 633 0 l 119 0 m 510 608 q 567 588 544 608 q 590 522 590 567 q 567 458 590 479 q 510 436 544 436 q 452 458 475 436 q 429 522 429 479 q 451 588 429 567 q 510 608 474 608 z "},"ŀ":{"ha":408,"x_min":104,"x_max":460,"o":"m 247 0 l 104 0 l 104 1056 l 247 1056 l 247 0 m 379 621 q 437 600 414 621 q 460 535 460 579 q 437 470 460 492 q 379 449 414 449 q 322 470 344 449 q 299 535 299 492 q 321 600 299 579 q 379 621 343 621 z "},"Ł":{"ha":671,"x_min":3,"x_max":638,"o":"m 124 0 l 124 339 l 63 301 l 3 396 l 124 474 l 124 992 l 269 992 l 269 565 l 425 660 l 485 564 l 269 432 l 269 128 l 638 128 l 638 0 l 124 0 z "},"ł":{"ha":364,"x_min":-19,"x_max":385,"o":"m 107 0 l 107 383 l 40 339 l -19 432 l 107 519 l 107 1056 l 249 1056 l 249 614 l 322 665 l 385 574 l 249 478 l 249 0 l 107 0 z "},"Ń":{"ha":981,"x_min":119,"x_max":861,"o":"m 861 0 l 685 0 l 249 792 l 243 792 q 248 712 246 754 q 252 627 250 669 q 254 542 254 585 l 254 0 l 119 0 l 119 992 l 294 992 l 729 207 l 735 207 q 731 283 733 242 q 728 369 729 325 q 725 451 726 414 l 725 992 l 861 992 l 861 0 m 708 1293 q 669 1246 693 1274 q 615 1188 644 1218 q 556 1131 585 1158 q 503 1085 526 1104 l 408 1085 l 408 1101 q 456 1167 432 1132 q 503 1240 481 1203 q 542 1307 526 1276 l 708 1307 l 708 1293 z "},"ń":{"ha":793,"x_min":104,"x_max":692,"o":"m 453 763 q 631 698 569 763 q 692 494 692 633 l 692 0 l 551 0 l 551 469 q 520 599 551 556 q 421 643 489 643 q 285 577 324 643 q 247 379 247 511 l 247 0 l 104 0 l 104 749 l 217 749 l 236 649 l 244 649 q 298 713 265 688 q 370 750 331 738 q 453 763 410 763 m 619 1050 q 580 1003 604 1031 q 526 945 556 975 q 467 888 496 915 q 414 842 438 861 l 319 842 l 319 858 q 367 924 343 889 q 415 997 392 960 q 453 1064 438 1033 l 619 1064 l 619 1050 z "},"Ņ":{"ha":981,"x_min":119,"x_max":861,"o":"m 861 0 l 685 0 l 249 792 l 243 792 q 248 712 246 754 q 252 627 250 669 q 254 542 254 585 l 254 0 l 119 0 l 119 992 l 294 992 l 729 207 l 735 207 q 731 283 733 242 q 728 369 729 325 q 725 451 726 414 l 725 992 l 861 992 l 861 0 m 583 -99 q 558 -165 575 -128 q 521 -239 542 -201 q 478 -307 500 -276 l 396 -307 l 396 -290 q 415 -228 406 -265 q 433 -153 425 -192 q 444 -85 442 -114 l 583 -85 l 583 -99 z "},"ņ":{"ha":793,"x_min":104,"x_max":692,"o":"m 453 763 q 631 698 569 763 q 692 494 692 633 l 692 0 l 551 0 l 551 469 q 520 599 551 556 q 421 643 489 643 q 285 577 324 643 q 247 379 247 511 l 247 0 l 104 0 l 104 749 l 217 749 l 236 649 l 244 649 q 298 713 265 688 q 370 750 331 738 q 453 763 410 763 m 490 -99 q 465 -165 482 -128 q 428 -239 449 -201 q 385 -307 407 -276 l 303 -307 l 303 -290 q 322 -228 313 -265 q 340 -153 332 -192 q 351 -85 349 -114 l 490 -85 l 490 -99 z "},"Ň":{"ha":981,"x_min":119,"x_max":861,"o":"m 861 0 l 685 0 l 249 792 l 243 792 q 248 712 246 754 q 252 627 250 669 q 254 542 254 585 l 254 0 l 119 0 l 119 992 l 294 992 l 729 207 l 735 207 q 731 283 733 242 q 728 369 729 325 q 725 451 726 414 l 725 992 l 861 992 l 861 0 m 415 1085 q 372 1152 399 1115 q 315 1226 344 1189 q 260 1290 285 1263 l 260 1307 l 350 1307 q 419 1251 383 1283 q 489 1182 456 1218 q 559 1251 525 1221 q 628 1307 593 1281 l 719 1307 l 719 1290 q 665 1227 696 1264 q 607 1153 635 1190 q 563 1085 579 1117 l 415 1085 z "},"ň":{"ha":793,"x_min":104,"x_max":692,"o":"m 453 763 q 631 698 569 763 q 692 494 692 633 l 692 0 l 551 0 l 551 469 q 520 599 551 556 q 421 643 489 643 q 285 577 324 643 q 247 379 247 511 l 247 0 l 104 0 l 104 749 l 217 749 l 236 649 l 244 649 q 298 713 265 688 q 370 750 331 738 q 453 763 410 763 m 326 842 q 283 909 310 872 q 226 983 256 946 q 171 1047 196 1019 l 171 1064 l 261 1064 q 331 1008 294 1040 q 400 939 367 975 q 470 1008 436 978 q 539 1064 504 1038 l 631 1064 l 631 1047 q 576 984 607 1021 q 518 910 546 947 q 474 842 490 874 l 326 842 z "},"ŉ":{"ha":907,"x_min":1,"x_max":807,"o":"m 568 763 q 746 698 685 763 q 807 494 807 633 l 807 0 l 667 0 l 667 469 q 635 599 667 556 q 536 643 604 643 q 401 577 439 643 q 363 379 363 511 l 363 0 l 219 0 l 219 749 l 332 749 l 351 649 l 360 649 q 413 713 381 688 q 485 750 446 738 q 568 763 525 763 m 222 976 q 192 867 210 924 q 152 754 174 810 q 108 647 131 699 l 3 647 q 22 733 13 688 q 41 824 32 778 q 57 913 50 869 q 68 992 64 956 l 213 992 l 222 976 z "},"Ŋ":{"ha":981,"x_min":119,"x_max":861,"o":"m 611 -274 q 551 -269 578 -274 q 504 -257 525 -265 l 504 -135 q 549 -144 525 -140 q 601 -149 574 -149 q 667 -134 639 -149 q 710 -87 694 -119 q 726 1 726 -54 l 249 797 l 243 797 q 248 717 246 763 q 252 626 250 672 q 254 539 254 581 l 254 0 l 119 0 l 119 992 l 294 992 l 729 264 l 735 264 q 730 343 732 300 q 726 431 728 386 q 725 514 725 475 l 725 992 l 861 992 l 861 8 q 831 -150 861 -87 q 746 -243 801 -212 q 611 -274 690 -274 z "},"ŋ":{"ha":793,"x_min":104,"x_max":693,"o":"m 496 -333 q 444 -329 468 -333 q 401 -318 419 -325 l 401 -201 q 435 -210 418 -207 q 472 -214 453 -214 q 529 -188 507 -214 q 551 -99 551 -162 l 551 472 q 519 599 551 557 q 421 642 488 642 q 318 613 357 642 q 263 527 279 585 q 247 379 247 469 l 247 0 l 104 0 l 104 749 l 217 749 l 236 649 l 244 649 q 298 712 267 686 q 369 750 329 738 q 453 763 408 763 q 587 733 533 763 q 667 642 640 703 q 693 489 693 581 l 693 -103 q 672 -224 693 -172 q 608 -305 651 -276 q 496 -333 565 -333 z "},"Ō":{"ha":978,"x_min":78,"x_max":900,"o":"m 900 497 q 875 290 900 383 q 799 128 850 196 q 672 23 749 60 q 489 -14 594 -14 q 306 24 383 -14 q 177 129 228 61 q 102 292 126 197 q 78 499 78 386 q 123 771 78 657 q 260 946 168 885 q 490 1007 351 1007 q 720 942 629 1007 q 856 763 811 878 q 900 497 900 649 m 231 497 q 258 290 231 375 q 344 159 286 204 q 489 114 401 114 q 635 158 578 114 q 719 289 692 203 q 747 497 747 375 q 685 780 747 681 q 490 879 624 879 q 344 835 401 879 q 258 705 286 790 q 231 497 231 619 m 688 1197 l 688 1089 l 289 1089 l 289 1197 l 688 1197 z "},"ō":{"ha":769,"x_min":67,"x_max":703,"o":"m 703 376 q 682 213 703 285 q 620 91 661 142 q 519 13 579 40 q 382 -14 460 -14 q 253 13 311 -14 q 153 91 194 40 q 89 213 111 142 q 67 376 67 285 q 103 585 67 499 q 212 717 140 671 q 386 763 283 763 q 553 718 482 763 q 663 588 624 674 q 703 376 703 501 m 211 375 q 230 228 211 289 q 287 136 249 168 q 385 104 325 104 q 484 136 446 104 q 540 228 522 168 q 558 375 558 289 q 540 522 558 463 q 483 613 521 582 q 385 644 444 644 q 252 575 293 644 q 211 375 211 506 m 583 954 l 583 846 l 185 846 l 185 954 l 583 954 z "},"Ŏ":{"ha":978,"x_min":78,"x_max":900,"o":"m 900 497 q 875 290 900 383 q 799 128 850 196 q 672 23 749 60 q 489 -14 594 -14 q 306 24 383 -14 q 177 129 228 61 q 102 292 126 197 q 78 499 78 386 q 123 771 78 657 q 260 946 168 885 q 490 1007 351 1007 q 720 942 629 1007 q 856 763 811 878 q 900 497 900 649 m 231 497 q 258 290 231 375 q 344 159 286 204 q 489 114 401 114 q 635 158 578 114 q 719 289 692 203 q 747 497 747 375 q 685 780 747 681 q 490 879 624 879 q 344 835 401 879 q 258 705 286 790 q 231 497 231 619 m 700 1283 q 670 1179 697 1224 q 596 1110 643 1135 q 485 1085 549 1085 q 334 1138 388 1085 q 276 1283 281 1190 l 363 1283 q 381 1228 365 1247 q 424 1200 397 1208 q 488 1192 451 1192 q 547 1200 519 1192 q 592 1228 574 1208 q 614 1283 610 1249 l 700 1283 z "},"ŏ":{"ha":769,"x_min":67,"x_max":703,"o":"m 703 376 q 682 213 703 285 q 620 91 661 142 q 519 13 579 40 q 382 -14 460 -14 q 253 13 311 -14 q 153 91 194 40 q 89 213 111 142 q 67 376 67 285 q 103 585 67 499 q 212 717 140 671 q 386 763 283 763 q 553 718 482 763 q 663 588 624 674 q 703 376 703 501 m 211 375 q 230 228 211 289 q 287 136 249 168 q 385 104 325 104 q 484 136 446 104 q 540 228 522 168 q 558 375 558 289 q 540 522 558 463 q 483 613 521 582 q 385 644 444 644 q 252 575 293 644 q 211 375 211 506 m 596 1040 q 566 936 593 981 q 492 867 539 892 q 381 842 444 842 q 230 894 283 842 q 172 1040 176 947 l 258 1040 q 277 985 261 1004 q 320 957 293 965 q 383 949 347 949 q 442 957 415 949 q 488 985 469 965 q 510 1040 506 1006 l 596 1040 z "},"Ő":{"ha":978,"x_min":78,"x_max":900,"o":"m 900 497 q 875 290 900 383 q 799 128 850 196 q 672 23 749 60 q 489 -14 594 -14 q 306 24 383 -14 q 177 129 228 61 q 102 292 126 197 q 78 499 78 386 q 123 771 78 657 q 260 946 168 885 q 490 1007 351 1007 q 720 942 629 1007 q 856 763 811 878 q 900 497 900 649 m 231 497 q 258 290 231 375 q 344 159 286 204 q 489 114 401 114 q 635 158 578 114 q 719 289 692 203 q 747 497 747 375 q 685 780 747 681 q 490 879 624 879 q 344 835 401 879 q 258 705 286 790 q 231 497 231 619 m 739 1293 q 706 1246 728 1274 q 657 1188 685 1218 q 601 1131 629 1157 q 551 1085 574 1104 l 475 1085 l 475 1101 q 517 1168 494 1131 q 560 1243 540 1206 q 593 1307 581 1281 l 739 1307 l 739 1293 m 503 1293 q 470 1246 492 1274 q 422 1188 449 1218 q 367 1132 394 1158 q 314 1085 339 1106 l 239 1085 l 239 1101 q 282 1169 260 1132 q 324 1243 304 1206 q 357 1307 343 1281 l 503 1307 l 503 1293 z "},"ő":{"ha":769,"x_min":67,"x_max":703,"o":"m 703 376 q 682 213 703 285 q 620 91 661 142 q 519 13 579 40 q 382 -14 460 -14 q 253 13 311 -14 q 153 91 194 40 q 89 213 111 142 q 67 376 67 285 q 103 585 67 499 q 212 717 140 671 q 386 763 283 763 q 553 718 482 763 q 663 588 624 674 q 703 376 703 501 m 211 375 q 230 228 211 289 q 287 136 249 168 q 385 104 325 104 q 484 136 446 104 q 540 228 522 168 q 558 375 558 289 q 540 522 558 463 q 483 613 521 582 q 385 644 444 644 q 252 575 293 644 q 211 375 211 506 m 635 1050 q 602 1003 624 1031 q 553 944 581 975 q 497 888 525 914 q 447 842 469 861 l 371 842 l 371 858 q 413 925 390 888 q 456 1000 436 963 q 489 1064 476 1038 l 635 1064 l 635 1050 m 399 1050 q 366 1003 388 1031 q 317 945 344 975 q 263 889 290 915 q 210 842 235 863 l 135 842 l 135 858 q 178 926 156 889 q 219 1000 200 963 q 253 1064 239 1038 l 399 1064 l 399 1050 z "},"Œ":{"ha":1167,"x_min":78,"x_max":1092,"o":"m 488 1004 q 551 1001 519 1004 q 608 992 582 997 l 1092 992 l 1092 867 l 743 867 l 743 579 l 1068 579 l 1068 454 l 743 454 l 743 126 l 1092 126 l 1092 0 l 611 0 q 553 -8 585 -4 q 490 -11 522 -11 q 258 51 350 -11 q 122 228 167 114 q 78 499 78 343 q 122 767 78 654 q 258 942 167 881 q 488 1004 349 1004 m 494 878 q 373 851 424 878 q 291 775 322 825 q 244 656 260 725 q 229 497 229 586 q 256 294 229 379 q 342 162 283 208 q 494 115 401 115 q 551 120 524 115 q 599 132 578 125 l 599 860 q 551 873 578 868 q 494 878 524 878 z "},"œ":{"ha":1201,"x_min":65,"x_max":1138,"o":"m 851 763 q 1007 720 943 763 q 1104 602 1071 678 q 1138 426 1138 526 l 1138 343 l 692 343 q 744 161 694 221 q 888 101 794 101 q 1000 115 950 101 q 1104 154 1050 128 l 1104 36 q 1001 -1 1053 11 q 881 -14 949 -14 q 731 20 796 -14 q 624 121 665 54 q 523 20 585 54 q 379 -14 461 -14 q 215 33 285 -14 q 105 166 144 79 q 65 376 65 253 q 102 585 65 499 q 210 717 139 671 q 382 763 281 763 q 520 728 460 763 q 619 629 581 694 q 680 703 646 674 q 757 747 714 732 q 851 763 800 763 m 379 644 q 251 577 290 644 q 211 375 211 510 q 229 226 211 286 q 285 135 247 165 q 382 104 322 104 q 477 134 440 104 q 532 224 514 164 q 550 374 550 285 q 532 524 550 464 q 476 614 514 583 q 379 644 439 644 m 851 650 q 742 600 782 650 q 694 450 701 550 l 999 450 q 983 553 999 508 q 934 624 967 599 q 851 650 901 650 z "},"Ŕ":{"ha":800,"x_min":119,"x_max":785,"o":"m 365 992 q 561 960 485 992 q 675 866 638 929 q 713 707 713 803 q 690 584 713 636 q 626 497 667 532 q 535 442 586 463 l 785 0 l 621 0 l 406 403 l 265 403 l 265 0 l 119 0 l 119 992 l 365 992 m 360 867 l 265 867 l 265 524 l 368 524 q 516 568 468 524 q 564 701 564 613 q 542 797 564 761 q 475 849 519 832 q 360 867 431 867 m 622 1293 q 583 1246 607 1274 q 528 1188 558 1218 q 469 1131 499 1158 q 417 1085 440 1104 l 322 1085 l 322 1101 q 370 1167 346 1132 q 417 1240 394 1203 q 456 1307 440 1276 l 622 1307 l 622 1293 z "},"ŕ":{"ha":535,"x_min":104,"x_max":525,"o":"m 440 763 q 479 761 458 763 q 517 754 500 760 l 500 617 q 467 624 486 621 q 432 626 449 626 q 360 610 394 626 q 301 563 326 593 q 261 490 275 533 q 247 392 247 446 l 247 0 l 104 0 l 104 749 l 217 749 l 235 618 l 242 618 q 292 692 263 658 q 358 744 321 725 q 440 763 396 763 m 526 1050 q 487 1003 511 1031 q 433 945 463 975 q 374 888 403 915 q 321 842 344 861 l 226 842 l 226 858 q 274 924 250 889 q 322 997 299 960 q 360 1064 344 1033 l 526 1064 l 526 1050 z "},"Ŗ":{"ha":800,"x_min":119,"x_max":785,"o":"m 365 992 q 561 960 485 992 q 675 866 638 929 q 713 707 713 803 q 690 584 713 636 q 626 497 667 532 q 535 442 586 463 l 785 0 l 621 0 l 406 403 l 265 403 l 265 0 l 119 0 l 119 992 l 365 992 m 360 867 l 265 867 l 265 524 l 368 524 q 516 568 468 524 q 564 701 564 613 q 542 797 564 761 q 475 849 519 832 q 360 867 431 867 m 517 -99 q 492 -165 508 -128 q 454 -239 475 -201 q 411 -307 433 -276 l 329 -307 l 329 -290 q 349 -228 339 -265 q 367 -153 358 -192 q 378 -85 375 -114 l 517 -85 l 517 -99 z "},"ŗ":{"ha":535,"x_min":85,"x_max":517,"o":"m 440 763 q 479 761 458 763 q 517 754 500 760 l 500 617 q 467 624 486 621 q 432 626 449 626 q 360 610 394 626 q 301 563 326 593 q 261 490 275 533 q 247 392 247 446 l 247 0 l 104 0 l 104 749 l 217 749 l 235 618 l 242 618 q 292 692 263 658 q 358 744 321 725 q 440 763 396 763 m 271 -99 q 246 -165 263 -128 q 208 -239 229 -201 q 165 -307 188 -276 l 83 -307 l 83 -290 q 103 -228 93 -265 q 121 -153 113 -192 q 132 -85 129 -114 l 271 -85 l 271 -99 z "},"Ř":{"ha":800,"x_min":119,"x_max":785,"o":"m 365 992 q 561 960 485 992 q 675 866 638 929 q 713 707 713 803 q 690 584 713 636 q 626 497 667 532 q 535 442 586 463 l 785 0 l 621 0 l 406 403 l 265 403 l 265 0 l 119 0 l 119 992 l 365 992 m 360 867 l 265 867 l 265 524 l 368 524 q 516 568 468 524 q 564 701 564 613 q 542 797 564 761 q 475 849 519 832 q 360 867 431 867 m 329 1085 q 285 1152 313 1115 q 228 1226 258 1189 q 174 1290 199 1263 l 174 1307 l 264 1307 q 333 1251 297 1283 q 403 1182 369 1218 q 473 1251 439 1221 q 542 1307 507 1281 l 633 1307 l 633 1290 q 579 1227 610 1264 q 521 1153 549 1190 q 476 1085 493 1117 l 329 1085 z "},"ř":{"ha":535,"x_min":78,"x_max":538,"o":"m 440 763 q 479 761 458 763 q 517 754 500 760 l 500 617 q 467 624 486 621 q 432 626 449 626 q 360 610 394 626 q 301 563 326 593 q 261 490 275 533 q 247 392 247 446 l 247 0 l 104 0 l 104 749 l 217 749 l 235 618 l 242 618 q 292 692 263 658 q 358 744 321 725 q 440 763 396 763 m 233 842 q 190 909 217 872 q 133 983 163 946 q 78 1047 103 1019 l 78 1064 l 168 1064 q 238 1008 201 1040 q 307 939 274 975 q 377 1008 343 978 q 446 1064 411 1038 l 538 1064 l 538 1047 q 483 984 514 1021 q 425 910 453 947 q 381 842 397 874 l 233 842 z "},"Ś":{"ha":697,"x_min":63,"x_max":640,"o":"m 640 272 q 601 121 640 185 q 488 22 561 57 q 314 -14 415 -14 q 220 -8 265 -14 q 135 8 175 -3 q 63 35 96 19 l 63 178 q 183 133 115 151 q 318 114 251 114 q 416 133 376 114 q 475 185 456 151 q 494 260 494 218 q 475 335 494 304 q 413 394 456 367 q 300 451 371 421 q 207 499 249 474 q 135 559 165 525 q 89 638 106 593 q 72 742 72 682 q 110 883 72 824 q 215 974 147 942 q 372 1006 283 1006 q 508 990 444 1006 q 626 949 571 974 l 581 824 q 477 863 529 849 q 371 876 425 876 q 287 860 321 876 q 235 814 253 843 q 218 746 218 785 q 236 669 218 700 q 295 614 254 639 q 404 557 336 589 q 534 485 482 524 q 613 396 586 447 q 640 272 640 344 m 582 1293 q 542 1246 567 1274 q 488 1188 518 1218 q 429 1131 458 1158 q 376 1085 400 1104 l 282 1085 l 282 1101 q 330 1167 306 1132 q 377 1240 354 1203 q 415 1307 400 1276 l 582 1307 l 582 1293 z "},"ś":{"ha":604,"x_min":60,"x_max":550,"o":"m 550 210 q 518 88 550 138 q 424 12 486 38 q 276 -14 363 -14 q 156 -2 208 -14 q 60 31 103 10 l 60 161 q 161 119 103 138 q 276 101 219 101 q 378 128 346 101 q 411 199 411 154 q 399 244 411 224 q 353 286 386 265 q 257 333 319 307 q 151 392 194 363 q 83 461 107 421 q 60 561 60 501 q 131 710 60 657 q 319 763 203 763 q 436 749 382 763 q 540 711 490 736 l 494 601 q 407 635 451 621 q 317 649 363 649 q 228 627 258 649 q 197 568 197 606 q 211 522 197 542 q 260 483 225 501 q 354 436 294 464 q 459 380 415 408 q 526 310 503 351 q 550 210 550 269 m 526 1050 q 487 1003 511 1031 q 433 945 463 975 q 374 888 403 915 q 321 842 344 861 l 226 842 l 226 858 q 274 924 250 889 q 322 997 299 960 q 360 1064 344 1033 l 526 1064 l 526 1050 z "},"Ŝ":{"ha":697,"x_min":63,"x_max":640,"o":"m 640 272 q 601 121 640 185 q 488 22 561 57 q 314 -14 415 -14 q 220 -8 265 -14 q 135 8 175 -3 q 63 35 96 19 l 63 178 q 183 133 115 151 q 318 114 251 114 q 416 133 376 114 q 475 185 456 151 q 494 260 494 218 q 475 335 494 304 q 413 394 456 367 q 300 451 371 421 q 207 499 249 474 q 135 559 165 525 q 89 638 106 593 q 72 742 72 682 q 110 883 72 824 q 215 974 147 942 q 372 1006 283 1006 q 508 990 444 1006 q 626 949 571 974 l 581 824 q 477 863 529 849 q 371 876 425 876 q 287 860 321 876 q 235 814 253 843 q 218 746 218 785 q 236 669 218 700 q 295 614 254 639 q 404 557 336 589 q 534 485 482 524 q 613 396 586 447 q 640 272 640 344 m 436 1307 q 480 1239 453 1276 q 538 1165 507 1201 q 593 1100 568 1129 l 593 1085 l 501 1085 q 433 1140 468 1108 q 363 1208 397 1172 q 291 1140 326 1172 q 224 1085 256 1108 l 133 1085 l 133 1100 q 188 1166 158 1129 q 246 1240 218 1203 q 289 1307 274 1278 l 436 1307 z "},"ŝ":{"ha":604,"x_min":60,"x_max":550,"o":"m 550 210 q 518 88 550 138 q 424 12 486 38 q 276 -14 363 -14 q 156 -2 208 -14 q 60 31 103 10 l 60 161 q 161 119 103 138 q 276 101 219 101 q 378 128 346 101 q 411 199 411 154 q 399 244 411 224 q 353 286 386 265 q 257 333 319 307 q 151 392 194 363 q 83 461 107 421 q 60 561 60 501 q 131 710 60 657 q 319 763 203 763 q 436 749 382 763 q 540 711 490 736 l 494 601 q 407 635 451 621 q 317 649 363 649 q 228 627 258 649 q 197 568 197 606 q 211 522 197 542 q 260 483 225 501 q 354 436 294 464 q 459 380 415 408 q 526 310 503 351 q 550 210 550 269 m 379 1064 q 423 996 396 1033 q 481 922 450 958 q 536 857 511 886 l 536 842 l 444 842 q 376 897 411 865 q 306 965 340 929 q 234 897 269 929 q 167 842 199 865 l 76 842 l 76 857 q 131 923 101 886 q 189 997 161 960 q 232 1064 217 1035 l 379 1064 z "},"Ş":{"ha":697,"x_min":63,"x_max":640,"o":"m 640 272 q 601 121 640 185 q 488 22 561 57 q 314 -14 415 -14 q 220 -8 265 -14 q 135 8 175 -3 q 63 35 96 19 l 63 178 q 183 133 115 151 q 318 114 251 114 q 416 133 376 114 q 475 185 456 151 q 494 260 494 218 q 475 335 494 304 q 413 394 456 367 q 300 451 371 421 q 207 499 249 474 q 135 559 165 525 q 89 638 106 593 q 72 742 72 682 q 110 883 72 824 q 215 974 147 942 q 372 1006 283 1006 q 508 990 444 1006 q 626 949 571 974 l 581 824 q 477 863 529 849 q 371 876 425 876 q 287 860 321 876 q 235 814 253 843 q 218 746 218 785 q 236 669 218 700 q 295 614 254 639 q 404 557 336 589 q 534 485 482 524 q 613 396 586 447 q 640 272 640 344 m 467 -186 q 419 -295 467 -257 q 275 -333 372 -333 q 229 -331 250 -333 q 194 -324 208 -328 l 194 -237 q 229 -244 208 -242 q 268 -247 250 -247 q 331 -233 308 -247 q 353 -189 353 -219 q 322 -138 353 -156 q 238 -114 290 -121 l 292 0 l 379 0 l 349 -65 q 410 -88 383 -72 q 451 -128 436 -104 q 467 -186 467 -153 z "},"ş":{"ha":604,"x_min":60,"x_max":550,"o":"m 550 210 q 518 88 550 138 q 424 12 486 38 q 276 -14 363 -14 q 156 -2 208 -14 q 60 31 103 10 l 60 161 q 161 119 103 138 q 276 101 219 101 q 378 128 346 101 q 411 199 411 154 q 399 244 411 224 q 353 286 386 265 q 257 333 319 307 q 151 392 194 363 q 83 461 107 421 q 60 561 60 501 q 131 710 60 657 q 319 763 203 763 q 436 749 382 763 q 540 711 490 736 l 494 601 q 407 635 451 621 q 317 649 363 649 q 228 627 258 649 q 197 568 197 606 q 211 522 197 542 q 260 483 225 501 q 354 436 294 464 q 459 380 415 408 q 526 310 503 351 q 550 210 550 269 m 433 -186 q 386 -295 433 -257 q 242 -333 339 -333 q 196 -331 217 -333 q 161 -324 175 -328 l 161 -237 q 196 -244 175 -242 q 235 -247 217 -247 q 297 -233 275 -247 q 319 -189 319 -219 q 288 -138 319 -156 q 204 -114 257 -121 l 258 0 l 346 0 l 315 -65 q 376 -88 350 -72 q 418 -128 403 -104 q 433 -186 433 -153 z "},"Š":{"ha":697,"x_min":63,"x_max":640,"o":"m 640 272 q 601 121 640 185 q 488 22 561 57 q 314 -14 415 -14 q 220 -8 265 -14 q 135 8 175 -3 q 63 35 96 19 l 63 178 q 183 133 115 151 q 318 114 251 114 q 416 133 376 114 q 475 185 456 151 q 494 260 494 218 q 475 335 494 304 q 413 394 456 367 q 300 451 371 421 q 207 499 249 474 q 135 559 165 525 q 89 638 106 593 q 72 742 72 682 q 110 883 72 824 q 215 974 147 942 q 372 1006 283 1006 q 508 990 444 1006 q 626 949 571 974 l 581 824 q 477 863 529 849 q 371 876 425 876 q 287 860 321 876 q 235 814 253 843 q 218 746 218 785 q 236 669 218 700 q 295 614 254 639 q 404 557 336 589 q 534 485 482 524 q 613 396 586 447 q 640 272 640 344 m 289 1085 q 245 1152 272 1115 q 188 1226 218 1189 q 133 1290 158 1263 l 133 1307 l 224 1307 q 293 1251 257 1283 q 363 1182 329 1218 q 433 1251 399 1221 q 501 1307 467 1281 l 593 1307 l 593 1290 q 539 1227 569 1264 q 481 1153 508 1190 q 436 1085 453 1117 l 289 1085 z "},"š":{"ha":604,"x_min":60,"x_max":550,"o":"m 550 210 q 518 88 550 138 q 424 12 486 38 q 276 -14 363 -14 q 156 -2 208 -14 q 60 31 103 10 l 60 161 q 161 119 103 138 q 276 101 219 101 q 378 128 346 101 q 411 199 411 154 q 399 244 411 224 q 353 286 386 265 q 257 333 319 307 q 151 392 194 363 q 83 461 107 421 q 60 561 60 501 q 131 710 60 657 q 319 763 203 763 q 436 749 382 763 q 540 711 490 736 l 494 601 q 407 635 451 621 q 317 649 363 649 q 228 627 258 649 q 197 568 197 606 q 211 522 197 542 q 260 483 225 501 q 354 436 294 464 q 459 380 415 408 q 526 310 503 351 q 550 210 550 269 m 232 842 q 188 909 215 872 q 131 983 161 946 q 76 1047 101 1019 l 76 1064 l 167 1064 q 236 1008 200 1040 q 306 939 272 975 q 376 1008 342 978 q 444 1064 410 1038 l 536 1064 l 536 1047 q 482 984 513 1021 q 424 910 451 947 q 379 842 396 874 l 232 842 z "},"Ț":{"ha":696,"x_min":17,"x_max":678,"o":"m 421 0 l 275 0 l 275 865 l 17 865 l 17 992 l 678 992 l 678 865 l 421 865 l 421 0 m 442 -99 q 417 -165 433 -128 q 379 -239 400 -201 q 336 -307 358 -276 l 254 -307 l 254 -290 q 274 -228 264 -265 q 292 -153 283 -192 q 303 -85 300 -114 l 442 -85 l 442 -99 z "},"ț":{"ha":478,"x_min":24,"x_max":447,"o":"m 350 104 q 401 110 375 104 q 447 122 426 115 l 447 13 q 388 -6 424 1 q 314 -14 353 -14 q 211 8 256 -14 q 141 79 167 29 q 115 214 115 129 l 115 638 l 24 638 l 24 706 l 122 754 l 167 917 l 257 917 l 257 749 l 440 749 l 440 638 l 257 638 l 257 219 q 281 133 257 161 q 350 104 306 104 m 375 -99 q 350 -165 367 -128 q 313 -239 333 -201 q 269 -307 292 -276 l 188 -307 l 188 -290 q 207 -228 197 -265 q 225 -153 217 -192 q 236 -85 233 -114 l 375 -85 l 375 -99 z "},"Ť":{"ha":696,"x_min":17,"x_max":678,"o":"m 421 0 l 275 0 l 275 865 l 17 865 l 17 992 l 678 992 l 678 865 l 421 865 l 421 0 m 274 1085 q 230 1152 257 1115 q 173 1226 203 1189 q 118 1290 143 1263 l 118 1307 l 208 1307 q 278 1251 242 1283 q 347 1182 314 1218 q 417 1251 383 1221 q 486 1307 451 1281 l 578 1307 l 578 1290 q 524 1227 554 1264 q 465 1153 493 1190 q 421 1085 438 1117 l 274 1085 z "},"ť":{"ha":478,"x_min":24,"x_max":638,"o":"m 638 1042 q 613 976 629 1014 q 578 901 597 939 q 539 833 560 864 l 458 833 l 458 850 q 469 893 464 867 q 481 949 475 919 q 491 1007 486 979 q 497 1056 496 1035 l 638 1056 l 638 1042 m 350 104 q 401 110 375 104 q 447 122 426 115 l 447 13 q 388 -6 424 1 q 314 -14 353 -14 q 211 8 256 -14 q 141 79 167 29 q 115 214 115 129 l 115 638 l 24 638 l 24 706 l 122 754 l 167 917 l 257 917 l 257 749 l 440 749 l 440 638 l 257 638 l 257 219 q 281 133 257 161 q 350 104 306 104 z "},"Ŧ":{"ha":696,"x_min":17,"x_max":678,"o":"m 275 0 l 275 439 l 101 439 l 101 557 l 275 557 l 275 864 l 17 864 l 17 992 l 678 992 l 678 864 l 419 864 l 419 557 l 593 557 l 593 439 l 419 439 l 419 0 l 275 0 z "},"ŧ":{"ha":478,"x_min":24,"x_max":447,"o":"m 32 371 l 32 474 l 428 474 l 428 371 l 32 371 m 350 104 q 401 110 375 104 q 447 122 426 115 l 447 13 q 388 -6 424 1 q 314 -14 353 -14 q 211 8 256 -14 q 141 79 167 29 q 115 214 115 129 l 115 638 l 24 638 l 24 706 l 122 754 l 167 917 l 257 917 l 257 749 l 440 749 l 440 638 l 257 638 l 257 219 q 281 133 257 161 q 350 104 306 104 z "},"Ũ":{"ha":921,"x_min":111,"x_max":810,"o":"m 810 338 q 771 151 810 231 q 654 29 732 72 q 458 -14 576 -14 q 200 79 289 -14 q 111 339 111 172 l 111 992 l 257 992 l 257 343 q 308 170 257 226 q 463 114 360 114 q 578 140 533 114 q 643 218 622 167 q 664 344 664 269 l 664 992 l 810 992 l 810 338 m 218 1083 q 233 1158 222 1125 q 261 1217 243 1192 q 305 1255 279 1242 q 364 1268 331 1268 q 418 1257 392 1268 q 469 1231 444 1246 q 518 1203 494 1215 q 563 1192 542 1192 q 604 1212 589 1192 q 628 1269 619 1232 l 706 1269 q 660 1133 699 1182 q 561 1085 621 1085 q 507 1097 533 1085 q 455 1124 481 1108 q 406 1151 429 1139 q 363 1163 383 1163 q 322 1142 338 1163 q 297 1083 306 1122 l 218 1083 z "},"ũ":{"ha":793,"x_min":100,"x_max":688,"o":"m 688 749 l 688 0 l 575 0 l 557 99 l 549 99 q 495 36 528 61 q 423 -1 463 11 q 340 -14 383 -14 q 207 17 261 -14 q 126 108 153 47 q 100 260 100 168 l 100 749 l 242 749 l 242 285 q 273 150 242 194 q 369 106 304 106 q 476 135 438 106 q 530 223 514 165 q 546 365 546 281 l 546 749 l 688 749 m 154 840 q 169 915 158 882 q 197 974 179 949 q 241 1012 215 999 q 300 1025 267 1025 q 354 1014 328 1025 q 406 988 381 1003 q 454 960 431 972 q 499 949 478 949 q 540 969 525 949 q 564 1026 556 989 l 642 1026 q 596 890 635 939 q 497 842 557 842 q 443 853 469 842 q 391 881 417 865 q 342 908 365 896 q 299 919 319 919 q 258 899 274 919 q 233 840 242 879 l 154 840 z "},"Ū":{"ha":921,"x_min":111,"x_max":810,"o":"m 810 338 q 771 151 810 231 q 654 29 732 72 q 458 -14 576 -14 q 200 79 289 -14 q 111 339 111 172 l 111 992 l 257 992 l 257 343 q 308 170 257 226 q 463 114 360 114 q 578 140 533 114 q 643 218 622 167 q 664 344 664 269 l 664 992 l 810 992 l 810 338 m 660 1197 l 660 1089 l 261 1089 l 261 1197 l 660 1197 z "},"ū":{"ha":793,"x_min":100,"x_max":688,"o":"m 688 749 l 688 0 l 575 0 l 557 99 l 549 99 q 495 36 528 61 q 423 -1 463 11 q 340 -14 383 -14 q 207 17 261 -14 q 126 108 153 47 q 100 260 100 168 l 100 749 l 242 749 l 242 285 q 273 150 242 194 q 369 106 304 106 q 476 135 438 106 q 530 223 514 165 q 546 365 546 281 l 546 749 l 688 749 m 596 954 l 596 846 l 197 846 l 197 954 l 596 954 z "},"Ŭ":{"ha":921,"x_min":111,"x_max":810,"o":"m 810 338 q 771 151 810 231 q 654 29 732 72 q 458 -14 576 -14 q 200 79 289 -14 q 111 339 111 172 l 111 992 l 257 992 l 257 343 q 308 170 257 226 q 463 114 360 114 q 578 140 533 114 q 643 218 622 167 q 664 344 664 269 l 664 992 l 810 992 l 810 338 m 672 1283 q 642 1179 669 1224 q 568 1110 615 1135 q 457 1085 521 1085 q 306 1138 360 1085 q 249 1283 253 1190 l 335 1283 q 353 1228 338 1247 q 397 1200 369 1208 q 460 1192 424 1192 q 519 1200 492 1192 q 564 1228 546 1208 q 586 1283 582 1249 l 672 1283 z "},"ŭ":{"ha":793,"x_min":100,"x_max":688,"o":"m 688 749 l 688 0 l 575 0 l 557 99 l 549 99 q 495 36 528 61 q 423 -1 463 11 q 340 -14 383 -14 q 207 17 261 -14 q 126 108 153 47 q 100 260 100 168 l 100 749 l 242 749 l 242 285 q 273 150 242 194 q 369 106 304 106 q 476 135 438 106 q 530 223 514 165 q 546 365 546 281 l 546 749 l 688 749 m 608 1040 q 578 936 606 981 q 504 867 551 892 q 393 842 457 842 q 242 894 296 842 q 185 1040 189 947 l 271 1040 q 290 985 274 1004 q 333 957 306 965 q 396 949 360 949 q 455 957 428 949 q 500 985 482 965 q 522 1040 518 1006 l 608 1040 z "},"Ů":{"ha":921,"x_min":111,"x_max":810,"o":"m 810 338 q 771 151 810 231 q 654 29 732 72 q 458 -14 576 -14 q 200 79 289 -14 q 111 339 111 172 l 111 992 l 257 992 l 257 343 q 308 170 257 226 q 463 114 360 114 q 578 140 533 114 q 643 218 622 167 q 664 344 664 269 l 664 992 l 810 992 l 810 338 m 460 1086 q 348 1126 390 1086 q 306 1235 306 1165 q 348 1344 306 1304 q 460 1383 390 1383 q 571 1344 526 1383 q 615 1236 615 1304 q 572 1126 615 1167 q 460 1086 528 1086 m 460 1163 q 513 1182 492 1163 q 533 1235 533 1201 q 513 1288 533 1268 q 460 1307 493 1307 q 408 1288 429 1307 q 388 1235 388 1268 q 406 1182 388 1201 q 460 1163 425 1163 z "},"ů":{"ha":793,"x_min":100,"x_max":688,"o":"m 688 749 l 688 0 l 575 0 l 557 99 l 549 99 q 495 36 528 61 q 423 -1 463 11 q 340 -14 383 -14 q 207 17 261 -14 q 126 108 153 47 q 100 260 100 168 l 100 749 l 242 749 l 242 285 q 273 150 242 194 q 369 106 304 106 q 476 135 438 106 q 530 223 514 165 q 546 365 546 281 l 546 749 l 688 749 m 396 843 q 284 883 326 843 q 242 992 242 922 q 284 1101 242 1061 q 396 1140 326 1140 q 507 1101 463 1140 q 551 993 551 1061 q 508 883 551 924 q 396 843 464 843 m 396 919 q 449 939 428 919 q 469 992 469 958 q 449 1044 469 1025 q 396 1064 429 1064 q 344 1044 365 1064 q 324 992 324 1025 q 342 939 324 958 q 396 919 361 919 z "},"Ű":{"ha":921,"x_min":111,"x_max":810,"o":"m 810 338 q 771 151 810 231 q 654 29 732 72 q 458 -14 576 -14 q 200 79 289 -14 q 111 339 111 172 l 111 992 l 257 992 l 257 343 q 308 170 257 226 q 463 114 360 114 q 578 140 533 114 q 643 218 622 167 q 664 344 664 269 l 664 992 l 810 992 l 810 338 m 711 1293 q 678 1246 700 1274 q 629 1188 657 1218 q 574 1131 601 1157 q 524 1085 546 1104 l 447 1085 l 447 1101 q 490 1168 467 1131 q 533 1243 513 1206 q 565 1307 553 1281 l 711 1307 l 711 1293 m 475 1293 q 442 1246 464 1274 q 394 1188 421 1218 q 339 1132 367 1158 q 286 1085 311 1106 l 211 1085 l 211 1101 q 254 1169 232 1132 q 296 1243 276 1206 q 329 1307 315 1281 l 475 1307 l 475 1293 z "},"ű":{"ha":793,"x_min":100,"x_max":688,"o":"m 688 749 l 688 0 l 575 0 l 557 99 l 549 99 q 495 36 528 61 q 423 -1 463 11 q 340 -14 383 -14 q 207 17 261 -14 q 126 108 153 47 q 100 260 100 168 l 100 749 l 242 749 l 242 285 q 273 150 242 194 q 369 106 304 106 q 476 135 438 106 q 530 223 514 165 q 546 365 546 281 l 546 749 l 688 749 m 646 1050 q 613 1003 635 1031 q 564 944 592 975 q 508 888 536 914 q 458 842 481 861 l 382 842 l 382 858 q 424 925 401 888 q 467 1000 447 963 q 500 1064 488 1038 l 646 1064 l 646 1050 m 410 1050 q 377 1003 399 1031 q 328 945 356 975 q 274 889 301 915 q 221 842 246 863 l 146 842 l 146 858 q 189 926 167 889 q 231 1000 211 963 q 264 1064 250 1038 l 410 1064 l 410 1050 z "},"Ų":{"ha":921,"x_min":111,"x_max":810,"o":"m 575 -150 q 591 -203 575 -186 q 635 -219 607 -219 q 670 -216 654 -219 q 697 -210 686 -212 l 697 -301 q 658 -310 679 -307 q 610 -314 636 -314 q 501 -277 538 -314 q 464 -171 464 -240 q 483 -90 464 -129 q 531 -19 501 -51 q 592 36 560 14 l 704 68 q 629 -20 658 18 q 588 -89 600 -58 q 575 -150 575 -119 m 810 338 q 771 151 810 231 q 654 29 732 72 q 458 -14 576 -14 q 200 79 289 -14 q 111 339 111 172 l 111 992 l 257 992 l 257 343 q 308 170 257 226 q 463 114 360 114 q 578 140 533 114 q 643 218 622 167 q 664 344 664 269 l 664 992 l 810 992 l 810 338 z "},"ų":{"ha":793,"x_min":100,"x_max":694,"o":"m 688 749 l 688 0 l 575 0 l 557 99 l 549 99 q 495 36 528 61 q 423 -1 463 11 q 340 -14 383 -14 q 207 17 261 -14 q 126 108 153 47 q 100 260 100 168 l 100 749 l 242 749 l 242 285 q 273 150 242 194 q 369 106 304 106 q 476 135 438 106 q 530 223 514 165 q 546 365 546 281 l 546 749 l 688 749 m 574 -158 q 590 -205 574 -189 q 633 -221 606 -221 q 669 -217 654 -221 q 694 -211 685 -214 l 694 -301 q 658 -310 678 -307 q 610 -314 638 -314 q 499 -278 536 -314 q 463 -178 463 -242 q 480 -103 463 -140 q 526 -35 497 -67 q 590 21 556 -3 l 664 0 q 595 -82 617 -46 q 574 -158 574 -118 z "},"Ŵ":{"ha":1203,"x_min":8,"x_max":1193,"o":"m 1193 992 l 954 0 l 793 0 l 640 601 q 628 651 635 624 q 617 707 622 678 q 606 763 611 736 q 599 810 601 789 q 593 768 597 793 q 583 715 589 743 q 572 656 578 686 q 558 600 565 626 l 407 0 l 247 0 l 8 992 l 157 992 l 290 408 q 303 344 297 376 q 316 278 310 311 q 326 216 322 246 q 333 161 331 186 q 343 222 338 190 q 355 285 349 253 q 368 349 361 318 q 381 408 375 381 l 529 992 l 669 992 l 819 407 q 833 348 826 379 q 847 285 840 317 q 858 221 853 253 q 867 161 863 189 q 878 242 871 200 q 894 327 885 283 q 911 410 903 371 l 1044 992 l 1193 992 m 674 1307 q 717 1239 690 1276 q 775 1165 744 1201 q 831 1100 806 1129 l 831 1085 l 739 1085 q 670 1140 706 1108 q 600 1208 635 1172 q 528 1140 564 1172 q 461 1085 493 1108 l 371 1085 l 371 1100 q 426 1166 396 1129 q 483 1240 456 1203 q 526 1307 511 1278 l 674 1307 z "},"ŵ":{"ha":1029,"x_min":14,"x_max":1017,"o":"m 563 396 q 550 450 557 421 q 537 509 543 479 q 525 565 531 539 q 517 610 519 592 l 511 610 q 503 565 508 592 q 491 508 497 538 q 478 449 485 478 q 465 394 472 419 l 363 0 l 204 0 l 14 750 l 157 750 l 244 382 q 263 301 254 343 q 277 219 271 258 q 288 147 283 179 l 293 147 q 301 195 296 168 q 310 252 306 222 q 322 311 315 282 q 335 364 329 340 l 438 750 l 594 750 l 694 363 q 710 297 701 335 q 725 221 718 260 q 736 147 732 182 l 740 147 q 749 206 743 171 q 764 280 756 240 q 781 358 772 319 l 875 750 l 1017 750 l 822 0 l 661 0 l 563 396 m 588 1064 q 631 996 604 1033 q 689 922 658 958 q 744 857 719 886 l 744 842 l 653 842 q 584 897 619 865 q 514 965 549 929 q 442 897 478 929 q 375 842 407 865 l 285 842 l 285 857 q 340 923 310 886 q 397 997 369 960 q 440 1064 425 1035 l 588 1064 z "},"Ŷ":{"ha":725,"x_min":0,"x_max":725,"o":"m 363 533 l 569 992 l 725 992 l 435 385 l 435 0 l 290 0 l 290 381 l 0 992 l 157 992 l 363 533 m 435 1307 q 478 1239 451 1276 q 536 1165 506 1201 q 592 1100 567 1129 l 592 1085 l 500 1085 q 431 1140 467 1108 q 361 1208 396 1172 q 290 1140 325 1172 q 222 1085 254 1108 l 132 1085 l 132 1100 q 187 1166 157 1129 q 244 1240 217 1203 q 288 1307 272 1278 l 435 1307 z "},"ŷ":{"ha":664,"x_min":3,"x_max":661,"o":"m 3 749 l 154 749 l 288 332 q 306 272 297 301 q 321 214 314 243 q 332 157 328 185 l 338 157 q 356 238 343 192 q 383 332 368 283 l 511 749 l 661 749 l 378 -101 q 317 -228 351 -176 q 233 -307 282 -281 q 118 -333 185 -333 q 68 -330 90 -333 q 26 -322 46 -326 l 26 -206 q 60 -211 42 -208 q 99 -214 78 -214 q 162 -199 136 -214 q 207 -153 188 -183 q 240 -79 226 -122 l 267 1 l 3 749 m 404 1064 q 448 996 421 1033 q 506 922 475 958 q 561 857 536 886 l 561 842 l 469 842 q 401 897 436 865 q 331 965 365 929 q 259 897 294 929 q 192 842 224 865 l 101 842 l 101 857 q 156 923 126 886 q 214 997 186 960 q 257 1064 242 1035 l 404 1064 z "},"Ÿ":{"ha":725,"x_min":0,"x_max":725,"o":"m 363 533 l 569 992 l 725 992 l 435 385 l 435 0 l 290 0 l 290 381 l 0 992 l 157 992 l 363 533 m 164 1185 q 185 1243 164 1225 q 235 1261 206 1261 q 286 1243 265 1261 q 307 1186 307 1225 q 286 1128 307 1147 q 235 1110 265 1110 q 185 1128 206 1110 q 164 1185 164 1147 m 418 1185 q 438 1243 418 1225 q 489 1261 458 1261 q 539 1243 518 1261 q 560 1186 560 1225 q 539 1128 560 1147 q 489 1110 518 1110 q 438 1128 458 1110 q 418 1185 418 1147 z "},"Ź":{"ha":699,"x_min":43,"x_max":658,"o":"m 658 0 l 43 0 l 43 106 l 478 865 l 54 865 l 54 992 l 647 992 l 647 886 l 211 128 l 658 128 l 658 0 m 572 1293 q 533 1246 557 1274 q 478 1188 508 1218 q 419 1131 449 1158 q 367 1085 390 1104 l 272 1085 l 272 1101 q 320 1167 296 1132 q 367 1240 344 1203 q 406 1307 390 1276 l 572 1307 l 572 1293 z "},"ź":{"ha":581,"x_min":43,"x_max":539,"o":"m 539 0 l 43 0 l 43 90 l 371 636 l 63 636 l 63 749 l 528 749 l 528 649 l 207 113 l 539 113 l 539 0 m 513 1050 q 473 1003 497 1031 q 419 945 449 975 q 360 888 389 915 q 307 842 331 861 l 213 842 l 213 858 q 260 924 236 889 q 308 997 285 960 q 346 1064 331 1033 l 513 1064 l 513 1050 z "},"Ż":{"ha":699,"x_min":43,"x_max":658,"o":"m 658 0 l 43 0 l 43 106 l 478 865 l 54 865 l 54 992 l 647 992 l 647 886 l 211 128 l 658 128 l 658 0 m 356 1278 q 413 1257 390 1278 q 436 1192 436 1236 q 413 1127 436 1149 q 356 1106 390 1106 q 298 1127 321 1106 q 275 1192 275 1149 q 297 1257 275 1236 q 356 1278 319 1278 z "},"ż":{"ha":581,"x_min":43,"x_max":539,"o":"m 539 0 l 43 0 l 43 90 l 371 636 l 63 636 l 63 749 l 528 749 l 528 649 l 207 113 l 539 113 l 539 0 m 296 1035 q 353 1014 331 1035 q 376 949 376 993 q 353 884 376 906 q 296 863 331 863 q 238 884 261 863 q 215 949 215 906 q 238 1014 215 993 q 296 1035 260 1035 z "},"Ž":{"ha":699,"x_min":43,"x_max":658,"o":"m 658 0 l 43 0 l 43 106 l 478 865 l 54 865 l 54 992 l 647 992 l 647 886 l 211 128 l 658 128 l 658 0 m 279 1085 q 235 1152 263 1115 q 178 1226 208 1189 q 124 1290 149 1263 l 124 1307 l 214 1307 q 283 1251 247 1283 q 353 1182 319 1218 q 423 1251 389 1221 q 492 1307 457 1281 l 583 1307 l 583 1290 q 529 1227 560 1264 q 471 1153 499 1190 q 426 1085 443 1117 l 279 1085 z "},"ž":{"ha":581,"x_min":43,"x_max":539,"o":"m 539 0 l 43 0 l 43 90 l 371 636 l 63 636 l 63 749 l 528 749 l 528 649 l 207 113 l 539 113 l 539 0 m 219 842 q 176 909 203 872 q 119 983 149 946 q 64 1047 89 1019 l 64 1064 l 154 1064 q 224 1008 188 1040 q 293 939 260 975 q 363 1008 329 978 q 432 1064 397 1038 l 524 1064 l 524 1047 q 469 984 500 1021 q 411 910 439 947 q 367 842 383 874 l 219 842 z "},"ſ":{"ha":425,"x_min":108,"x_max":475,"o":"m 346 944 q 274 911 297 944 q 250 800 250 878 l 250 0 l 108 0 l 108 800 q 134 951 108 893 q 210 1035 160 1008 q 333 1063 261 1063 q 411 1055 376 1063 q 475 1036 446 1047 l 440 926 q 395 939 419 933 q 346 944 371 944 z "},"ƒ":{"ha":576,"x_min":-10,"x_max":626,"o":"m 197 -336 q 44 -283 99 -336 q -10 -143 -10 -231 q -6 -102 -10 -121 q 3 -68 -3 -83 l 121 -99 q 116 -116 118 -106 q 114 -139 114 -126 q 135 -200 114 -179 q 186 -221 156 -221 q 239 -195 219 -221 q 258 -114 258 -169 l 258 638 l 146 638 l 146 707 l 258 751 l 258 796 q 283 948 258 889 q 358 1035 308 1007 q 482 1063 407 1063 q 561 1055 525 1063 q 626 1036 597 1047 l 590 928 q 545 940 569 935 q 494 946 521 946 q 424 910 446 946 q 400 797 401 875 l 400 749 l 561 749 l 561 638 l 400 638 l 400 -107 q 376 -231 400 -179 q 306 -309 351 -282 q 197 -336 261 -336 z "},"Ǻ":{"ha":817,"x_min":0,"x_max":817,"o":"m 308 868 q 267 913 282 885 q 251 978 251 940 q 294 1086 251 1046 q 406 1126 338 1126 q 517 1087 472 1126 q 563 979 563 1047 q 547 913 563 942 q 506 868 532 885 l 817 0 l 663 0 l 576 251 l 238 251 l 154 0 l 0 0 l 308 868 m 274 379 l 542 379 l 451 653 q 436 702 444 674 q 420 758 428 731 q 407 807 413 786 q 397 772 403 792 q 386 731 392 751 q 375 693 381 711 q 367 661 369 675 l 274 379 m 407 906 q 459 925 439 906 q 479 978 479 944 q 459 1031 479 1011 q 407 1050 439 1050 q 353 1031 374 1050 q 333 978 333 1011 q 352 925 333 944 q 407 906 371 906 m 333 1175 q 381 1233 360 1206 q 420 1285 403 1261 q 450 1332 438 1310 l 618 1332 l 618 1321 q 585 1286 607 1307 q 536 1242 564 1265 q 481 1199 508 1219 q 432 1163 454 1178 l 333 1163 l 333 1175 z "},"ǻ":{"ha":724,"x_min":56,"x_max":624,"o":"m 371 763 q 561 699 499 763 q 624 506 624 635 l 624 0 l 519 0 l 494 104 l 490 104 q 431 38 463 64 q 360 -1 400 11 q 267 -14 321 -14 q 155 13 203 -14 q 81 91 107 40 q 56 213 56 142 q 134 387 56 326 q 369 453 213 447 l 483 457 l 483 499 q 451 615 483 581 q 357 650 418 650 q 263 635 310 650 q 171 597 217 621 l 126 700 q 240 746 176 729 q 371 763 303 763 m 396 358 q 245 317 289 354 q 201 214 201 281 q 232 126 201 154 q 311 97 263 97 q 434 147 386 97 q 482 293 482 197 l 482 361 l 396 358 m 369 1050 q 317 1030 338 1050 q 296 978 296 1010 q 315 924 296 944 q 369 904 333 904 q 422 924 401 904 q 442 978 442 944 q 422 1030 442 1010 q 369 1050 401 1050 m 369 1125 q 449 1108 414 1125 q 506 1058 485 1090 q 526 979 526 1025 q 482 868 526 908 q 369 828 438 828 q 257 868 299 828 q 215 978 215 908 q 257 1085 215 1046 q 369 1125 299 1125 m 589 1322 q 537 1274 574 1303 q 459 1217 500 1244 q 389 1172 418 1189 l 289 1172 l 289 1183 q 334 1236 313 1211 q 374 1285 356 1261 q 404 1331 392 1310 l 589 1331 l 589 1322 z "},"Ǽ":{"ha":1118,"x_min":-1,"x_max":1043,"o":"m 1043 0 l 551 0 l 551 288 l 267 288 l 151 0 l -1 0 l 401 992 l 1043 992 l 1043 865 l 697 865 l 697 579 l 1019 579 l 1019 454 l 697 454 l 697 126 l 1043 126 l 1043 0 m 315 415 l 553 415 l 553 864 l 490 864 l 315 415 m 822 1293 q 783 1246 807 1274 q 728 1188 758 1218 q 669 1131 699 1158 q 617 1085 640 1104 l 522 1085 l 522 1101 q 570 1167 546 1132 q 617 1240 594 1203 q 656 1307 640 1276 l 822 1307 l 822 1293 z "},"ǽ":{"ha":1111,"x_min":56,"x_max":1049,"o":"m 771 763 q 920 720 858 763 q 1015 603 982 678 q 1049 426 1049 528 l 1049 344 l 614 344 q 664 162 617 222 q 801 101 711 101 q 912 115 861 101 q 1014 154 963 128 l 1014 36 q 913 -1 964 11 q 793 -14 861 -14 q 685 3 736 -14 q 596 53 635 19 q 531 136 557 86 q 464 54 500 88 q 382 3 428 21 q 272 -14 336 -14 q 158 13 207 -14 q 83 91 110 40 q 56 213 56 142 q 90 341 56 289 q 192 421 124 393 q 360 453 260 449 l 471 457 l 471 504 q 438 616 471 582 q 346 650 406 650 q 253 635 300 650 q 161 597 207 621 l 118 700 q 228 745 165 728 q 357 763 290 763 q 482 737 432 763 q 561 658 532 711 q 649 735 596 708 q 771 763 701 763 m 388 358 q 243 317 285 354 q 201 214 201 281 q 230 126 201 154 q 307 97 258 97 q 392 119 356 97 q 449 185 428 142 q 471 293 471 229 l 471 361 l 388 358 m 769 651 q 662 601 701 651 q 615 450 622 550 l 908 450 q 894 554 908 508 q 848 626 879 600 q 769 651 817 651 m 783 1050 q 744 1003 768 1031 q 690 945 719 975 q 631 888 660 915 q 578 842 601 861 l 483 842 l 483 858 q 531 924 507 889 q 578 997 556 960 q 617 1064 601 1033 l 783 1064 l 783 1050 z "},"Ǿ":{"ha":978,"x_min":78,"x_max":900,"o":"m 900 497 q 874 285 900 379 q 797 124 849 190 q 669 22 746 57 q 489 -14 592 -14 q 368 1 424 -14 q 269 44 313 17 l 208 -56 l 121 -4 l 190 111 q 105 278 132 181 q 78 499 78 376 q 123 771 78 657 q 260 946 168 885 q 490 1007 351 1007 q 609 991 554 1007 q 710 946 664 975 l 768 1042 l 856 989 l 788 878 q 872 716 843 813 q 900 497 900 619 m 749 497 q 703 739 749 649 l 340 161 q 406 124 368 138 q 489 111 443 111 q 635 156 578 111 q 721 288 693 201 q 749 497 749 375 m 229 497 q 240 358 229 421 q 275 250 251 296 l 639 828 q 573 867 610 854 q 490 881 536 881 q 343 835 401 881 q 257 705 285 790 q 229 497 229 619 m 711 1293 q 672 1246 696 1274 q 617 1188 647 1218 q 558 1131 588 1158 q 506 1085 529 1104 l 411 1085 l 411 1101 q 459 1167 435 1132 q 506 1240 483 1203 q 544 1307 529 1276 l 711 1307 l 711 1293 z "},"ǿ":{"ha":769,"x_min":65,"x_max":703,"o":"m 703 376 q 665 165 703 251 q 554 32 626 78 q 382 -14 482 -14 q 299 -3 338 -14 q 228 26 261 7 l 174 -62 l 92 -12 l 153 89 q 88 213 110 140 q 65 376 65 285 q 151 663 65 563 q 386 763 236 763 q 471 751 431 763 q 544 718 511 740 l 594 799 l 678 749 l 621 654 q 681 534 660 604 q 703 376 703 464 m 210 375 q 215 288 210 328 q 233 218 221 249 l 482 613 q 438 638 463 629 q 383 646 413 646 q 251 576 293 646 q 210 375 210 507 m 560 376 q 554 458 560 421 q 539 524 549 494 l 292 131 q 333 110 310 117 q 385 103 357 103 q 485 135 446 103 q 542 228 524 167 q 560 376 560 289 m 604 1050 q 565 1003 589 1031 q 510 945 540 975 q 451 888 481 915 q 399 842 422 861 l 304 842 l 304 858 q 352 924 328 889 q 399 997 376 960 q 438 1064 422 1033 l 604 1064 l 604 1050 z "},"Ș":{"ha":697,"x_min":63,"x_max":640,"o":"m 640 272 q 601 121 640 185 q 488 22 561 57 q 314 -14 415 -14 q 220 -8 265 -14 q 135 8 175 -3 q 63 35 96 19 l 63 178 q 183 133 115 151 q 318 114 251 114 q 416 133 376 114 q 475 185 456 151 q 494 260 494 218 q 475 335 494 304 q 413 394 456 367 q 300 451 371 421 q 207 499 249 474 q 135 559 165 525 q 89 638 106 593 q 72 742 72 682 q 110 883 72 824 q 215 974 147 942 q 372 1006 283 1006 q 508 990 444 1006 q 626 949 571 974 l 581 824 q 477 863 529 849 q 371 876 425 876 q 287 860 321 876 q 235 814 253 843 q 218 746 218 785 q 236 669 218 700 q 295 614 254 639 q 404 557 336 589 q 534 485 482 524 q 613 396 586 447 q 640 272 640 344 m 424 -99 q 399 -165 415 -128 q 361 -239 382 -201 q 318 -307 340 -276 l 236 -307 l 236 -290 q 256 -228 246 -265 q 274 -153 265 -192 q 285 -85 282 -114 l 424 -85 l 424 -99 z "},"ș":{"ha":604,"x_min":60,"x_max":550,"o":"m 550 210 q 518 88 550 138 q 424 12 486 38 q 276 -14 363 -14 q 156 -2 208 -14 q 60 31 103 10 l 60 161 q 161 119 103 138 q 276 101 219 101 q 378 128 346 101 q 411 199 411 154 q 399 244 411 224 q 353 286 386 265 q 257 333 319 307 q 151 392 194 363 q 83 461 107 421 q 60 561 60 501 q 131 710 60 657 q 319 763 203 763 q 436 749 382 763 q 540 711 490 736 l 494 601 q 407 635 451 621 q 317 649 363 649 q 228 627 258 649 q 197 568 197 606 q 211 522 197 542 q 260 483 225 501 q 354 436 294 464 q 459 380 415 408 q 526 310 503 351 q 550 210 550 269 m 390 -99 q 365 -165 382 -128 q 328 -239 349 -201 q 285 -307 307 -276 l 203 -307 l 203 -290 q 222 -228 213 -265 q 240 -153 232 -192 q 251 -85 249 -114 l 390 -85 l 390 -99 z "},"ˆ":{"ha":571,"x_min":56,"x_max":515,"o":"m 358 1064 q 402 996 375 1033 q 460 922 429 958 q 515 857 490 886 l 515 842 l 424 842 q 355 897 390 865 q 285 965 319 929 q 213 897 249 929 q 146 842 178 865 l 56 842 l 56 857 q 110 923 81 886 q 168 997 140 960 q 211 1064 196 1035 l 358 1064 z "},"ˇ":{"ha":571,"x_min":56,"x_max":515,"o":"m 211 842 q 167 909 194 872 q 110 983 140 946 q 56 1047 81 1019 l 56 1064 l 146 1064 q 215 1008 179 1040 q 285 939 251 975 q 355 1008 321 978 q 424 1064 389 1038 l 515 1064 l 515 1047 q 461 984 492 1021 q 403 910 431 947 q 358 842 375 874 l 211 842 z "},"ˉ":{"ha":510,"x_min":56,"x_max":454,"o":"m 454 954 l 454 846 l 56 846 l 56 954 l 454 954 z "},"˘":{"ha":535,"x_min":56,"x_max":479,"o":"m 479 1040 q 449 936 476 981 q 375 867 422 892 q 264 842 328 842 q 113 894 167 842 q 56 1040 60 947 l 142 1040 q 160 985 144 1004 q 203 957 176 965 q 267 949 231 949 q 326 957 299 949 q 371 985 353 965 q 393 1040 389 1006 l 479 1040 z "},"˙":{"ha":272,"x_min":56,"x_max":217,"o":"m 136 1035 q 194 1014 171 1035 q 217 949 217 993 q 194 884 217 906 q 136 863 171 863 q 78 884 101 863 q 56 949 56 906 q 78 1014 56 993 q 136 1035 100 1035 z "},"˚":{"ha":421,"x_min":56,"x_max":365,"o":"m 210 843 q 98 883 140 843 q 56 992 56 922 q 98 1101 56 1061 q 210 1140 140 1140 q 321 1101 276 1140 q 365 993 365 1061 q 322 883 365 924 q 210 843 278 843 m 210 919 q 263 939 242 919 q 283 992 283 958 q 263 1044 283 1025 q 210 1064 243 1064 q 158 1044 179 1064 q 138 992 138 1025 q 156 939 138 958 q 210 919 175 919 z "},"˛":{"ha":343,"x_min":56,"x_max":288,"o":"m 167 -158 q 183 -205 167 -189 q 226 -221 199 -221 q 263 -217 247 -221 q 288 -211 278 -214 l 288 -301 q 251 -310 271 -307 q 203 -314 231 -314 q 92 -278 129 -314 q 56 -178 56 -242 q 73 -103 56 -140 q 119 -35 90 -67 q 183 21 149 -3 l 257 0 q 188 -82 210 -46 q 167 -158 167 -118 z "},"˜":{"ha":599,"x_min":56,"x_max":543,"o":"m 56 840 q 70 915 60 882 q 99 974 81 949 q 142 1012 117 999 q 201 1025 168 1025 q 256 1014 229 1025 q 307 988 282 1003 q 356 960 332 972 q 400 949 379 949 q 442 969 426 949 q 465 1026 457 989 l 543 1026 q 497 890 536 939 q 399 842 458 842 q 344 853 371 842 q 292 881 318 865 q 244 908 267 896 q 200 919 221 919 q 159 899 175 919 q 135 840 143 879 l 56 840 z "},"˝":{"ha":611,"x_min":56,"x_max":556,"o":"m 556 1050 q 523 1003 544 1031 q 474 944 501 975 q 418 888 446 914 q 368 842 390 861 l 292 842 l 292 858 q 334 925 311 888 q 377 1000 357 963 q 410 1064 397 1038 l 556 1064 l 556 1050 m 319 1050 q 287 1003 308 1031 q 238 945 265 975 q 183 889 211 915 q 131 842 156 863 l 56 842 l 56 858 q 99 926 76 889 q 140 1000 121 963 q 174 1064 160 1038 l 319 1064 l 319 1050 z "},"΄":{"ha":344,"x_min":56,"x_max":289,"o":"m 56 842 l 56 858 l 122 1078 l 289 1078 l 289 1064 l 151 842 l 56 842 z "},"΅":{"ha":918,"x_min":190,"x_max":726,"o":"m 365 842 l 365 858 l 418 1078 l 585 1078 l 585 1064 l 461 842 l 365 842 m 261 867 q 211 885 232 867 q 190 942 190 904 q 211 1000 190 982 q 261 1018 232 1018 q 313 1000 292 1018 q 333 943 333 982 q 313 885 333 904 q 261 867 292 867 m 654 867 q 603 885 624 867 q 583 942 583 904 q 604 1000 583 982 q 654 1018 625 1018 q 706 1000 685 1018 q 726 943 726 982 q 706 885 726 904 q 654 867 685 867 z "},"Ά":{"ha":925,"x_min":14,"x_max":925,"o":"m 771 0 l 681 288 l 353 288 l 263 0 l 110 0 l 436 994 l 597 994 l 925 0 l 771 0 m 557 706 q 544 754 553 725 q 528 814 536 783 q 517 865 521 844 q 504 810 511 839 q 490 753 497 781 q 476 706 483 726 l 389 415 l 644 415 l 557 706 m 14 756 l 14 772 l 81 992 l 247 992 l 247 978 l 110 756 l 14 756 z "},"·":{"ha":360,"x_min":89,"x_max":271,"o":"m 89 664 q 115 740 89 717 q 179 763 140 763 q 245 740 219 763 q 271 664 271 717 q 244 589 271 613 q 179 565 218 565 q 115 589 140 565 q 89 664 89 613 z "},"Έ":{"ha":946,"x_min":14,"x_max":871,"o":"m 871 0 l 367 0 l 367 992 l 871 992 l 871 867 l 513 867 l 513 579 l 849 579 l 849 454 l 513 454 l 513 126 l 871 126 l 871 0 m 14 756 l 14 772 l 81 992 l 247 992 l 247 978 l 110 756 l 14 756 z "},"Ή":{"ha":1183,"x_min":14,"x_max":1064,"o":"m 1064 0 l 918 0 l 918 454 l 513 454 l 513 0 l 367 0 l 367 992 l 513 992 l 513 581 l 918 581 l 918 992 l 1064 992 l 1064 0 m 14 756 l 14 772 l 81 992 l 247 992 l 247 978 l 110 756 l 14 756 z "},"Ί":{"ha":736,"x_min":14,"x_max":686,"o":"m 686 0 l 325 0 l 325 83 l 432 115 l 432 875 l 325 908 l 325 992 l 686 992 l 686 908 l 578 875 l 578 115 l 686 83 l 686 0 m 14 756 l 14 772 l 81 992 l 247 992 l 247 978 l 110 756 l 14 756 z "},"Ό":{"ha":1154,"x_min":14,"x_max":1078,"o":"m 1078 497 q 1053 290 1078 383 q 977 128 1028 196 q 849 23 926 60 q 667 -14 772 -14 q 483 24 561 -14 q 355 129 406 61 q 280 292 304 197 q 256 499 256 386 q 301 771 256 657 q 438 946 346 885 q 668 1007 529 1007 q 898 942 807 1007 q 1033 763 989 878 q 1078 497 1078 649 m 408 497 q 436 290 408 375 q 522 159 464 204 q 667 114 579 114 q 813 158 756 114 q 897 289 869 203 q 925 497 925 375 q 863 780 925 681 q 668 879 801 879 q 522 835 579 879 q 436 705 464 790 q 408 497 408 619 m 14 756 l 14 772 l 81 992 l 247 992 l 247 978 l 110 756 l 14 756 z "},"Ύ":{"ha":1042,"x_min":14,"x_max":1042,"o":"m 679 533 l 886 992 l 1042 992 l 751 385 l 751 0 l 607 0 l 607 381 l 317 992 l 474 992 l 679 533 m 14 756 l 14 772 l 81 992 l 247 992 l 247 978 l 110 756 l 14 756 z "},"Ώ":{"ha":1092,"x_min":14,"x_max":1060,"o":"m 225 0 l 225 128 l 418 128 q 322 229 364 168 q 256 369 279 290 q 232 544 232 449 q 280 786 232 682 q 420 949 328 890 q 643 1007 513 1007 q 865 949 774 1007 q 1004 786 956 890 q 1053 544 1053 682 q 1029 369 1053 449 q 963 228 1006 289 q 865 128 921 168 l 1060 128 l 1060 0 l 714 0 l 714 124 q 826 236 785 175 q 884 372 867 297 q 901 535 901 446 q 873 717 901 639 q 788 837 844 794 q 643 879 731 879 q 498 837 556 879 q 412 717 440 794 q 383 533 383 640 q 400 372 383 446 q 458 237 417 297 q 568 124 499 176 l 568 0 l 225 0 m 14 756 l 14 772 l 81 992 l 247 992 l 247 978 l 110 756 l 14 756 z "},"ΐ":{"ha":439,"x_min":-35,"x_max":500,"o":"m 308 -14 q 192 13 238 -14 q 125 92 147 40 q 103 217 103 143 l 103 749 l 244 749 l 244 221 q 268 131 244 157 q 332 106 292 106 q 372 109 353 106 q 410 118 390 113 l 410 1 q 365 -10 390 -6 q 308 -14 339 -14 m 140 842 l 140 858 l 193 1078 l 360 1078 l 360 1064 l 236 842 l 140 842 m 36 867 q -14 885 7 867 q -35 942 -35 904 q -14 1000 -35 982 q 36 1018 7 1018 q 88 1000 67 1018 q 108 943 108 982 q 88 885 108 904 q 36 867 67 867 m 429 867 q 378 885 399 867 q 358 942 358 904 q 379 1000 358 982 q 429 1018 400 1018 q 481 1000 460 1018 q 501 943 501 982 q 481 885 501 904 q 429 867 460 867 z "},"Α":{"ha":815,"x_min":0,"x_max":815,"o":"m 661 0 l 571 288 l 243 288 l 153 0 l 0 0 l 326 994 l 488 994 l 815 0 l 661 0 m 447 706 q 435 754 443 725 q 419 814 426 783 q 407 865 411 844 q 394 810 401 839 q 381 753 388 781 q 367 706 374 726 l 279 415 l 535 415 l 447 706 z "},"Β":{"ha":828,"x_min":119,"x_max":760,"o":"m 389 992 q 647 935 560 992 q 733 747 733 878 q 715 642 733 688 q 659 566 696 596 q 569 526 622 536 l 569 519 q 669 481 626 508 q 736 406 713 454 q 760 285 760 358 q 722 132 760 196 q 613 34 685 68 q 442 0 542 0 l 119 0 l 119 992 l 389 992 m 404 576 q 544 615 504 576 q 585 729 585 654 q 538 835 585 801 q 393 869 492 869 l 265 869 l 265 576 l 404 576 m 265 457 l 265 124 l 422 124 q 566 169 524 124 q 608 296 608 215 q 588 382 608 346 q 525 438 568 418 q 411 457 482 457 l 265 457 z "},"Γ":{"ha":640,"x_min":119,"x_max":600,"o":"m 119 0 l 119 992 l 600 992 l 600 867 l 264 867 l 264 0 l 119 0 z "},"Δ":{"ha":814,"x_min":14,"x_max":800,"o":"m 14 0 l 14 85 l 326 994 l 488 994 l 800 83 l 800 0 l 14 0 m 179 129 l 633 129 l 451 706 q 438 754 447 725 q 419 814 428 783 q 406 865 411 844 q 393 810 401 839 q 376 753 385 781 q 363 706 368 726 l 179 129 z "},"Ε":{"ha":699,"x_min":119,"x_max":624,"o":"m 624 0 l 119 0 l 119 992 l 624 992 l 624 867 l 265 867 l 265 579 l 601 579 l 601 454 l 265 454 l 265 126 l 624 126 l 624 0 z "},"Ζ":{"ha":699,"x_min":43,"x_max":658,"o":"m 658 0 l 43 0 l 43 106 l 478 865 l 54 865 l 54 992 l 647 992 l 647 886 l 211 128 l 658 128 l 658 0 z "},"Η":{"ha":936,"x_min":119,"x_max":817,"o":"m 817 0 l 671 0 l 671 454 l 265 454 l 265 0 l 119 0 l 119 992 l 265 992 l 265 581 l 671 581 l 671 992 l 817 992 l 817 0 z "},"Θ":{"ha":978,"x_min":78,"x_max":900,"o":"m 321 443 l 321 567 l 657 567 l 657 443 l 321 443 m 900 497 q 875 290 900 383 q 799 128 850 196 q 672 23 749 60 q 489 -14 594 -14 q 306 24 383 -14 q 177 129 228 61 q 102 292 126 197 q 78 499 78 386 q 123 771 78 657 q 260 946 168 885 q 490 1007 351 1007 q 720 942 629 1007 q 856 763 811 878 q 900 497 900 649 m 231 497 q 258 290 231 375 q 344 159 286 204 q 489 114 401 114 q 635 158 578 114 q 719 289 692 203 q 747 497 747 375 q 685 780 747 681 q 490 879 624 879 q 344 835 401 879 q 258 705 286 790 q 231 497 231 619 z "},"Ι":{"ha":461,"x_min":50,"x_max":411,"o":"m 411 0 l 50 0 l 50 83 l 157 115 l 157 875 l 50 908 l 50 992 l 411 992 l 411 908 l 303 875 l 303 115 l 411 83 l 411 0 z "},"Κ":{"ha":793,"x_min":119,"x_max":796,"o":"m 796 0 l 629 0 l 351 451 l 265 372 l 265 0 l 119 0 l 119 992 l 265 992 l 265 511 q 320 584 290 544 q 383 668 350 624 l 622 992 l 785 992 l 456 556 l 796 0 z "},"Λ":{"ha":792,"x_min":0,"x_max":792,"o":"m 0 0 l 315 994 l 476 994 l 792 0 l 638 0 l 435 706 q 422 754 429 725 q 407 814 414 783 q 394 865 400 844 q 383 810 389 839 q 369 753 376 781 q 357 706 363 726 l 153 0 l 0 0 z "},"Μ":{"ha":1181,"x_min":119,"x_max":1063,"o":"m 522 0 l 250 828 l 244 828 q 249 749 247 793 q 253 660 251 706 q 254 575 254 615 l 254 0 l 119 0 l 119 992 l 326 992 l 586 204 l 590 204 l 856 992 l 1063 992 l 1063 0 l 921 0 l 921 579 q 922 662 921 618 q 926 749 924 706 q 931 826 929 792 l 925 826 l 647 0 l 522 0 z "},"Ν":{"ha":981,"x_min":119,"x_max":861,"o":"m 861 0 l 685 0 l 249 792 l 243 792 q 248 712 246 754 q 252 627 250 669 q 254 542 254 585 l 254 0 l 119 0 l 119 992 l 294 992 l 729 207 l 735 207 q 731 283 733 242 q 728 369 729 325 q 725 451 726 414 l 725 992 l 861 992 l 861 0 z "},"Ξ":{"ha":783,"x_min":75,"x_max":708,"o":"m 75 0 l 75 128 l 708 128 l 708 0 l 75 0 m 146 454 l 146 583 l 638 583 l 638 454 l 146 454 m 99 864 l 99 992 l 685 992 l 685 864 l 99 864 z "},"Ο":{"ha":978,"x_min":78,"x_max":900,"o":"m 900 497 q 875 290 900 383 q 799 128 850 196 q 672 23 749 60 q 489 -14 594 -14 q 306 24 383 -14 q 177 129 228 61 q 102 292 126 197 q 78 499 78 386 q 123 771 78 657 q 260 946 168 885 q 490 1007 351 1007 q 720 942 629 1007 q 856 763 811 878 q 900 497 900 649 m 231 497 q 258 290 231 375 q 344 159 286 204 q 489 114 401 114 q 635 158 578 114 q 719 289 692 203 q 747 497 747 375 q 685 780 747 681 q 490 879 624 879 q 344 835 401 879 q 258 705 286 790 q 231 497 231 619 z "},"Π":{"ha":928,"x_min":119,"x_max":808,"o":"m 119 0 l 119 992 l 808 992 l 808 0 l 663 0 l 663 865 l 265 865 l 265 0 l 119 0 z "},"Ρ":{"ha":771,"x_min":119,"x_max":713,"o":"m 371 992 q 630 915 547 992 q 713 694 713 839 q 693 569 713 628 q 631 468 674 511 q 521 401 589 425 q 356 376 453 376 l 265 376 l 265 0 l 119 0 l 119 992 l 371 992 m 361 868 l 265 868 l 265 500 l 340 500 q 465 519 415 500 q 538 581 514 539 q 563 690 563 622 q 514 825 563 782 q 361 868 465 868 z "},"Σ":{"ha":699,"x_min":43,"x_max":658,"o":"m 43 0 l 43 118 l 321 514 l 54 875 l 54 992 l 646 992 l 646 865 l 356 865 q 290 866 325 865 q 231 869 256 867 l 468 546 l 468 508 l 199 124 q 281 126 242 125 q 363 128 321 128 l 658 128 l 658 0 l 43 0 z "},"Τ":{"ha":696,"x_min":17,"x_max":678,"o":"m 421 0 l 275 0 l 275 865 l 17 865 l 17 992 l 678 992 l 678 865 l 421 865 l 421 0 z "},"Υ":{"ha":725,"x_min":0,"x_max":725,"o":"m 363 533 l 569 992 l 725 992 l 435 385 l 435 0 l 290 0 l 290 381 l 0 992 l 157 992 l 363 533 z "},"Φ":{"ha":1106,"x_min":64,"x_max":1043,"o":"m 483 -4 l 483 129 q 281 163 363 131 q 152 251 200 196 q 84 376 104 307 q 64 515 64 444 q 85 658 64 590 q 156 778 107 726 q 285 862 204 831 q 483 893 365 893 l 483 996 l 624 996 l 624 893 q 822 863 742 893 q 951 779 903 832 q 1021 659 999 726 q 1043 515 1043 592 q 1022 374 1043 443 q 952 251 1000 306 q 823 163 904 196 q 624 129 742 131 l 624 -4 l 483 -4 m 483 249 l 483 772 q 318 738 379 771 q 232 647 257 704 q 207 517 207 590 q 235 376 207 436 q 323 284 263 317 q 483 249 383 251 m 624 249 q 785 285 725 251 q 872 378 846 319 q 899 517 899 438 q 874 649 899 592 q 789 738 849 706 q 624 772 729 771 l 624 249 z "},"Χ":{"ha":751,"x_min":6,"x_max":746,"o":"m 746 0 l 583 0 l 375 403 l 158 0 l 6 0 l 292 515 l 26 992 l 185 992 l 378 622 l 572 992 l 726 992 l 461 511 l 746 0 z "},"Ψ":{"ha":1057,"x_min":111,"x_max":946,"o":"m 458 0 l 458 254 q 307 285 372 258 q 198 358 242 311 q 133 474 154 404 q 111 633 111 543 l 111 992 l 256 992 l 256 633 q 278 488 256 544 q 347 406 301 432 q 458 379 393 379 l 458 992 l 599 992 l 599 379 q 707 403 661 379 q 777 483 753 428 q 801 632 801 539 l 801 992 l 946 992 l 946 636 q 907 432 946 515 q 790 305 868 349 q 599 254 713 261 l 599 0 l 458 0 z "},"Ω":{"ha":900,"x_min":33,"x_max":868,"o":"m 33 0 l 33 128 l 226 128 q 130 229 172 168 q 64 369 88 290 q 40 544 40 449 q 88 786 40 682 q 228 949 136 890 q 451 1007 321 1007 q 673 949 582 1007 q 813 786 764 890 q 861 544 861 682 q 838 369 861 449 q 772 228 814 289 q 674 128 729 168 l 868 128 l 868 0 l 522 0 l 522 124 q 634 236 593 175 q 692 372 675 297 q 710 535 710 446 q 681 717 710 639 q 596 837 653 794 q 451 879 539 879 q 306 837 364 879 q 220 717 249 794 q 192 533 192 640 q 208 372 192 446 q 266 237 225 297 q 376 124 307 176 l 376 0 l 33 0 z "},"Ϊ":{"ha":461,"x_min":33,"x_max":429,"o":"m 411 0 l 50 0 l 50 83 l 157 115 l 157 875 l 50 908 l 50 992 l 411 992 l 411 908 l 303 875 l 303 115 l 411 83 l 411 0 m 33 1185 q 54 1243 33 1225 q 104 1261 75 1261 q 156 1243 135 1261 q 176 1186 176 1225 q 156 1128 176 1147 q 104 1110 135 1110 q 54 1128 75 1110 q 33 1185 33 1147 m 288 1185 q 308 1243 288 1225 q 358 1261 328 1261 q 408 1243 388 1261 q 429 1186 429 1225 q 408 1128 429 1147 q 358 1110 388 1110 q 308 1128 328 1110 q 288 1185 288 1147 z "},"Ϋ":{"ha":725,"x_min":0,"x_max":725,"o":"m 363 533 l 569 992 l 725 992 l 435 385 l 435 0 l 290 0 l 290 381 l 0 992 l 157 992 l 363 533 m 164 1185 q 185 1243 164 1225 q 235 1261 206 1261 q 286 1243 265 1261 q 307 1186 307 1225 q 286 1128 307 1147 q 235 1110 265 1110 q 185 1128 206 1110 q 164 1185 164 1147 m 418 1185 q 438 1243 418 1225 q 489 1261 458 1261 q 539 1243 518 1261 q 560 1186 560 1225 q 539 1128 560 1147 q 489 1110 518 1110 q 438 1128 458 1110 q 418 1185 418 1147 z "},"ά":{"ha":807,"x_min":67,"x_max":778,"o":"m 333 -14 q 192 31 253 -14 q 99 161 132 75 q 67 372 67 247 q 140 663 67 563 q 340 763 213 763 q 424 749 388 763 q 491 710 461 736 q 542 650 521 685 l 549 650 l 565 749 l 682 749 l 682 189 q 698 124 682 144 q 738 104 714 104 q 759 107 747 104 q 778 111 771 110 l 778 3 q 759 -6 772 -1 q 731 -12 746 -10 q 701 -14 715 -14 q 607 12 643 -14 q 554 101 571 38 l 543 101 q 492 41 522 67 q 422 1 461 15 q 333 -14 382 -14 m 374 104 q 471 131 433 104 q 526 215 508 158 q 543 360 543 272 l 543 372 q 505 575 543 507 q 372 643 467 643 q 251 573 290 643 q 211 371 211 503 q 252 170 211 236 q 374 104 293 104 m 331 842 l 331 858 l 397 1078 l 564 1078 l 564 1064 l 426 842 l 331 842 z "},"έ":{"ha":600,"x_min":53,"x_max":561,"o":"m 343 -14 q 124 47 194 -14 q 53 206 53 108 q 73 297 53 261 q 127 356 93 333 q 201 388 161 378 l 201 394 q 112 455 144 413 q 79 563 79 497 q 109 669 79 624 q 197 738 139 714 q 336 763 254 763 q 459 749 401 763 q 561 710 517 735 l 519 599 q 435 635 478 624 q 347 647 393 647 q 247 621 278 647 q 217 547 217 594 q 255 469 217 494 q 356 443 293 443 l 438 443 l 438 333 l 356 333 q 268 320 303 333 q 216 281 233 307 q 199 217 199 256 q 240 132 199 160 q 357 104 282 104 q 459 115 413 104 q 549 151 506 125 l 549 31 q 456 -4 508 6 q 343 -14 404 -14 m 293 842 l 293 858 l 360 1078 l 526 1078 l 526 1064 l 389 842 l 293 842 z "},"ή":{"ha":779,"x_min":104,"x_max":678,"o":"m 538 -333 l 538 469 q 508 599 538 556 q 411 643 478 643 q 315 614 351 643 q 263 526 278 585 q 247 379 247 468 l 247 0 l 104 0 l 104 749 l 217 749 l 236 649 l 244 649 q 296 713 265 688 q 365 750 326 738 q 444 763 403 763 q 573 733 521 763 q 651 645 625 704 q 678 494 678 586 l 678 -333 l 538 -333 m 290 842 l 290 858 l 357 1078 l 524 1078 l 524 1064 l 386 842 l 290 842 z "},"ί":{"ha":439,"x_min":103,"x_max":410,"o":"m 308 -14 q 192 13 238 -14 q 125 92 147 40 q 103 217 103 143 l 103 749 l 244 749 l 244 221 q 268 131 244 157 q 332 106 292 106 q 372 109 353 106 q 410 118 390 113 l 410 1 q 365 -10 390 -6 q 308 -14 339 -14 m 140 842 l 140 858 l 207 1078 l 374 1078 l 374 1064 l 236 842 l 140 842 z "},"ΰ":{"ha":765,"x_min":100,"x_max":685,"o":"m 363 -12 q 232 8 283 -12 q 151 69 181 29 q 111 167 122 110 q 100 297 100 224 l 100 749 l 242 749 l 242 303 q 251 194 242 238 q 289 128 261 150 q 371 106 317 106 q 463 137 426 106 q 519 233 500 168 q 538 400 538 299 q 526 577 538 496 q 494 749 515 658 l 636 749 q 660 632 651 686 q 674 522 669 578 q 679 397 679 467 q 599 88 679 189 q 363 -12 518 -12 m 325 842 l 325 858 l 378 1078 l 544 1078 l 544 1064 l 421 842 l 325 842 m 221 867 q 171 885 192 867 q 150 942 150 904 q 171 1000 150 982 q 221 1018 192 1018 q 272 1000 251 1018 q 293 943 293 982 q 272 885 293 904 q 221 867 251 867 m 614 867 q 563 885 583 867 q 543 942 543 904 q 564 1000 543 982 q 614 1018 585 1018 q 665 1000 644 1018 q 686 943 686 982 q 665 885 686 904 q 614 867 644 867 z "},"α":{"ha":807,"x_min":67,"x_max":778,"o":"m 333 -14 q 192 31 253 -14 q 99 161 132 75 q 67 372 67 247 q 140 663 67 563 q 340 763 213 763 q 424 749 388 763 q 491 710 461 736 q 542 650 521 685 l 549 650 l 565 749 l 682 749 l 682 189 q 698 124 682 144 q 738 104 714 104 q 759 107 747 104 q 778 111 771 110 l 778 3 q 759 -6 772 -1 q 731 -12 746 -10 q 701 -14 715 -14 q 607 12 643 -14 q 554 101 571 38 l 543 101 q 492 41 522 67 q 422 1 461 15 q 333 -14 382 -14 m 374 104 q 471 131 433 104 q 526 215 508 158 q 543 360 543 272 l 543 372 q 505 575 543 507 q 372 643 467 643 q 251 573 290 643 q 211 371 211 503 q 252 170 211 236 q 374 104 293 104 z "},"β":{"ha":785,"x_min":104,"x_max":719,"o":"m 104 -333 l 104 749 q 142 926 104 857 q 246 1028 179 994 q 400 1063 313 1063 q 550 1031 489 1063 q 642 942 611 1000 q 674 799 674 883 q 651 681 674 731 q 590 603 629 632 q 499 563 551 574 l 499 558 q 617 515 568 549 q 692 425 665 482 q 719 285 719 368 q 682 123 719 190 q 579 21 644 56 q 429 -14 514 -14 q 355 -8 386 -14 q 299 8 324 -3 q 247 32 274 18 l 247 -333 l 104 -333 m 406 106 q 531 155 488 106 q 575 297 575 204 q 552 408 575 364 q 490 475 529 453 q 403 497 451 497 l 321 497 l 321 610 l 392 610 q 469 631 438 610 q 515 691 500 651 q 531 785 531 731 q 493 905 531 865 q 397 944 456 944 q 320 926 354 944 q 267 863 286 907 q 247 743 247 818 l 247 156 q 322 119 283 133 q 406 106 360 106 z "},"γ":{"ha":674,"x_min":1,"x_max":629,"o":"m 233 -292 l 233 1 l 1 749 l 149 749 l 267 325 q 286 258 275 294 q 307 189 297 222 q 321 132 317 156 l 326 132 q 422 310 386 217 q 473 513 457 404 q 489 749 489 621 l 629 749 q 606 478 629 604 q 526 237 582 353 q 375 4 471 121 l 375 -292 l 233 -292 z "},"δ":{"ha":751,"x_min":53,"x_max":686,"o":"m 368 -14 q 201 26 272 -14 q 91 139 129 67 q 53 307 53 211 q 81 458 53 393 q 162 569 110 524 q 283 643 214 615 q 217 699 247 669 q 170 767 188 729 q 153 856 153 806 q 183 960 153 914 q 271 1035 213 1007 q 411 1063 329 1063 q 514 1051 468 1063 q 595 1022 560 1039 q 653 983 631 1004 l 597 875 q 510 928 557 908 q 414 949 464 949 q 342 935 369 949 q 303 899 315 921 q 292 856 292 878 q 306 804 292 829 q 351 753 319 779 q 438 692 383 726 q 588 574 535 633 q 664 453 642 515 q 686 321 686 392 q 645 137 686 211 q 533 24 604 63 q 368 -14 461 -14 m 371 104 q 465 131 426 104 q 524 207 504 158 q 544 321 544 256 q 525 426 544 379 q 469 513 506 474 q 382 581 433 551 q 304 540 339 564 q 246 483 269 515 q 210 408 222 450 q 197 318 197 367 q 218 204 197 253 q 278 130 239 156 q 371 104 318 104 z "},"ε":{"ha":600,"x_min":53,"x_max":561,"o":"m 343 -14 q 124 47 194 -14 q 53 206 53 108 q 73 297 53 261 q 127 356 93 333 q 201 388 161 378 l 201 394 q 112 455 144 413 q 79 563 79 497 q 109 669 79 624 q 197 738 139 714 q 336 763 254 763 q 459 749 401 763 q 561 710 517 735 l 519 599 q 435 635 478 624 q 347 647 393 647 q 247 621 278 647 q 217 547 217 594 q 255 469 217 494 q 356 443 293 443 l 438 443 l 438 333 l 356 333 q 268 320 303 333 q 216 281 233 307 q 199 217 199 256 q 240 132 199 160 q 357 104 282 104 q 459 115 413 104 q 549 151 506 125 l 549 31 q 456 -4 508 6 q 343 -14 404 -14 z "},"ζ":{"ha":581,"x_min":67,"x_max":583,"o":"m 379 -281 q 423 -187 407 -231 q 439 -110 439 -143 q 431 -66 439 -83 q 400 -37 424 -49 q 331 -14 376 -25 q 178 48 236 10 q 93 142 119 86 q 67 272 67 197 q 97 433 67 354 q 182 594 128 511 q 304 775 236 678 l 429 953 q 390 948 417 950 q 329 945 364 946 q 261 944 294 944 l 100 944 l 100 1056 l 583 1056 l 583 967 l 407 711 q 293 534 336 608 q 231 403 250 460 q 213 293 213 346 q 226 216 213 251 q 279 153 239 181 q 401 103 319 125 q 506 65 467 86 q 562 10 544 43 q 579 -75 579 -22 q 571 -148 579 -112 q 548 -216 563 -183 q 517 -281 533 -249 l 379 -281 z "},"η":{"ha":779,"x_min":104,"x_max":678,"o":"m 538 -333 l 538 469 q 508 599 538 556 q 411 643 478 643 q 315 614 351 643 q 263 526 278 585 q 247 379 247 468 l 247 0 l 104 0 l 104 749 l 217 749 l 236 649 l 244 649 q 296 713 265 688 q 365 750 326 738 q 444 763 403 763 q 573 733 521 763 q 651 645 625 704 q 678 494 678 586 l 678 -333 l 538 -333 z "},"θ":{"ha":761,"x_min":67,"x_max":696,"o":"m 379 -14 q 204 49 274 -14 q 101 231 135 111 q 67 526 67 351 q 99 820 67 700 q 201 1001 131 940 q 379 1063 271 1063 q 556 1002 486 1063 q 661 822 626 942 q 696 526 696 701 q 663 232 696 353 q 560 49 629 111 q 379 -14 490 -14 m 379 100 q 474 138 436 100 q 531 260 511 176 q 553 479 550 343 l 208 479 q 228 261 211 344 q 283 139 246 178 q 379 100 321 100 m 208 592 l 553 592 q 529 793 549 715 q 473 909 510 871 q 379 947 436 947 q 287 910 324 947 q 232 794 250 872 q 208 592 214 715 z "},"ι":{"ha":439,"x_min":103,"x_max":410,"o":"m 308 -14 q 192 13 238 -14 q 125 92 147 40 q 103 217 103 143 l 103 749 l 244 749 l 244 221 q 268 131 244 157 q 332 106 292 106 q 372 109 353 106 q 410 118 390 113 l 410 1 q 365 -10 390 -6 q 308 -14 339 -14 z "},"κ":{"ha":707,"x_min":104,"x_max":700,"o":"m 682 749 l 432 429 l 700 0 l 538 0 l 336 333 l 250 257 l 250 0 l 104 0 l 104 749 l 250 749 l 250 553 q 248 458 250 504 q 243 379 246 413 l 246 379 q 275 422 260 400 q 303 461 290 443 l 522 749 l 682 749 z "},"λ":{"ha":683,"x_min":7,"x_max":682,"o":"m 600 -14 q 533 1 561 -14 q 487 45 506 15 q 454 124 468 75 l 376 379 q 361 428 369 403 q 344 481 353 454 q 330 534 336 508 q 321 581 324 560 l 315 581 q 297 493 310 539 q 271 401 285 447 l 158 0 l 7 0 l 254 742 l 224 835 q 169 919 204 896 q 83 943 135 943 q 45 940 63 943 q 15 935 28 938 l 15 1051 q 40 1058 26 1056 q 71 1061 54 1060 q 106 1063 88 1063 q 217 1042 169 1063 q 301 975 265 1022 q 363 850 338 928 l 576 189 q 596 139 588 157 q 615 114 604 121 q 642 107 626 107 q 663 109 653 107 q 682 114 674 111 l 682 1 q 659 -6 672 -3 q 631 -12 646 -10 q 600 -14 615 -14 z "},"μ":{"ha":814,"x_min":104,"x_max":783,"o":"m 104 -333 l 104 749 l 247 749 l 247 281 q 279 150 247 194 q 378 106 311 106 q 509 172 471 106 q 547 369 547 239 l 546 749 l 689 749 l 689 189 q 704 124 689 144 q 743 104 719 104 q 766 107 754 104 q 783 111 778 110 l 783 3 q 765 -6 778 -1 q 736 -12 751 -10 q 708 -14 721 -14 q 613 12 649 -14 q 560 101 576 38 l 550 101 q 506 39 532 65 q 448 -1 481 13 q 376 -14 415 -14 q 299 3 332 -14 q 244 50 267 19 l 240 50 q 244 6 243 31 q 247 -48 246 -19 q 247 -106 247 -76 l 247 -333 l 104 -333 z "},"ν":{"ha":674,"x_min":1,"x_max":629,"o":"m 233 0 l 1 749 l 149 749 l 267 325 q 286 258 275 294 q 307 189 297 222 q 321 132 317 156 l 326 132 q 422 310 386 217 q 473 513 457 404 q 489 749 489 621 l 629 749 q 605 476 629 603 q 524 232 581 349 q 372 0 468 115 l 233 0 z "},"ξ":{"ha":631,"x_min":67,"x_max":590,"o":"m 386 -281 q 431 -188 414 -231 q 447 -108 447 -146 q 439 -67 447 -83 q 407 -37 431 -50 q 335 -14 383 -24 q 189 44 249 8 q 98 137 129 79 q 67 279 67 194 q 92 409 67 354 q 161 499 117 464 q 263 550 206 535 l 263 557 q 179 594 214 569 q 126 656 144 618 q 107 749 107 694 q 130 844 107 804 q 192 911 153 885 q 282 951 232 938 q 240 949 265 950 q 190 946 215 947 q 142 944 164 944 l 103 944 l 103 1056 l 590 1056 l 590 950 l 538 950 q 422 940 475 950 q 330 909 369 931 q 268 851 290 888 q 246 763 246 815 q 265 683 246 717 q 330 628 285 649 q 450 608 375 608 l 567 608 l 567 497 l 446 497 q 310 472 363 497 q 235 403 258 447 q 211 300 211 358 q 230 208 211 244 q 293 146 249 171 q 414 100 338 121 q 519 61 482 85 q 572 5 557 38 q 586 -72 586 -28 q 578 -145 586 -110 q 557 -213 571 -181 q 524 -281 543 -246 l 386 -281 z "},"ο":{"ha":769,"x_min":67,"x_max":703,"o":"m 703 376 q 682 213 703 285 q 620 91 661 142 q 519 13 579 40 q 382 -14 460 -14 q 253 13 311 -14 q 153 91 194 40 q 89 213 111 142 q 67 376 67 285 q 103 585 67 499 q 212 717 140 671 q 386 763 283 763 q 553 718 482 763 q 663 588 624 674 q 703 376 703 501 m 211 375 q 230 228 211 289 q 287 136 249 168 q 385 104 325 104 q 484 136 446 104 q 540 228 522 168 q 558 375 558 289 q 540 522 558 463 q 483 613 521 582 q 385 644 444 644 q 252 575 293 644 q 211 375 211 506 z "},"π":{"ha":858,"x_min":24,"x_max":829,"o":"m 711 -12 q 592 35 633 -12 q 551 182 551 83 l 551 638 l 301 638 l 301 0 l 161 0 l 161 638 l 24 638 l 24 749 l 829 749 l 829 638 l 693 638 l 693 189 q 710 124 693 143 q 753 106 726 106 q 787 110 769 106 q 817 121 804 114 l 817 11 q 772 -6 800 1 q 711 -12 744 -12 z "},"ρ":{"ha":765,"x_min":83,"x_max":700,"o":"m 83 -333 l 83 382 q 119 590 83 506 q 222 719 154 675 q 385 763 290 763 q 554 718 483 763 q 663 585 625 674 q 700 367 700 497 q 662 163 700 249 q 556 32 624 78 q 400 -14 489 -14 q 305 2 349 -14 q 226 46 261 18 l 218 46 q 224 -38 222 11 q 226 -139 226 -87 l 226 -333 l 83 -333 m 388 104 q 479 133 442 104 q 535 221 517 163 q 554 367 554 279 q 510 578 554 511 q 382 644 467 644 q 265 582 304 644 q 226 390 226 519 l 226 165 q 301 119 258 135 q 388 104 343 104 z "},"σ":{"ha":794,"x_min":67,"x_max":751,"o":"m 378 -14 q 212 31 282 -14 q 104 160 142 76 q 67 360 67 244 q 110 583 67 497 q 236 710 154 669 q 433 750 318 750 l 751 750 l 751 638 l 590 638 q 650 559 628 603 q 683 463 672 515 q 693 350 693 411 q 673 210 693 276 q 613 93 653 143 q 515 15 574 43 q 378 -14 456 -14 m 379 104 q 476 136 439 104 q 532 225 514 168 q 550 356 550 282 q 542 463 550 411 q 515 558 533 514 q 463 638 496 603 l 428 638 q 308 609 357 638 q 234 519 258 581 q 210 358 210 458 q 228 224 210 281 q 283 135 246 167 q 379 104 321 104 z "},"τ":{"ha":624,"x_min":24,"x_max":581,"o":"m 413 -15 q 300 6 349 -15 q 224 80 251 28 q 196 221 196 132 l 196 638 l 24 638 l 24 749 l 581 749 l 581 638 l 339 638 l 339 229 q 351 157 339 185 q 387 116 364 129 q 442 103 410 103 q 497 108 469 103 q 549 119 525 113 l 549 10 q 489 -8 526 0 q 413 -15 451 -15 z "},"υ":{"ha":765,"x_min":100,"x_max":679,"o":"m 363 -12 q 232 8 283 -12 q 151 69 181 29 q 111 167 122 110 q 100 297 100 224 l 100 749 l 242 749 l 242 303 q 251 194 242 238 q 289 128 261 150 q 371 106 317 106 q 463 137 426 106 q 519 233 500 168 q 538 400 538 299 q 526 577 538 496 q 494 749 515 658 l 636 749 q 660 632 651 686 q 674 522 669 578 q 679 397 679 467 q 599 88 679 189 q 363 -12 518 -12 z "},"φ":{"ha":956,"x_min":67,"x_max":890,"o":"m 411 -333 l 411 -8 q 228 49 306 1 q 108 181 150 97 q 67 375 67 264 q 105 569 67 486 q 220 700 143 651 q 411 757 297 749 l 411 1056 l 546 1056 l 546 757 q 733 698 656 749 q 850 565 810 647 q 890 375 890 482 q 851 183 890 267 q 735 51 811 100 q 546 -8 658 1 l 546 -333 l 411 -333 m 411 103 l 411 646 q 301 605 346 639 q 234 513 256 571 q 213 375 213 456 q 234 239 213 297 q 299 145 256 181 q 411 103 343 110 m 546 103 q 658 146 614 110 q 723 240 701 182 q 744 375 744 299 q 694 564 744 494 q 546 644 644 633 l 546 103 z "},"χ":{"ha":768,"x_min":24,"x_max":764,"o":"m 667 -333 q 582 -317 615 -333 q 525 -265 549 -300 q 475 -169 501 -229 l 171 538 q 130 614 149 589 q 81 639 111 639 q 53 636 67 639 q 28 629 40 633 l 28 744 q 63 753 46 749 q 110 757 81 757 q 185 742 156 757 q 238 695 214 728 q 285 607 261 663 l 594 -108 q 626 -169 613 -146 q 656 -204 639 -193 q 701 -215 674 -215 q 731 -213 717 -215 q 758 -208 744 -211 l 758 -321 q 733 -328 746 -325 q 703 -332 719 -331 q 667 -333 688 -333 m 24 -333 l 350 246 l 407 108 l 169 -333 l 24 -333 m 439 132 l 383 272 l 618 749 l 764 749 l 439 132 z "},"ψ":{"ha":975,"x_min":100,"x_max":889,"o":"m 418 -333 l 418 -12 q 247 27 318 -8 q 138 140 175 63 q 100 347 100 218 l 100 749 l 238 749 l 238 346 q 258 207 238 258 q 319 133 278 156 q 418 106 360 111 l 418 1056 l 556 1056 l 556 107 q 666 144 624 113 q 729 237 708 175 q 750 393 750 299 q 738 569 750 485 q 704 749 726 654 l 842 749 q 878 567 867 653 q 889 393 889 482 q 848 168 889 256 q 732 38 807 81 q 556 -12 657 -6 l 556 -333 l 418 -333 z "},"ω":{"ha":1028,"x_min":81,"x_max":947,"o":"m 326 -14 q 189 33 243 -14 q 108 164 135 79 q 81 363 81 249 q 113 588 81 489 q 196 749 144 686 l 332 749 q 273 649 299 707 q 233 519 247 590 q 219 365 219 447 q 250 172 219 238 q 339 107 281 107 q 400 128 376 107 q 435 192 424 150 q 446 292 446 233 l 446 499 l 581 499 l 581 292 q 593 190 581 231 q 629 128 606 149 q 689 107 653 107 q 755 136 728 107 q 795 223 782 165 q 808 364 808 281 q 796 514 808 443 q 758 644 783 585 q 696 749 733 704 l 832 749 q 895 647 869 706 q 934 517 921 588 q 947 363 947 446 q 920 164 947 249 q 838 33 893 79 q 700 -14 783 -14 q 583 22 629 -14 q 517 135 538 58 l 511 135 q 472 51 497 83 q 411 2 447 18 q 326 -14 375 -14 z "},"ϊ":{"ha":439,"x_min":-18,"x_max":410,"o":"m 308 -14 q 192 13 238 -14 q 125 92 147 40 q 103 217 103 143 l 103 749 l 244 749 l 244 221 q 268 131 244 157 q 332 106 292 106 q 372 109 353 106 q 410 118 390 113 l 410 1 q 365 -10 390 -6 q 308 -14 339 -14 m -18 942 q 3 1000 -18 982 q 53 1018 24 1018 q 104 1000 83 1018 q 125 943 125 982 q 104 885 125 904 q 53 867 83 867 q 3 885 24 867 q -18 942 -18 904 m 236 942 q 256 1000 236 982 q 307 1018 276 1018 q 357 1000 336 1018 q 378 943 378 982 q 357 885 378 904 q 307 867 336 867 q 256 885 276 867 q 236 942 236 904 z "},"ϋ":{"ha":765,"x_min":100,"x_max":679,"o":"m 363 -12 q 232 8 283 -12 q 151 69 181 29 q 111 167 122 110 q 100 297 100 224 l 100 749 l 242 749 l 242 303 q 251 194 242 238 q 289 128 261 150 q 371 106 317 106 q 463 137 426 106 q 519 233 500 168 q 538 400 538 299 q 526 577 538 496 q 494 749 515 658 l 636 749 q 660 632 651 686 q 674 522 669 578 q 679 397 679 467 q 599 88 679 189 q 363 -12 518 -12 m 167 942 q 188 1000 167 982 q 238 1018 208 1018 q 289 1000 268 1018 q 310 943 310 982 q 289 885 310 904 q 238 867 268 867 q 188 885 208 867 q 167 942 167 904 m 421 942 q 441 1000 421 982 q 492 1018 461 1018 q 542 1000 521 1018 q 563 943 563 982 q 542 885 563 904 q 492 867 521 867 q 441 885 461 867 q 421 942 421 904 z "},"ό":{"ha":769,"x_min":67,"x_max":703,"o":"m 703 376 q 682 213 703 285 q 620 91 661 142 q 519 13 579 40 q 382 -14 460 -14 q 253 13 311 -14 q 153 91 194 40 q 89 213 111 142 q 67 376 67 285 q 103 585 67 499 q 212 717 140 671 q 386 763 283 763 q 553 718 482 763 q 663 588 624 674 q 703 376 703 501 m 211 375 q 230 228 211 289 q 287 136 249 168 q 385 104 325 104 q 484 136 446 104 q 540 228 522 168 q 558 375 558 289 q 540 522 558 463 q 483 613 521 582 q 385 644 444 644 q 252 575 293 644 q 211 375 211 506 m 344 842 l 344 858 l 411 1078 l 578 1078 l 578 1064 l 440 842 l 344 842 z "},"ύ":{"ha":765,"x_min":100,"x_max":679,"o":"m 363 -12 q 232 8 283 -12 q 151 69 181 29 q 111 167 122 110 q 100 297 100 224 l 100 749 l 242 749 l 242 303 q 251 194 242 238 q 289 128 261 150 q 371 106 317 106 q 463 137 426 106 q 519 233 500 168 q 538 400 538 299 q 526 577 538 496 q 494 749 515 658 l 636 749 q 660 632 651 686 q 674 522 669 578 q 679 397 679 467 q 599 88 679 189 q 363 -12 518 -12 m 325 842 l 325 858 l 392 1078 l 558 1078 l 558 1064 l 421 842 l 325 842 z "},"ώ":{"ha":1028,"x_min":81,"x_max":947,"o":"m 326 -14 q 189 33 243 -14 q 108 164 135 79 q 81 363 81 249 q 113 588 81 489 q 196 749 144 686 l 332 749 q 273 649 299 707 q 233 519 247 590 q 219 365 219 447 q 250 172 219 238 q 339 107 281 107 q 400 128 376 107 q 435 192 424 150 q 446 292 446 233 l 446 499 l 581 499 l 581 292 q 593 190 581 231 q 629 128 606 149 q 689 107 653 107 q 755 136 728 107 q 795 223 782 165 q 808 364 808 281 q 796 514 808 443 q 758 644 783 585 q 696 749 733 704 l 832 749 q 895 647 869 706 q 934 517 921 588 q 947 363 947 446 q 920 164 947 249 q 838 33 893 79 q 700 -14 783 -14 q 583 22 629 -14 q 517 135 538 58 l 511 135 q 472 51 497 83 q 411 2 447 18 q 326 -14 375 -14 m 475 842 l 475 858 l 542 1078 l 708 1078 l 708 1064 l 571 842 l 475 842 z "},"Ё":{"ha":699,"x_min":119,"x_max":624,"o":"m 119 0 l 119 992 l 624 992 l 624 867 l 265 867 l 265 579 l 601 579 l 601 454 l 265 454 l 265 126 l 624 126 l 624 0 l 119 0 m 263 1096 q 210 1118 229 1096 q 192 1179 192 1140 q 210 1242 192 1221 q 263 1264 229 1264 q 315 1242 296 1264 q 333 1179 333 1221 q 315 1117 333 1139 q 263 1096 296 1096 m 493 1096 q 441 1117 460 1096 q 422 1179 422 1139 q 441 1242 422 1221 q 493 1264 460 1264 q 546 1242 528 1264 q 564 1179 564 1221 q 545 1117 564 1139 q 493 1096 526 1096 z "},"Ђ":{"ha":921,"x_min":17,"x_max":861,"o":"m 585 -17 q 526 -12 554 -17 q 476 -1 497 -8 l 476 119 q 524 110 503 113 q 564 108 544 108 q 674 156 636 108 q 711 292 713 203 l 711 293 q 666 434 711 388 q 531 481 621 481 q 432 469 483 481 q 332 432 381 457 l 374 513 l 374 0 l 229 0 l 228 864 l 17 864 l 17 992 l 667 992 l 667 864 l 372 864 l 374 526 l 331 558 q 437 594 382 582 q 551 606 492 606 q 781 526 700 606 q 861 296 861 447 l 861 293 q 827 127 861 197 q 731 20 793 57 q 585 -17 669 -17 z "},"Ѓ":{"ha":660,"x_min":119,"x_max":622,"o":"m 119 0 l 119 992 l 622 992 l 622 865 l 265 865 l 265 0 l 119 0 m 301 1079 l 301 1096 l 435 1301 l 599 1301 l 599 1288 l 396 1079 l 301 1079 z "},"Є":{"ha":803,"x_min":76,"x_max":754,"o":"m 497 -14 q 265 46 358 -14 q 124 219 171 106 q 76 492 76 332 q 128 767 76 651 q 276 944 179 882 q 507 1006 372 1006 q 632 992 569 1006 q 754 950 694 979 l 703 831 q 604 867 653 856 q 511 879 556 879 q 360 837 424 879 q 264 713 297 794 q 228 513 231 631 l 165 572 l 633 572 l 633 446 l 163 446 l 226 504 q 258 290 225 378 q 356 158 290 203 q 518 113 422 113 q 620 124 567 113 q 729 158 674 136 l 729 31 q 619 -3 679 8 q 497 -14 558 -14 z "},"Ѕ":{"ha":696,"x_min":61,"x_max":639,"o":"m 310 -14 q 217 -8 263 -14 q 133 8 172 -3 q 61 33 94 18 l 61 172 q 180 129 115 146 q 308 113 244 113 q 413 131 372 113 q 474 183 454 150 q 493 260 493 215 q 472 339 493 307 q 409 397 451 371 q 299 451 367 422 q 209 497 250 472 q 137 556 168 522 q 88 635 106 589 q 71 742 71 681 q 109 883 71 824 q 215 974 147 942 q 372 1006 282 1006 q 508 990 444 1006 q 626 949 571 975 l 581 828 q 478 864 529 850 q 374 878 426 878 q 288 862 322 878 q 235 816 253 846 q 217 744 217 786 q 238 667 217 699 q 299 610 258 635 q 404 557 340 585 q 528 488 476 525 q 610 400 581 451 q 639 271 639 349 q 599 119 639 183 q 486 21 560 56 q 310 -14 413 -14 z "},"І":{"ha":385,"x_min":119,"x_max":265,"o":"m 119 0 l 119 992 l 265 992 l 265 0 l 119 0 z "},"Ї":{"ha":389,"x_min":31,"x_max":358,"o":"m 121 0 l 121 992 l 267 992 l 267 0 l 121 0 m 101 1094 q 49 1117 68 1094 q 31 1178 31 1139 q 49 1241 31 1219 q 101 1263 68 1263 q 153 1241 135 1263 q 172 1179 172 1219 q 153 1117 172 1139 q 101 1094 135 1094 m 288 1094 q 235 1116 254 1094 q 217 1178 217 1138 q 235 1241 217 1219 q 288 1263 254 1263 q 340 1241 322 1263 q 358 1179 358 1219 q 340 1116 358 1138 q 288 1094 321 1094 z "},"Ј":{"ha":375,"x_min":-93,"x_max":261,"o":"m 10 -274 q -48 -269 -22 -274 q -93 -257 -74 -265 l -93 -132 q -51 -142 -74 -137 q -3 -146 -28 -146 q 58 -131 32 -146 q 100 -80 85 -117 q 115 21 115 -43 l 115 992 l 261 992 l 261 24 q 231 -147 261 -82 q 144 -243 200 -212 q 10 -274 88 -274 z "},"Љ":{"ha":1272,"x_min":3,"x_max":1214,"o":"m 93 -15 q 47 -11 71 -15 q 3 -1 24 -7 l 3 129 q 33 122 19 124 q 64 119 47 119 q 122 135 100 119 q 158 188 144 150 q 175 290 171 226 q 185 427 181 360 q 194 573 190 494 q 204 753 199 651 q 215 992 210 854 l 760 992 l 760 618 l 868 618 q 1127 542 1040 618 q 1214 314 1214 465 q 1126 81 1214 163 q 869 0 1038 0 l 614 0 l 614 865 l 346 865 q 336 688 340 768 q 328 537 332 607 q 320 402 325 467 q 310 274 315 338 q 276 109 300 172 q 207 15 251 46 q 93 -15 163 -15 m 760 125 l 865 125 q 1015 172 965 125 q 1065 313 1065 219 q 1016 451 1065 407 q 864 494 967 494 l 760 494 l 760 125 z "},"Њ":{"ha":1288,"x_min":119,"x_max":1229,"o":"m 119 0 l 119 992 l 265 992 l 265 597 l 629 597 l 629 992 l 774 992 l 774 597 l 883 597 q 1142 522 1054 597 q 1229 301 1229 446 q 1140 78 1229 157 q 883 0 1051 0 l 629 0 l 629 472 l 265 472 l 265 0 l 119 0 m 774 125 l 879 125 q 1030 169 981 125 q 1079 301 1079 214 q 1030 430 1079 388 q 879 472 981 472 l 774 472 l 774 125 z "},"Ћ":{"ha":931,"x_min":17,"x_max":853,"o":"m 229 0 l 229 865 l 17 865 l 17 992 l 667 992 l 667 865 l 374 865 l 374 510 l 331 558 q 449 593 392 582 q 564 604 506 604 q 781 533 708 604 q 851 313 853 461 l 851 0 l 707 0 l 707 306 q 666 438 707 396 q 533 479 625 479 q 435 467 485 479 q 329 432 386 456 l 374 510 l 374 0 l 229 0 z "},"Ќ":{"ha":807,"x_min":119,"x_max":801,"o":"m 636 0 l 342 500 l 342 529 l 621 992 l 775 992 l 479 507 l 481 542 l 801 0 l 636 0 m 119 0 l 119 992 l 264 992 l 264 0 l 119 0 m 221 454 l 221 581 l 428 581 l 428 454 l 221 454 m 351 1074 l 351 1090 l 485 1296 l 649 1296 l 649 1282 l 446 1074 l 351 1074 z "},"Ў":{"ha":767,"x_min":8,"x_max":767,"o":"m 185 -14 q 132 -10 157 -14 q 85 1 107 -7 l 85 129 q 123 122 104 125 q 165 119 142 119 q 244 139 213 119 q 300 205 275 158 q 350 331 325 251 l 350 206 l 8 992 l 167 992 l 364 521 q 376 488 369 506 q 390 450 383 469 q 401 411 396 431 l 408 411 q 417 447 413 428 q 428 483 422 465 q 440 518 435 501 l 615 992 l 767 992 l 494 288 q 410 113 453 179 q 315 16 368 46 q 185 -14 261 -14 m 401 1068 q 248 1116 304 1068 q 182 1257 192 1164 l 307 1257 q 336 1183 313 1207 q 403 1160 360 1160 q 468 1184 444 1160 q 499 1257 492 1208 l 622 1257 q 556 1116 613 1164 q 401 1068 500 1068 z "},"Џ":{"ha":925,"x_min":119,"x_max":806,"o":"m 392 -208 l 392 0 l 119 0 l 119 992 l 265 992 l 265 126 l 660 126 l 660 992 l 806 992 l 806 0 l 532 0 l 532 -208 l 392 -208 z "},"А":{"ha":815,"x_min":0,"x_max":815,"o":"m 661 0 l 571 288 l 243 288 l 153 0 l 0 0 l 326 994 l 488 994 l 815 0 l 661 0 m 447 706 q 435 754 443 725 q 419 814 426 783 q 407 865 411 844 q 394 810 401 839 q 381 753 388 781 q 367 706 374 726 l 279 415 l 535 415 l 447 706 z "}}}
